<svg width="25" height="24" viewBox="0 0 25 24" fill="none" xmlns="http://www.w3.org/2000/svg">
<g clip-path="url(#clip0_196_1798)">
<path fill-rule="evenodd" clip-rule="evenodd" d="M12.5 4C12.9243 4 13.3313 4.16857 13.6314 4.46863C13.9314 4.76869 14.1 5.17565 14.1 5.6V10.4H18.9C19.3243 10.4 19.7313 10.5686 20.0314 10.8686C20.3314 11.1687 20.5 11.5757 20.5 12C20.5 12.4243 20.3314 12.8313 20.0314 13.1314C19.7313 13.4314 19.3243 13.6 18.9 13.6H14.1V18.4C14.1 18.8243 13.9314 19.2313 13.6314 19.5314C13.3313 19.8314 12.9243 20 12.5 20C12.0757 20 11.6687 19.8314 11.3686 19.5314C11.0686 19.2313 10.9 18.8243 10.9 18.4V13.6H6.1C5.67565 13.6 5.26869 13.4314 4.96863 13.1314C4.66857 12.8313 4.5 12.4243 4.5 12C4.5 11.5757 4.66857 11.1687 4.96863 10.8686C5.26869 10.5686 5.67565 10.4 6.1 10.4H10.9V5.6C10.9 5.17565 11.0686 4.76869 11.3686 4.46863C11.6687 4.16857 12.0757 4 12.5 4Z" fill="white"/>
</g>
<defs>
<clipPath id="clip0_196_1798">
<rect width="24" height="24" fill="white" transform="translate(0.5)"/>
</clipPath>
</defs>
</svg>
