<svg width="40" height="27" viewBox="0 0 40 27" fill="none" xmlns="http://www.w3.org/2000/svg">
<path d="M2.86155 0.5H37.4769C38.539 0.5 39.4 1.36099 39.4 2.42308V24.5769C39.4 25.639 38.539 26.5 37.4769 26.5H2.86155C1.79947 26.5 0.938477 25.639 0.938477 24.5769V2.42308C0.938477 1.36099 1.79947 0.5 2.86155 0.5Z" fill="#006FCF" stroke="#F3F3F3"/>
<path fill-rule="evenodd" clip-rule="evenodd" d="M8.30535 19.6572V13.9564H14.7602L15.4527 14.8006L16.1682 13.9564H39.5977V19.264C39.5977 19.264 38.985 19.6515 38.2763 19.6572H25.3029L24.5221 18.7586V19.6572H21.9635V18.1232C21.9635 18.1232 21.6139 18.3373 20.8583 18.3373H19.9874V19.6572H16.1134L15.4219 18.7948L14.7197 19.6572H8.30535ZM0.784668 9.6597L2.23696 6.48633H4.74854L5.57274 8.26394V6.48633H8.69484L9.18554 7.77109L9.66116 6.48633H23.6763V7.13222C23.6763 7.13222 24.4131 6.48633 25.6239 6.48633L30.1713 6.50123L30.9813 8.25556V6.48633H33.594L34.3131 7.49402V6.48633H36.9499V12.1872H34.3131L33.624 11.1762V12.1872H29.7853L29.3992 11.2885H28.3672L27.9875 12.1872H25.3842C24.3423 12.1872 23.6763 11.5544 23.6763 11.5544V12.1872H19.7512L18.9721 11.2885V12.1872H4.37647L3.9907 11.2885H2.96201L2.57896 12.1872H0.784668V9.6597ZM0.792159 11.4577L2.75098 7.18913H4.23602L6.19297 11.4577H4.88958L4.53003 10.603H2.42888L2.06745 11.4577H0.792159ZM4.11617 9.67625L3.47571 8.18252L2.83338 9.67625H4.11617ZM6.3278 11.457V7.18837L8.14009 7.19474L9.19413 9.9468L10.223 7.18837H12.0208V11.457H10.8822V8.31171L9.67521 11.457H8.6767L7.46641 8.31171V11.457H6.3278ZM12.7998 11.457V7.18837H16.5152V8.1432H13.9504V8.87338H16.4553V9.77199H13.9504V10.5303H16.5152V11.457H12.7998ZM17.1744 11.4577V7.18913H19.7081C20.5476 7.18913 21.2999 7.67569 21.2999 8.57395C21.2999 9.34186 20.6657 9.83645 20.0508 9.88505L21.549 11.4577H20.1576L18.7924 9.94126H18.3129V11.4577H17.1744ZM19.6145 8.14396H18.3129V9.04258H19.6314C19.8595 9.04258 20.1538 8.87684 20.1538 8.59327C20.1538 8.37284 19.9267 8.14396 19.6145 8.14396ZM22.9272 11.457H21.7647V7.18837H22.9272V11.457ZM25.6839 11.457H25.4329C24.2187 11.457 23.4816 10.5605 23.4816 9.34027C23.4816 8.08989 24.2105 7.18837 25.7437 7.18837H27.0022V8.19942H25.6978C25.0753 8.19942 24.6352 8.65468 24.6352 9.35079C24.6352 10.1775 25.1385 10.5247 25.8636 10.5247H26.1632L25.6839 11.457ZM26.2025 11.4577L28.1614 7.18913H29.6464L31.6034 11.4577H30.3L29.9404 10.603H27.8393L27.4778 11.4577H26.2025ZM29.5266 9.67625L28.8861 8.18252L28.2438 9.67625H29.5266ZM31.7364 11.457V7.18837H33.1839L35.0322 9.8703V7.18837H36.1709V11.457H34.7701L32.8749 8.70487V11.457H31.7364ZM9.0844 18.9271V14.6584H12.7998V15.6133H10.2349V16.3434H12.7399V17.2421H10.2349V18.0003H12.7998V18.9271H9.0844ZM27.2899 18.9271V14.6584H31.0052V15.6133H28.4404V16.3434H30.9334V17.2421H28.4404V18.0003H31.0052V18.9271H27.2899ZM12.944 18.9271L14.753 16.8191L12.9009 14.6584H14.3354L15.4384 15.9941L16.5451 14.6584H17.9234L16.0957 16.7928L17.9081 18.9271H16.4738L15.4028 17.6124L14.3578 18.9271H12.944ZM18.0433 18.9278V14.6592H20.5583C21.5902 14.6592 22.1932 15.2826 22.1932 16.0949C22.1932 17.0756 21.4245 17.5798 20.4103 17.5798H19.2118V18.9278H18.0433ZM20.474 15.6245H19.2118V16.6074H20.4703C20.8028 16.6074 21.0358 16.4008 21.0358 16.116C21.0358 15.8127 20.8016 15.6245 20.474 15.6245ZM22.6876 18.9271V14.6584H25.2213C26.0608 14.6584 26.8131 15.145 26.8131 16.0433C26.8131 16.8112 26.1789 17.3058 25.564 17.3544L27.0621 18.9271H25.6707L24.3055 17.4106H23.8261V18.9271H22.6876ZM25.1277 15.6133H23.8261V16.5119H25.1445C25.3727 16.5119 25.667 16.3462 25.667 16.0626C25.667 15.8421 25.4399 15.6133 25.1277 15.6133ZM31.5326 18.9271V18.0003H33.8113C34.1484 18.0003 34.2944 17.8296 34.2944 17.6423C34.2944 17.4628 34.1489 17.2814 33.8113 17.2814H32.7815C31.8865 17.2814 31.388 16.7703 31.388 16.0029C31.388 15.3185 31.8445 14.6584 33.1746 14.6584H35.3918L34.9124 15.6189H32.9948C32.6282 15.6189 32.5153 15.7992 32.5153 15.9713C32.5153 16.1483 32.6548 16.3434 32.9349 16.3434H34.0135C35.0113 16.3434 35.4442 16.8739 35.4442 17.5686C35.4442 18.3153 34.9618 18.9271 33.9592 18.9271H31.5326ZM35.5446 18.9271V18.0003H37.8233C38.1605 18.0003 38.3064 17.8296 38.3064 17.6423C38.3064 17.4628 38.1609 17.2814 37.8233 17.2814H36.7936C35.8985 17.2814 35.4001 16.7703 35.4001 16.0029C35.4001 15.3185 35.8566 14.6584 37.1866 14.6584H39.4039L38.9245 15.6189H37.0068C36.6403 15.6189 36.5274 15.7992 36.5274 15.9713C36.5274 16.1483 36.6668 16.3434 36.9469 16.3434H38.0256C39.0233 16.3434 39.4563 16.8739 39.4563 17.5686C39.4563 18.3153 38.9738 18.9271 37.9712 18.9271H35.5446Z" fill="white"/>
</svg>
