<svg width="16" height="10" viewBox="0 0 16 10" fill="none" xmlns="http://www.w3.org/2000/svg">
<path fill-rule="evenodd" clip-rule="evenodd" d="M5.70679 9.69471C5.51926 9.88218 5.26495 9.9875 4.99979 9.9875C4.73462 9.9875 4.48031 9.88218 4.29279 9.69471L0.292786 5.69471C0.105315 5.50718 0 5.25288 0 4.98771C0 4.72255 0.105315 4.46824 0.292786 4.28071L4.29279 0.280712C4.48139 0.0985542 4.73399 -0.00224062 4.99619 3.78025e-05C5.25838 0.00231622 5.5092 0.107485 5.6946 0.292894C5.88001 0.478302 5.98518 0.729114 5.98746 0.991311C5.98974 1.25351 5.88894 1.50611 5.70679 1.69471L3.41379 3.98771H14.9998C15.265 3.98771 15.5194 4.09307 15.7069 4.28061C15.8944 4.46814 15.9998 4.7225 15.9998 4.98771C15.9998 5.25293 15.8944 5.50728 15.7069 5.69482C15.5194 5.88235 15.265 5.98771 14.9998 5.98771H3.41379L5.70679 8.28071C5.89426 8.46824 5.99957 8.72255 5.99957 8.98771C5.99957 9.25288 5.89426 9.50718 5.70679 9.69471Z" fill="#EEE9F8"/>
</svg>
