<svg width="24" height="16" viewBox="0 0 24 16" fill="none" xmlns="http://www.w3.org/2000/svg">
<path d="M12.9997 8H0.999756V9.99984H12.9997V8Z" fill="#FFCE54"/>
<path d="M11.9999 5.99976H0V7.99998H11.9999V5.99976Z" fill="#A0D468"/>
<path d="M12.9997 4.00049H0.999756V6H12.9997V4.00049Z" fill="#ED5564"/>
<path d="M11.9999 2.00024H0V4.00046H11.9999V2.00024Z" fill="#FFCE54"/>
<path d="M12.9997 0H0.999756V2.00027H12.9997V0Z" fill="#A0D468"/>
<path d="M11.9999 9.99963H0V11.9992H11.9999V9.99963Z" fill="#ED5564"/>
<path d="M12.9997 11.9994H0.999756V14.0004H12.9997V11.9994Z" fill="#FFCE54"/>
<path d="M17.4997 2.50024C13.916 2.50024 11.0002 5.41601 11.0002 8.99943C11.0002 12.5838 13.916 15.5004 17.4997 15.5004C21.0842 15.5004 24 12.5838 24 8.99943C24 5.41601 21.0842 2.50024 17.4997 2.50024Z" fill="#967ADC"/>
<path d="M17.4997 1.49988C13.916 1.49988 11.0002 4.41564 11.0002 8.0001C11.0002 11.5835 13.916 14.5 17.4997 14.5C21.0842 14.5 24 11.5835 24 8.0001C24 4.41564 21.0842 1.49988 17.4997 1.49988Z" fill="#AC92EB"/>
<path d="M23.3621 5.19271C23.217 4.89097 23.0486 4.60165 22.8604 4.3277L18.8657 6.63412L21.1722 2.63949C20.8982 2.45128 20.6089 2.28281 20.3071 2.13777L18 6.1339V1.51891C17.8352 1.50644 17.6682 1.49988 17.4998 1.49988C17.332 1.49988 17.165 1.50649 17.0002 1.51891V6.1339L14.6931 2.13777C14.3906 2.28351 14.1021 2.45128 13.8281 2.63949L16.1345 6.63412L12.1399 4.3277C11.9509 4.60235 11.7832 4.89097 11.6382 5.19271L15.6336 7.49983H11.0193C11.0061 7.66535 11.0002 7.83162 11.0002 8.00005C11.0002 8.16848 11.0061 8.33479 11.0193 8.49994L15.6336 8.49956L11.6382 10.8071C11.7832 11.1088 11.9509 11.3974 12.1399 11.6714L16.1337 9.36561L13.8281 13.3603C14.102 13.5492 14.3906 13.7163 14.6931 13.8613L17.0002 9.86517V14.481C17.165 14.4941 17.332 14.5 17.4997 14.5C17.6682 14.5 17.8352 14.4941 18 14.481V9.86662L20.3071 13.8613C20.6089 13.7163 20.8982 13.5493 21.1721 13.3603L18.8663 9.36561L22.8603 11.6728C23.0485 11.3974 23.217 11.1088 23.362 10.8071L19.3659 8.49956H23.9809C23.9934 8.33475 23.9999 8.16777 23.9999 8.00005C23.9999 7.83158 23.9933 7.6646 23.9809 7.49983H19.3659L23.3621 5.19271ZM18 7.13363V6.76228L18.3223 6.94758L18 7.13363Z" fill="#967ADC"/>
<path d="M22.4999 8.0001C22.4999 10.7617 20.2617 12.9999 17.4997 12.9999C14.7385 12.9999 12.5002 10.7617 12.5002 8.0001C12.5002 5.23888 14.7385 2.99988 17.4997 2.99988C20.2617 2.99988 22.4999 5.23888 22.4999 8.0001Z" fill="#E6E9ED"/>
<path d="M21 7.99997C21 9.93246 19.4333 11.4999 17.4998 11.4999C15.567 11.4999 14.0002 9.93241 14.0002 7.99997C14.0002 6.06712 15.567 4.49976 17.4998 4.49976C19.4333 4.49976 21 6.06712 21 7.99997Z" fill="#AC92EB"/>
<path d="M17.4997 9.26008L16.2568 9.91339L16.4941 8.52918L15.4885 7.5481L16.8786 7.34592L17.4997 6.08691L18.1216 7.34592L19.5117 7.5481L18.5061 8.52918L18.7434 9.91339L17.4997 9.26008Z" fill="#967ADC"/>
</svg>
