<svg width="24" height="24" viewBox="0 0 24 24" fill="none" xmlns="http://www.w3.org/2000/svg">
<g clip-path="url(#clip0_8_70022)">
<path fill-rule="evenodd" clip-rule="evenodd" d="M5.34158 5.35617C5.56037 5.13745 5.85706 5.01459 6.16642 5.01459C6.47578 5.01459 6.77247 5.13745 6.99125 5.35617L11.9998 10.3647L17.0083 5.35617C17.1159 5.24474 17.2446 5.15586 17.3869 5.09472C17.5293 5.03357 17.6824 5.00139 17.8373 5.00004C17.9922 4.9987 18.1458 5.02822 18.2892 5.08688C18.4326 5.14554 18.5628 5.23217 18.6724 5.34171C18.7819 5.45125 18.8685 5.58151 18.9272 5.72489C18.9859 5.86827 19.0154 6.0219 19.014 6.1768C19.0127 6.33171 18.9805 6.4848 18.9194 6.62714C18.8582 6.76948 18.7693 6.89821 18.6579 7.00584L13.6494 12.0143L18.6579 17.0228C18.8704 17.2429 18.988 17.5376 18.9854 17.8435C18.9827 18.1494 18.86 18.442 18.6437 18.6583C18.4274 18.8746 18.1348 18.9973 17.8289 19C17.523 19.0026 17.2283 18.885 17.0083 18.6725L11.9998 13.664L6.99125 18.6725C6.77121 18.885 6.47651 19.0026 6.17062 19C5.86472 18.9973 5.57211 18.8746 5.3558 18.6583C5.13949 18.442 5.01679 18.1494 5.01413 17.8435C5.01147 17.5376 5.12907 17.2429 5.34158 17.0228L10.3501 12.0143L5.34158 7.00584C5.12287 6.78705 5 6.49036 5 6.181C5 5.87164 5.12287 5.57495 5.34158 5.35617Z" fill="white"/>
</g>
<defs>
<clipPath id="clip0_8_70022">
<rect width="24" height="24" fill="white"/>
</clipPath>
</defs>
</svg>
