<svg width="41" height="40" viewBox="0 0 41 40" fill="none" xmlns="http://www.w3.org/2000/svg">
<path d="M20.5 0L18.8673 20L20.5 40C31.5457 40 40.5 31.0457 40.5 20C40.5 8.9543 31.5457 0 20.5 0Z" fill="#FECA39"/>
<path d="M0.5 20C0.5 31.0457 9.4543 40 20.5 40V0C9.4543 0 0.5 8.9543 0.5 20Z" fill="#FFE7A4"/>
<path d="M20.5 4.21069L18.8673 20L20.5 35.7893C29.2063 35.7893 36.2893 28.7062 36.2893 20C36.2893 11.2937 29.2063 4.21069 20.5 4.21069Z" fill="#E7B834"/>
<path d="M4.7107 20C4.7107 28.7062 11.7937 35.7893 20.5 35.7893V4.21069C11.7937 4.21069 4.7107 11.2937 4.7107 20Z" fill="#FECA39"/>
<path d="M30.3531 18.0275C30.3531 16.4584 29.081 15.1863 27.5119 15.1863C26.5093 15.1863 25.553 15.438 24.6741 15.8259L18.8673 20L24.6741 24.174C25.553 24.5618 26.5092 24.8136 27.5119 24.8136C29.081 24.8136 30.3531 23.5415 30.3531 21.9725C30.3531 21.206 30.0491 20.511 29.5558 20C30.0491 19.4889 30.3531 18.7939 30.3531 18.0275Z" fill="#05B15A"/>
<path d="M16.3259 15.8259C15.447 15.4382 14.4908 15.1863 13.4881 15.1863C11.919 15.1863 10.6469 16.4584 10.6469 18.0275C10.6469 18.7939 10.9509 19.4889 11.4442 20C10.9509 20.511 10.6469 21.206 10.6469 21.9724C10.6469 23.5415 11.919 24.8136 13.4881 24.8136C14.4907 24.8136 15.447 24.5618 16.3259 24.174L19.2347 22.9388L20.5 20L18.8673 16.6122L16.3259 15.8259Z" fill="#05B15A"/>
<path d="M24.6741 15.8259C25.0618 14.9469 25.3137 13.9908 25.3137 12.9881C25.3137 11.419 24.0416 10.1469 22.4724 10.1469C21.706 10.1469 21.011 10.4508 20.5 10.9442L18.8673 15.0735L20.5 20L24.6741 15.8259Z" fill="#37CF82"/>
<path d="M20.5 20L18.8673 24.9266L20.5 29.0559C21.011 29.5491 21.706 29.8532 22.4724 29.8532C24.0416 29.8532 25.3137 28.5811 25.3137 27.012C25.3137 26.0094 25.0619 25.0531 24.6741 24.1741L20.5 20Z" fill="#37CF82"/>
<path d="M20.5 10.9442C19.989 10.4509 19.294 10.1469 18.5276 10.1469C16.9584 10.1469 15.6863 11.419 15.6863 12.9881C15.6863 13.9907 15.938 14.9469 16.3259 15.8259L20.5 20.0001V10.9442Z" fill="#05C363"/>
<path d="M20.5 20L16.3259 24.1741C15.9382 25.053 15.6863 26.0092 15.6863 27.0119C15.6863 28.581 16.9584 29.8531 18.5276 29.8531C19.294 29.8531 19.989 29.5491 20.5 29.0558V20Z" fill="#05C363"/>
</svg>
