<svg width="24" height="24" viewBox="0 0 24 24" fill="none" xmlns="http://www.w3.org/2000/svg">
<path d="M23.074 7.91187H13.5792C13.3342 7.91187 13.0991 8.00922 12.9258 8.18253C12.7525 8.35579 12.6552 8.59083 12.6552 8.83593V23.0758C12.6559 23.3207 12.7535 23.5553 12.9266 23.7284C13.0998 23.9016 13.3344 23.9992 13.5792 23.9999H23.074C23.3189 23.9992 23.5535 23.9016 23.7267 23.7284C23.8998 23.5553 23.9974 23.3207 23.9981 23.0758V8.83593C23.9981 8.59083 23.9008 8.35579 23.7274 8.18253C23.5541 8.00922 23.3191 7.91187 23.074 7.91187Z" fill="#48CFAD"/>
<path d="M23.074 0H13.5792C13.3342 0 13.0991 0.09736 12.9258 0.270655C12.7525 0.443951 12.6552 0.678992 12.6552 0.924069V5.66914C12.6559 5.91402 12.7535 6.14864 12.9266 6.32177C13.0998 6.49489 13.3344 6.59252 13.5792 6.59321H23.074C23.3189 6.59252 23.5535 6.49489 23.7267 6.32177C23.8998 6.14864 23.9974 5.91402 23.9981 5.66914V0.924069C23.9981 0.678992 23.9008 0.443951 23.7274 0.270655C23.5541 0.09736 23.3191 0 23.074 0Z" fill="#5D9CEC"/>
<path d="M10.4143 14.2418H0.924069C0.41372 14.2418 0 14.6556 0 15.1659V23.076C0 23.5863 0.41372 24 0.924069 24H10.4143C10.9246 24 11.3383 23.5863 11.3383 23.076V15.1659C11.3383 14.6556 10.9246 14.2418 10.4143 14.2418Z" fill="#5D9CEC"/>
<path d="M10.4143 5.7613e-06H0.924075C0.802606 -0.000423931 0.682241 0.0231861 0.569939 0.0694773C0.457633 0.115764 0.355597 0.183803 0.2697 0.2697C0.183808 0.355592 0.115755 0.457628 0.0694633 0.569935C0.0231767 0.682237 -0.00041943 0.802602 5.64238e-06 0.924075V11.9806C5.64238e-06 12.2256 0.0973657 12.4607 0.270661 12.634C0.443956 12.8073 0.678998 12.9046 0.924075 12.9046H10.4143C10.6593 12.9046 10.8944 12.8073 11.0677 12.634C11.241 12.4607 11.3383 12.2256 11.3383 11.9806V0.924075C11.3387 0.802602 11.3151 0.682237 11.2688 0.569935C11.2226 0.457628 11.1545 0.355592 11.0686 0.2697C10.9827 0.183803 10.8807 0.115764 10.7684 0.0694773C10.6561 0.0231861 10.5357 -0.000423931 10.4143 5.7613e-06Z" fill="#48CFAD"/>
</svg>
