<svg width="24" height="24" viewBox="0 0 24 24" fill="none" xmlns="http://www.w3.org/2000/svg">
<g id="icon" clip-path="url(#clip0_195_111)">
<path id="primary" d="M13.4 7.2H15.8C16.0122 7.2 16.2157 7.11571 16.3657 6.96569C16.5157 6.81566 16.6 6.61217 16.6 6.4V4.8C16.6 4.58783 16.5157 4.38434 16.3657 4.23431C16.2157 4.08429 16.0122 4 15.8 4H13.4C12.3391 4 11.3217 4.42143 10.5716 5.17157C9.82143 5.92172 9.4 6.93913 9.4 8V10.4H7.8C7.58783 10.4 7.38434 10.4843 7.23431 10.6343C7.08429 10.7843 7 10.9878 7 11.2V12.8C7 13.0122 7.08429 13.2157 7.23431 13.3657C7.38434 13.5157 7.58783 13.6 7.8 13.6H9.4V19.2C9.4 19.4122 9.48429 19.6157 9.63431 19.7657C9.78434 19.9157 9.98783 20 10.2 20H11.8C12.0122 20 12.2157 19.9157 12.3657 19.7657C12.5157 19.6157 12.6 19.4122 12.6 19.2V13.6H14.376C14.5587 13.6053 14.7378 13.5479 14.8834 13.4373C15.0289 13.3266 15.1322 13.1695 15.176 12.992L15.576 11.392C15.6057 11.2722 15.6072 11.1472 15.5805 11.0267C15.5539 10.9062 15.4997 10.7935 15.4222 10.6975C15.3447 10.6014 15.2461 10.5246 15.134 10.4729C15.0219 10.4213 14.8994 10.3964 14.776 10.4H12.6V8C12.6 7.78783 12.6843 7.58434 12.8343 7.43431C12.9843 7.28429 13.1878 7.2 13.4 7.2Z" fill="#EEE9F8"/>
</g>
<defs>
<clipPath id="clip0_195_111">
<rect width="24" height="24" fill="white"/>
</clipPath>
</defs>
</svg>
