<svg width="102" height="24" viewBox="0 0 102 24" fill="none" xmlns="http://www.w3.org/2000/svg">
<g clip-path="url(#clip0_132_1767)">
<path d="M8.90095 0.821674C10.3151 0.359667 11.8195 0.168103 13.3069 0.263885C15.4874 0.382204 17.6171 1.15409 19.3919 2.4218C19.5835 2.56265 19.7919 2.69224 19.9553 2.87254C20.237 3.19369 20.3497 3.65006 20.2483 4.06699C20.1469 4.51773 19.7919 4.90086 19.3525 5.03608C18.9243 5.17131 18.4341 5.08116 18.0904 4.79381C16.7663 3.77401 15.155 3.13171 13.4929 2.97395C12.8844 2.90634 12.2646 2.90634 11.6561 2.97395C9.90385 3.14861 8.20794 3.85289 6.84446 4.97411C5.30631 6.23054 4.1851 7.99969 3.74563 9.93787C3.33996 11.6958 3.46391 13.5776 4.11749 15.2622C4.80486 17.0539 6.08383 18.6033 7.69523 19.64C8.90095 20.4119 10.2926 20.8908 11.7124 21.026C12.2646 21.0937 12.828 21.0937 13.3745 21.0317C15.093 20.8852 16.7551 20.226 18.1186 19.1724C18.4623 18.9019 18.9524 18.8231 19.3694 18.9639C19.9441 19.1611 20.3554 19.7752 20.2821 20.3837C20.2483 20.7387 20.0624 21.0768 19.7807 21.2909C18.6989 22.136 17.4706 22.7839 16.1635 23.2009C14.4788 23.7417 12.6646 23.8826 10.9124 23.6403C8.96856 23.3699 7.098 22.5924 5.53168 21.4092C4.01044 20.2711 2.7709 18.7554 1.95394 17.037C1.15388 15.3524 0.765115 13.4705 0.832726 11.6056C0.894703 9.31247 1.65532 7.04751 2.99627 5.18257C4.43864 3.15425 6.52894 1.59356 8.90095 0.821674Z" fill="#007CFF" stroke="#007CFF" stroke-width="0.0340402"/>
<path opacity="0.4" d="M11.6558 2.97395C12.2643 2.90634 12.884 2.90634 13.4925 2.97395C12.8784 2.95705 12.2699 2.95705 11.6558 2.97395Z" fill="#001934" stroke="#001934" stroke-width="0.0340402"/>
<path d="M25.3864 4.02192C25.9724 3.84726 26.6598 4.12334 26.9415 4.67549C28.2937 7.31795 28.8853 10.3379 28.643 13.2959C28.474 15.4031 27.8937 17.4821 26.919 19.3583C26.564 20.0288 25.6118 20.2429 24.9977 19.8034C24.4286 19.4372 24.2427 18.6202 24.5807 18.0286C26.4626 14.3326 26.4795 9.75194 24.6202 6.04461C24.4512 5.74037 24.361 5.37977 24.4455 5.03609C24.5413 4.55718 24.9188 4.15151 25.3864 4.02192Z" fill="#6FBAF7" stroke="#6FBAF7" stroke-width="0.0340402"/>
<path d="M90.7661 4.38251C90.8281 4.1346 91.076 3.94868 91.3408 3.95994C91.8479 3.95994 92.355 3.95431 92.862 3.95994C93.155 3.94868 93.4255 4.20785 93.4255 4.50083C93.4367 5.98827 93.4198 7.47571 93.4311 8.95751C94.1692 8.29267 95.127 7.90954 96.1074 7.81376C97.2173 7.70108 98.3892 7.89264 99.3302 8.51804C100.508 9.2843 101.156 10.676 101.263 12.0451C101.296 13.3635 101.274 14.6819 101.28 16.0003C101.274 16.9581 101.291 17.9216 101.268 18.8794C101.195 19.1217 100.947 19.2794 100.699 19.2682C100.209 19.2682 99.7133 19.2738 99.2231 19.2682C98.9583 19.2794 98.7104 19.0822 98.654 18.8287C98.6597 17.1159 98.654 15.4031 98.654 13.6903C98.654 13.3466 98.6653 13.0029 98.6315 12.6592C98.5639 11.8197 98.2484 10.9295 97.5385 10.4168C96.9638 9.98858 96.1975 9.89279 95.5045 10.0111C94.9636 10.1069 94.4565 10.3942 94.1072 10.8224C93.6227 11.4197 93.4367 12.2028 93.4311 12.9578C93.4255 14.8735 93.4311 16.7947 93.4255 18.7104C93.4311 18.9921 93.1945 19.2456 92.9128 19.2625C92.5184 19.2794 92.1296 19.2625 91.7352 19.2682C91.5493 19.2682 91.369 19.2794 91.1887 19.2513C90.9802 19.2062 90.8112 19.0315 90.7661 18.8287C90.7661 14.0114 90.7661 9.19978 90.7661 4.38251Z" fill="#002CB8" stroke="#002CB8" stroke-width="0.0340402"/>
<path opacity="0.52" d="M90.7324 4.61352C90.7381 4.54027 90.7493 4.46139 90.7662 4.38251C90.7662 9.19979 90.7662 14.0114 90.7662 18.8287C90.7155 18.5808 90.7381 18.3329 90.7381 18.085C90.7324 13.5945 90.7437 9.104 90.7324 4.61352Z" fill="#000B31" stroke="#000B31" stroke-width="0.0340402"/>
<path d="M8.72046 5.60514C11.1094 4.16278 14.3378 4.20222 16.6591 5.77417C17.2338 6.19674 17.3521 7.09821 16.907 7.656C16.507 8.20252 15.6787 8.36592 15.1097 7.99969C14.2082 7.425 13.1152 7.17709 12.0559 7.30105C10.9967 7.41373 9.98253 7.90391 9.23881 8.66453C8.49509 9.40262 8.01055 10.3942 7.89223 11.4366C7.78518 12.2817 7.92603 13.155 8.27536 13.9325C8.73736 14.958 9.57686 15.8087 10.6023 16.282C11.6503 16.7778 12.8785 16.8567 13.9828 16.513C15.459 16.0623 16.6816 14.8397 17.1042 13.3578C16.045 13.3635 14.9857 13.3578 13.9265 13.3578C13.4194 13.3578 12.9292 13.0423 12.7208 12.586C12.4616 12.062 12.5968 11.3802 13.0363 10.9971C13.2617 10.7943 13.5603 10.659 13.8645 10.6478C15.4646 10.6365 17.0591 10.6421 18.6593 10.6421C19.1832 10.6252 19.6903 10.952 19.8988 11.4309C20.0791 11.8028 20.0227 12.2254 20.0002 12.6254C19.8593 14.3607 19.0762 16.0341 17.8367 17.2624C16.6478 18.4568 15.0421 19.2287 13.3631 19.3977C11.7122 19.578 10.0051 19.178 8.60214 18.2822C7.18795 17.3863 6.08364 15.9947 5.54275 14.4058C4.9906 12.8001 5.01877 11.0027 5.59346 9.40825C6.15688 7.83066 7.28373 6.46718 8.72046 5.60514Z" fill="#002CB8" stroke="#002CB8" stroke-width="0.0340402"/>
<path d="M41.2416 4.64732C42.4022 4.51774 43.5967 4.61352 44.701 4.99665C46.0194 5.45302 47.2138 6.28125 48.0477 7.40246C48.228 7.61093 48.3125 7.92081 48.1886 8.17999C48.0421 8.51804 47.6533 8.62509 47.366 8.81666C47.0392 8.98005 46.7237 9.29557 46.3236 9.19979C46.0138 9.16035 45.8616 8.86173 45.6701 8.64763C44.932 7.83067 43.8727 7.33485 42.7797 7.22217C41.912 7.13766 41.0162 7.23344 40.2049 7.57149C39.2527 7.97152 38.4582 8.70961 37.9624 9.61109C37.4722 10.5069 37.3145 11.5549 37.4103 12.5634C37.4779 13.3635 37.7483 14.1523 38.216 14.8115C38.8583 15.7186 39.8161 16.4003 40.8979 16.6877C41.6641 16.8793 42.4811 16.9469 43.2586 16.7497C44.2446 16.513 45.1855 16.0228 45.8842 15.2735C46.38 14.7439 46.718 14.0678 46.8589 13.3579C46.8645 13.3297 46.8758 13.2677 46.8814 13.2395C45.5067 13.2452 44.1319 13.2395 42.7628 13.2452C42.4642 13.1888 42.205 12.9297 42.1881 12.6198C42.1712 12.3381 42.1881 12.0563 42.1825 11.7746C42.1825 11.5718 42.1599 11.3464 42.2783 11.1661C42.4135 10.9351 42.6783 10.8112 42.9375 10.8281C44.8193 10.8281 46.7011 10.8281 48.583 10.8281C49.0844 10.8112 49.5295 11.2732 49.4901 11.7746C49.4675 12.4845 49.4844 13.2114 49.3098 13.9044C49.1013 14.7889 48.7464 15.6397 48.2393 16.3947C47.8167 17.0314 47.2476 17.5554 46.6222 17.9892C45.8053 18.547 44.8925 18.9583 43.9347 19.1949C42.6501 19.5217 41.2866 19.4428 40.0133 19.0991C38.261 18.6202 36.7342 17.4314 35.782 15.8933C34.7565 14.2481 34.503 12.1972 34.8974 10.321C35.2805 8.47297 36.4694 6.83904 38.03 5.79107C38.9822 5.1544 40.0978 4.77128 41.2416 4.64732Z" fill="#002CB8" stroke="#002CB8" stroke-width="0.0340402"/>
<path d="M57.665 4.63042C58.6904 4.53464 59.744 4.60788 60.73 4.91777C62.2287 5.37977 63.5978 6.34323 64.4655 7.66164C64.6345 7.90955 64.5556 8.29267 64.2908 8.4448C63.919 8.67017 63.5302 8.88427 63.1527 9.10964C62.9837 9.20542 62.809 9.32937 62.6062 9.3012C62.4146 9.29557 62.2625 9.16035 62.1611 9.00822C61.5639 8.11801 60.5891 7.51515 59.5524 7.29541C58.7073 7.12639 57.8171 7.16583 56.9889 7.39683C56.0705 7.65601 55.2535 8.22506 54.6845 8.98005C54.1379 9.68433 53.828 10.552 53.7548 11.4366C53.659 12.4451 53.8055 13.4987 54.2901 14.4002C54.7577 15.2735 55.507 15.9947 56.4142 16.3891C57.2593 16.7609 58.2058 16.8567 59.113 16.7666C60.2116 16.6482 61.2765 16.1186 61.9752 15.2566C62.1104 15.0932 62.2005 14.8847 62.3808 14.7664C62.5611 14.6537 62.8034 14.6706 62.9837 14.7833C63.4119 15.0312 63.8457 15.2735 64.2739 15.5214C64.4937 15.6397 64.6063 15.9214 64.5387 16.1637C64.4711 16.3496 64.3359 16.5018 64.2232 16.6595C62.9104 18.4061 60.7244 19.4259 58.5495 19.3978C56.8536 19.4259 55.1239 18.9019 53.7999 17.8202C53.028 17.1948 52.3744 16.4229 51.9068 15.5439C51.4166 14.6256 51.1518 13.6001 51.0898 12.5578C51.0166 11.4366 51.1518 10.2872 51.5518 9.22796C52.1378 7.69544 53.2815 6.38267 54.7014 5.56007C55.6028 5.03609 56.6283 4.73184 57.665 4.63042Z" fill="#002CB8" stroke="#002CB8" stroke-width="0.0340402"/>
<path d="M21.7246 6.34323C22.3049 6.19111 22.9641 6.48972 23.2345 7.02497C24.6994 10.1238 24.6994 13.8762 23.2345 16.975C23.0486 17.3413 22.6767 17.6117 22.2654 17.6793C21.7865 17.7638 21.2738 17.561 20.9752 17.1779C20.6653 16.7778 20.609 16.2031 20.8343 15.7524C21.9274 13.3804 21.9105 10.5351 20.8062 8.16872C20.4738 7.44191 20.947 6.51226 21.7246 6.34323Z" fill="#6FBAF7" stroke="#6FBAF7" stroke-width="0.0340402"/>
<path d="M70.1337 7.70671C71.1986 7.49261 72.348 7.55459 73.3283 8.04476C74.0608 8.40536 74.6806 9.03076 74.9454 9.81391C74.9792 9.30683 74.9397 8.79412 74.9623 8.2814C74.9679 8.00532 75.2327 7.77432 75.5088 7.77432C76.0384 7.76869 76.5624 7.76869 77.092 7.77432C77.3906 7.76869 77.6554 8.0335 77.6442 8.33774C77.6442 11.6788 77.6442 15.0199 77.6442 18.3667C77.6442 18.5132 77.6498 18.6653 77.6329 18.8174C77.5935 19.0766 77.3456 19.2682 77.0864 19.2682C76.6525 19.2738 76.2243 19.2625 75.7905 19.2682C75.644 19.2682 75.4975 19.2794 75.3623 19.2456C75.1426 19.1836 74.9735 18.9865 74.9623 18.7611C74.9454 18.4174 74.9679 18.0737 74.951 17.7356C74.658 17.9948 74.3876 18.2765 74.0664 18.5019C73.2664 19.0991 72.2804 19.4485 71.2831 19.4485C70.1844 19.4597 69.0858 19.116 68.2012 18.4625C67.3392 17.8371 66.6912 16.9412 66.3081 15.9552C65.8461 14.7777 65.7503 13.4762 65.9588 12.2366C66.156 11.0816 66.6799 9.96604 67.5082 9.12654C68.2181 8.40536 69.1477 7.90954 70.1337 7.70671ZM71.2493 9.99984C70.4436 10.1182 69.7055 10.5858 69.2492 11.2619C68.4153 12.4733 68.3815 14.1579 69.0858 15.4369C69.4689 16.1581 70.1337 16.7497 70.9338 16.9638C71.9536 17.2567 73.1199 16.975 73.8861 16.2369C74.5566 15.6172 74.9003 14.7044 74.9454 13.803C75.013 12.7606 74.7313 11.6394 73.9763 10.8844C73.2833 10.1632 72.2297 9.84209 71.2493 9.99984Z" fill="#002CB8" stroke="#002CB8" stroke-width="0.0340402"/>
<path d="M83.4701 7.6222C84.6533 7.51515 85.9041 7.66728 86.9239 8.30958C87.8366 8.873 88.4395 9.87026 88.5691 10.9295C88.6029 11.2394 88.3324 11.5436 88.0226 11.5324C87.5324 11.538 87.0366 11.5324 86.552 11.538C86.383 11.5436 86.2027 11.5211 86.0787 11.4028C85.9041 11.2619 85.8928 11.0253 85.8027 10.8337C85.6336 10.4393 85.273 10.152 84.8674 10.0224C84.4392 9.88716 83.9828 9.88153 83.5433 9.93787C83.1827 9.98858 82.8109 10.1013 82.563 10.383C82.2925 10.6816 82.2813 11.1887 82.5461 11.4929C82.8222 11.8141 83.2335 11.9718 83.6222 12.1127C84.7322 12.4845 85.9041 12.6817 86.952 13.2283C87.5605 13.5438 88.124 14.0058 88.4339 14.6256C88.924 15.6003 88.8395 16.8285 88.2198 17.7244C87.6958 18.5019 86.845 18.9921 85.9548 19.2344C84.8674 19.5273 83.6955 19.5217 82.6137 19.2175C81.7855 18.9808 81.0023 18.5414 80.422 17.9047C79.9656 17.4089 79.6388 16.7835 79.5318 16.113C79.4754 15.7975 79.7515 15.482 80.0726 15.482C80.6192 15.4763 81.1657 15.482 81.7066 15.482C81.9658 15.4707 82.208 15.6454 82.2756 15.8933C82.3601 16.1806 82.5292 16.4454 82.7602 16.637C83.2278 17.0314 83.8645 17.1722 84.4674 17.1328C84.935 17.1103 85.4252 17.0145 85.7914 16.7046C86.1069 16.4398 86.2252 15.944 85.9999 15.589C85.8027 15.2904 85.4533 15.1326 85.1266 14.9974C84.18 14.6425 83.1771 14.4791 82.2306 14.1241C81.5376 13.8706 80.8502 13.5212 80.3544 12.9578C79.6332 12.1465 79.481 10.9239 79.8585 9.9266C80.1741 9.10401 80.8671 8.47861 81.6502 8.11238C82.2193 7.8363 82.8447 7.68418 83.4701 7.6222Z" fill="#002CB8" stroke="#002CB8" stroke-width="0.0340402"/>
<path opacity="0.75" d="M101.263 12.0451C101.342 12.5522 101.285 13.0649 101.302 13.5776C101.302 15.1383 101.302 16.6933 101.302 18.254C101.302 18.4625 101.325 18.6766 101.268 18.8794C101.291 17.9216 101.274 16.9581 101.28 16.0003C101.274 14.6819 101.297 13.3635 101.263 12.0451Z" fill="#001966" stroke="#001966" stroke-width="0.0340402"/>
<path opacity="0.48" d="M98.6317 12.6592C98.6655 13.0029 98.6543 13.3466 98.6543 13.6903C98.6543 15.4031 98.6599 17.1159 98.6543 18.8287C98.5979 18.547 98.6317 18.2596 98.6261 17.9723C98.6261 16.2031 98.6204 14.434 98.6317 12.6592Z" fill="#000A2B" stroke="#000A2B" stroke-width="0.0340402"/>
<path opacity="0.27" d="M42.7627 13.2452C44.1318 13.2395 45.5066 13.2452 46.8813 13.2395C46.8757 13.2677 46.8644 13.3297 46.8588 13.3579C46.7461 13.2959 46.6165 13.2733 46.4926 13.2733C45.3488 13.2846 44.1994 13.2677 43.0557 13.2846C42.9543 13.2846 42.8585 13.2621 42.7627 13.2452Z" fill="#00030E" stroke="#00030E" stroke-width="0.0340402"/>
<path opacity="0.46" d="M11.7124 21.026C12.2702 21.0373 12.8223 21.0373 13.3745 21.0317C12.828 21.0937 12.2646 21.0937 11.7124 21.026Z" fill="#001E3E" stroke="#001E3E" stroke-width="0.0340402"/>
</g>
<defs>
<clipPath id="clip0_132_1767">
<rect width="100.966" height="24" fill="white" transform="translate(0.51709)"/>
</clipPath>
</defs>
</svg>
