<svg width="24" height="24" viewBox="0 0 24 24" fill="none" xmlns="http://www.w3.org/2000/svg">
<g clip-path="url(#clip0_8_70031)">
<path fill-rule="evenodd" clip-rule="evenodd" d="M3 5.33333C3 4.97971 3.14048 4.64057 3.39052 4.39052C3.64057 4.14048 3.97971 4 4.33333 4H20.3333C20.687 4 21.0261 4.14048 21.2761 4.39052C21.5262 4.64057 21.6667 4.97971 21.6667 5.33333C21.6667 5.68696 21.5262 6.02609 21.2761 6.27614C21.0261 6.52619 20.687 6.66667 20.3333 6.66667H4.33333C3.97971 6.66667 3.64057 6.52619 3.39052 6.27614C3.14048 6.02609 3 5.68696 3 5.33333ZM3 12C3 11.6464 3.14048 11.3072 3.39052 11.0572C3.64057 10.8071 3.97971 10.6667 4.33333 10.6667H20.3333C20.687 10.6667 21.0261 10.8071 21.2761 11.0572C21.5262 11.3072 21.6667 11.6464 21.6667 12C21.6667 12.3536 21.5262 12.6928 21.2761 12.9428C21.0261 13.1929 20.687 13.3333 20.3333 13.3333H4.33333C3.97971 13.3333 3.64057 13.1929 3.39052 12.9428C3.14048 12.6928 3 12.3536 3 12ZM3 18.6667C3 18.313 3.14048 17.9739 3.39052 17.7239C3.64057 17.4738 3.97971 17.3333 4.33333 17.3333H20.3333C20.687 17.3333 21.0261 17.4738 21.2761 17.7239C21.5262 17.9739 21.6667 18.313 21.6667 18.6667C21.6667 19.0203 21.5262 19.3594 21.2761 19.6095C21.0261 19.8595 20.687 20 20.3333 20H4.33333C3.97971 20 3.64057 19.8595 3.39052 19.6095C3.14048 19.3594 3 19.0203 3 18.6667Z" fill="white"/>
</g>
<defs>
<clipPath id="clip0_8_70031">
<rect width="24" height="24" fill="white"/>
</clipPath>
</defs>
</svg>
