<svg width="15" height="24" viewBox="0 0 15 24" fill="none" xmlns="http://www.w3.org/2000/svg">
<path d="M7.32204 18.3051C7.77682 18.3051 8.19256 18.4597 8.53142 18.7118H10.9831L9.61507 17.7506C9.18875 17.3243 8.94917 16.7463 8.94917 16.1434V9.82861C8.45046 10.0466 7.9009 10.1695 7.32204 10.1695C6.74318 10.1695 6.19362 10.0466 5.69492 9.82861V16.1435C5.69492 16.7463 5.45534 17.3243 5.02901 17.7507L3.66101 18.7119H6.11267C6.45153 18.4597 6.86726 18.3051 7.32204 18.3051Z" fill="#E4AF18"/>
<path d="M3.25427 0.406738V6.10168C3.25427 8.3483 5.07541 10.1695 7.32208 10.1695C9.56876 10.1695 11.3899 8.34835 11.3899 6.10168V0.406738H3.25427Z" fill="#FFCE54"/>
<path d="M9.76276 16.2712H4.88139C4.65644 16.2712 4.47461 16.089 4.47461 15.8644C4.47461 15.6399 4.65644 15.4576 4.88139 15.4576H9.76276C9.98772 15.4576 10.1695 15.6399 10.1695 15.8644C10.1695 16.089 9.98772 16.2712 9.76276 16.2712Z" fill="#FFCE54"/>
<path d="M9.76276 14.2373H4.88139C4.65644 14.2373 4.47461 14.055 4.47461 13.8305C4.47461 13.606 4.65644 13.4237 4.88139 13.4237H9.76276C9.98772 13.4237 10.1695 13.606 10.1695 13.8305C10.1695 14.055 9.98772 14.2373 9.76276 14.2373Z" fill="#FFCE54"/>
<path d="M9.76276 12.2035H4.88139C4.65644 12.2035 4.47461 12.0212 4.47461 11.7967C4.47461 11.5721 4.65644 11.3899 4.88139 11.3899H9.76276C9.98772 11.3899 10.1695 11.5721 10.1695 11.7967C10.1695 12.0212 9.98772 12.2035 9.76276 12.2035Z" fill="#FFCE54"/>
<path d="M7.32203 2.44067L8.12379 4.0678H9.76272L8.54238 5.70955L8.92596 7.322L7.32203 6.50844L5.71811 7.322L6.10169 5.70955L4.88135 4.0678H6.52028L7.32203 2.44067Z" fill="#E4AF18"/>
<path d="M0.40686 24.0001H14.2374V22.3729H0.40686V24.0001Z" fill="#E4AF18"/>
<path d="M11.3899 6.1017V2.03394H14.6441V2.8475C14.6441 4.64464 13.187 6.1017 11.3899 6.1017Z" fill="#E4AF18"/>
<path d="M3.25425 6.1017C1.45711 6.1017 0 4.64464 0 2.84745V2.03394H3.25425V6.1017Z" fill="#E4AF18"/>
<path d="M9.35602 20.339C9.35602 21.4621 8.44524 22.3729 7.32211 22.3729C6.19899 22.3729 5.28821 21.4621 5.28821 20.339C5.28821 19.2158 6.19899 18.3051 7.32211 18.3051C8.44524 18.3051 9.35602 19.2158 9.35602 20.339Z" fill="#E4AF18"/>
<path d="M5.28819 20.3389C5.28819 19.6706 5.61523 19.0824 6.11272 18.7118H3.25794C2.58186 18.7118 2.03394 19.2597 2.03394 19.9358V22.3728H7.32209C6.19897 22.3728 5.28819 21.462 5.28819 20.3389Z" fill="#FFCE54"/>
<path d="M11.3863 18.7118H8.5311C9.029 19.0824 9.35605 19.6706 9.35605 20.3389C9.35605 21.462 8.44527 22.3728 7.32214 22.3728H12.6103V19.9358C12.6103 19.2598 12.0624 18.7118 11.3863 18.7118Z" fill="#FFCE54"/>
<path d="M12.6102 0.813563H2.03386C1.8089 0.813563 1.62708 0.631312 1.62708 0.406781C1.62708 0.18225 1.80895 0 2.03386 0H12.6101C12.8351 0 13.0169 0.18225 13.0169 0.406781C13.0169 0.631312 12.8351 0.813563 12.6102 0.813563Z" fill="#E4AF18"/>
</svg>
