<svg width="40" height="27" viewBox="0 0 40 27" fill="none" xmlns="http://www.w3.org/2000/svg">
<path d="M36.84 0H3.5209C1.77592 0 0.361328 1.41459 0.361328 3.15957V23.8404C0.361328 25.5854 1.77592 27 3.5209 27H36.84C38.585 27 39.9996 25.5854 39.9996 23.8404V3.15957C39.9996 1.41459 38.585 0 36.84 0Z" fill="white"/>
<path fill-rule="evenodd" clip-rule="evenodd" d="M20.407 19.6824C19.038 20.8638 17.2621 21.577 15.3216 21.577C10.9916 21.577 7.48145 18.0261 7.48145 13.6459C7.48145 9.26566 10.9916 5.71481 15.3216 5.71481C17.2621 5.71481 19.038 6.42802 20.407 7.60947C21.776 6.42802 23.5519 5.71481 25.4925 5.71481C29.8224 5.71481 33.3325 9.26566 33.3325 13.6459C33.3325 18.0261 29.8224 21.577 25.4925 21.577C23.5519 21.577 21.776 20.8638 20.407 19.6824Z" fill="#ED0006"/>
<path fill-rule="evenodd" clip-rule="evenodd" d="M20.4072 19.6824C22.0929 18.2276 23.1619 16.0631 23.1619 13.6459C23.1619 11.2287 22.0929 9.06413 20.4072 7.60947C21.7763 6.42802 23.5522 5.71481 25.4927 5.71481C29.8226 5.71481 33.3328 9.26566 33.3328 13.6459C33.3328 18.0261 29.8226 21.577 25.4927 21.577C23.5522 21.577 21.7763 20.8638 20.4072 19.6824Z" fill="#F9A000"/>
<path fill-rule="evenodd" clip-rule="evenodd" d="M20.4069 7.60947C22.0926 9.06419 23.1616 11.2287 23.1616 13.6459C23.1616 16.0631 22.0926 18.2276 20.4069 19.6823C18.7213 18.2276 17.6523 16.0631 17.6523 13.6459C17.6523 11.2287 18.7213 9.06419 20.4069 7.60947Z" fill="#FF5E00"/>
</svg>
