<svg width="90" height="25" viewBox="0 0 90 25" fill="none" xmlns="http://www.w3.org/2000/svg">
<path d="M20.7531 2.78768e-07C18.7481 -0.000539789 16.8225 0.783659 15.3882 2.18482L16.1657 3.6621L15.847 3.91868C15.1732 2.75145 14.2077 1.77941 13.0449 1.09787C11.8822 0.416333 10.5624 0.0487172 9.21473 0.031096C4.98504 0.031096 1.56397 3.73209 1.56397 8.07061V17.4009C1.56068 17.4804 1.57391 17.5597 1.60284 17.6338C1.63176 17.7079 1.67575 17.7752 1.73201 17.8315C1.78827 17.8878 1.85558 17.9317 1.92971 17.9607C2.00384 17.9896 2.08317 18.0028 2.16267 17.9995H5.22609C5.30092 18.0006 5.37519 17.9866 5.44453 17.9585C5.51387 17.9303 5.57684 17.8885 5.62976 17.8356C5.68266 17.7827 5.72444 17.7197 5.75259 17.6504C5.78074 17.581 5.79471 17.5067 5.79367 17.4319V7.96953C5.79367 5.81584 7.09987 4.08197 9.32358 4.08197C11.3995 4.08197 12.8846 5.637 12.8846 7.9307V15.7058C12.8793 15.7829 12.8899 15.8603 12.9155 15.9332C12.9411 16.0061 12.9814 16.073 13.0338 16.1298C13.0862 16.1865 13.1497 16.232 13.2203 16.2634C13.2909 16.2948 13.3671 16.3114 13.4445 16.3123H16.3446C16.4218 16.3114 16.4981 16.2948 16.5687 16.2634C16.6393 16.232 16.7028 16.1865 16.7552 16.1298C16.8076 16.073 16.8479 16.0061 16.8736 15.9332C16.8992 15.8603 16.9097 15.7829 16.9044 15.7058V7.9307C16.8699 7.43415 16.9388 6.93581 17.1067 6.4673C17.2746 5.99873 17.5378 5.57005 17.8798 5.20838C18.2218 4.8467 18.635 4.55987 19.0934 4.36599C19.5518 4.17211 20.0455 4.0754 20.5432 4.08197C22.7591 4.08197 23.9953 5.8469 23.9953 7.96953V17.4164C24.0014 17.5703 24.0674 17.7159 24.1792 17.8219C24.2911 17.9279 24.4399 17.9861 24.594 17.984H27.6264C27.7062 17.9885 27.786 17.9761 27.8607 17.9476C27.9354 17.9191 28.0032 17.8751 28.0597 17.8186C28.1162 17.7621 28.1601 17.6943 28.1887 17.6196C28.2172 17.5449 28.2296 17.4651 28.2251 17.3853V8.05508C28.2251 3.70098 24.9517 2.78768e-07 20.7531 2.78768e-07Z" fill="#75EEA5"/>
<path d="M48.3326 0.33588H45.5999C45.5243 0.330581 45.448 0.341129 45.3759 0.366852C45.3043 0.392575 45.2391 0.432917 45.1838 0.485312C45.1285 0.537706 45.0848 0.601009 45.0552 0.671214C45.0255 0.741419 45.0109 0.816984 45.0121 0.893132V1.26718L45.9818 2.7939L45.7146 3.05344C44.9143 2.11004 43.9208 1.3493 42.8015 0.822554C41.6823 0.295806 40.4629 0.0153058 39.2261 0C36.8392 0 34.55 0.948215 32.8621 2.63605C31.1742 4.32387 30.2261 6.61307 30.2261 9C30.2261 11.387 31.1742 13.6761 32.8621 15.364C34.55 17.0518 36.8392 18 39.2261 18C40.4687 17.9867 41.6945 17.7072 42.8201 17.1806C43.9458 16.6539 44.9457 15.8921 45.7524 14.9466L45.9818 15.1298L45.0121 16.7176V17.0687C45.0109 17.1462 45.0255 17.2231 45.0546 17.2949C45.0843 17.3666 45.1273 17.4318 45.182 17.4866C45.2367 17.5414 45.3019 17.5847 45.3741 17.6139C45.4457 17.643 45.5225 17.6575 45.5999 17.6565H48.3326C48.4112 17.6609 48.4897 17.6487 48.5631 17.6208C48.6364 17.5928 48.7028 17.5497 48.7581 17.4942C48.8139 17.4387 48.857 17.3721 48.8849 17.2988C48.9129 17.2255 48.9251 17.1471 48.9204 17.0687V0.893132C48.9245 0.816326 48.9111 0.739638 48.8826 0.668292C48.8541 0.59694 48.8104 0.532614 48.7546 0.479707C48.6987 0.426806 48.6323 0.386572 48.5596 0.36175C48.4868 0.336928 48.4094 0.328102 48.3326 0.33588ZM39.2261 14.1145C37.8676 14.1145 36.5644 13.5748 35.6041 12.6143C34.6437 11.6537 34.1036 10.3508 34.1036 8.99237C34.1036 7.6339 34.6437 6.33108 35.6041 5.37048C36.5644 4.40989 37.8676 3.87024 39.2261 3.87024C40.5845 3.87024 41.8871 4.40989 42.8481 5.37048C43.8084 6.33108 44.348 7.6339 44.348 8.99237C44.348 10.3508 43.8084 11.6537 42.8481 12.6143C41.8871 13.5748 40.5845 14.1145 39.2261 14.1145Z" fill="#75EEA5"/>
<path d="M67.5378 0.000772822H64.6465C64.1816 0.000772822 63.9299 0.252893 63.9299 0.497134V9.21882C63.9707 9.82855 63.8818 10.4401 63.6691 11.013C63.4565 11.586 63.1249 12.1074 62.696 12.5428C62.2671 12.9784 61.751 13.318 61.1816 13.5395C60.6121 13.761 60.0018 13.8593 59.3915 13.8278C56.8546 13.8278 55.2158 11.937 55.2158 9.21882V0.497134C55.2158 0.252893 54.8219 0.000772822 54.5698 0.000772822H51.4183C51.2903 0.0114981 51.1701 0.0672395 51.0793 0.158105C50.9884 0.248964 50.9327 0.369078 50.9219 0.497134V9.16367C50.8966 11.429 51.7692 13.6124 53.3489 15.2363C54.9285 16.8603 57.0869 17.7928 59.3521 17.8302C61.5168 17.8322 63.6073 17.0419 65.2298 15.6084L65.395 15.7581L64.1107 17.5071V18.2084C64.1107 19.9968 61.4243 20.9974 59.8563 20.9974H58.8558C58.7754 20.9921 58.6948 21.0028 58.6187 21.0289C58.5425 21.055 58.4724 21.0961 58.4122 21.1496C58.3521 21.2031 58.3032 21.2681 58.2684 21.3407C58.2336 21.4133 58.2137 21.4921 58.2097 21.5726V24.4246C58.2237 24.5848 58.2984 24.7336 58.4185 24.8405C58.5386 24.9474 58.6951 25.0044 58.8558 24.9997H59.8563C64.6465 24.9997 68.1445 22.2107 68.1445 16.9557V0.497134C68.1235 0.353802 68.0496 0.223554 67.9373 0.131788C67.8249 0.0400227 67.6826 -0.00668332 67.5378 0.000772822Z" fill="#75EEA5"/>
<path d="M87.8475 0.336307H85.1112C85.0352 0.331002 84.9588 0.341563 84.8871 0.367319C84.8153 0.393074 84.7497 0.433468 84.6943 0.485929C84.639 0.538391 84.5952 0.601773 84.5656 0.672068C84.5361 0.742362 84.5215 0.818024 84.5227 0.894268V1.26879L85.4934 2.79746L85.2259 3.05732C84.4246 2.11273 83.43 1.35102 82.3093 0.823601C81.1885 0.296182 79.9677 0.0153252 78.7291 0C76.4202 0.109496 74.2417 1.10202 72.644 2.77235C71.0462 4.44269 70.1514 6.6631 70.1446 8.97456C70.1377 11.286 71.0193 13.5117 72.607 15.1915C74.1949 16.8713 76.3674 17.8767 78.6756 18C79.92 17.9867 81.1471 17.7069 82.2744 17.1795C83.4017 16.6521 84.4028 15.8894 85.2106 14.9426L85.4399 15.1261L84.4692 16.7159V17.0675C84.4681 17.1451 84.4827 17.2221 84.5119 17.2939C84.5411 17.3658 84.5844 17.4311 84.6393 17.4859C84.6941 17.5408 84.7594 17.5841 84.8313 17.6133C84.9032 17.6425 84.9802 17.6571 85.0577 17.656H87.8475C87.926 17.6605 88.0045 17.6483 88.0779 17.6203C88.1513 17.5923 88.218 17.549 88.2735 17.4935C88.3291 17.438 88.3723 17.3713 88.4003 17.2979C88.4283 17.2244 88.4405 17.1459 88.4361 17.0675V0.894268C88.4398 0.817365 88.4268 0.740579 88.3981 0.669142C88.3694 0.5977 88.3256 0.533291 88.2698 0.480317C88.2139 0.427349 88.1473 0.387064 88.0744 0.362211C88.0015 0.337356 87.9241 0.32852 87.8475 0.336307ZM78.6756 14.1325C77.3154 14.1325 76.0109 13.5921 75.0491 12.6303C74.0873 11.6685 73.5469 10.364 73.5469 9.00381C73.5469 7.64362 74.0873 6.33913 75.0491 5.37731C76.0109 4.4155 77.3154 3.87516 78.6756 3.87516C80.0358 3.87516 81.3403 4.4155 82.3021 5.37731C83.2639 6.33913 83.8042 7.64362 83.8042 9.00381C83.8042 10.364 83.2639 11.6685 82.3021 12.6303C81.3403 13.5921 80.0358 14.1325 78.6756 14.1325Z" fill="#75EEA5"/>
</svg>
