<svg width="24" height="24" viewBox="0 0 24 24" fill="none" xmlns="http://www.w3.org/2000/svg">
<g clip-path="url(#clip0_33_1699)">
<path fill-rule="evenodd" clip-rule="evenodd" d="M6.48794 2.25136C7.92946 0.80984 9.88459 0 11.9232 0C13.9618 0 15.917 0.80984 17.3585 2.25136C18.8 3.69289 19.6098 5.64802 19.6098 7.68664C19.6098 11.2837 20.379 13.5071 21.0799 14.7921C21.432 15.4377 21.7736 15.8588 22.008 16.1062C22.1256 16.2303 22.217 16.3116 22.2706 16.3562C22.2973 16.3786 22.3147 16.3917 22.321 16.3965M11.9232 2.42736C10.5284 2.42736 9.19065 2.98146 8.20434 3.96777C7.21803 4.95407 6.66393 6.29179 6.66393 7.68664C6.66393 11.6414 5.81484 14.2726 4.8975 15.9544C4.85489 16.0326 4.81218 16.1085 4.76947 16.1824H19.077C19.0342 16.1085 18.9915 16.0326 18.9489 15.9544C18.0316 14.2726 17.1825 11.6414 17.1825 7.68664C17.1825 6.29179 16.6284 4.95407 15.6421 3.96777C14.6558 2.98146 13.3181 2.42736 11.9232 2.42736ZM22.3074 16.3873L22.3089 16.3883L22.3117 16.3901L22.3163 16.3933L22.3222 16.3974C22.3233 16.3981 22.3238 16.3985 22.3238 16.3985C22.3238 16.3985 22.3231 16.398 22.3218 16.397C22.7556 16.6962 22.9474 17.2421 22.7943 17.7478C22.6393 18.2597 22.1675 18.6098 21.6327 18.6098H2.21377C1.67895 18.6098 1.20716 18.2597 1.05217 17.7478C0.899047 17.242 1.09083 16.6962 1.52463 16.397C1.52486 16.3969 1.52511 16.3967 1.52538 16.3965C1.53176 16.3917 1.54908 16.3786 1.57586 16.3562C1.62939 16.3116 1.72085 16.2303 1.8384 16.1062C2.07286 15.8588 2.41441 15.4377 2.76653 14.7921C3.46742 13.5071 4.23657 11.2837 4.23657 7.68664C4.23657 5.64801 5.04641 3.69289 6.48794 2.25136" fill="white"/>
<path fill-rule="evenodd" clip-rule="evenodd" d="M9.44748 20.6615C10.0273 20.3251 10.77 20.5225 11.1063 21.1023C11.1893 21.2454 11.3084 21.3641 11.4517 21.4467C11.595 21.5292 11.7575 21.5726 11.9228 21.5726C12.0882 21.5726 12.2507 21.5292 12.394 21.4467C12.5373 21.3641 12.6564 21.2454 12.7394 21.1023C13.0757 20.5225 13.8184 20.3251 14.3982 20.6615C14.978 20.9978 15.1754 21.7405 14.839 22.3203C14.5427 22.8312 14.1173 23.2553 13.6055 23.5501C13.0937 23.8448 12.5135 24 11.9228 24C11.3322 24 10.752 23.8448 10.2402 23.5501C9.72837 23.2553 9.30299 22.8312 9.00664 22.3203C8.6703 21.7405 8.86767 20.9978 9.44748 20.6615Z" fill="white"/>
</g>
<defs>
<clipPath id="clip0_33_1699">
<rect width="24" height="24" fill="white"/>
</clipPath>
</defs>
</svg>
