<svg width="238" height="240" viewBox="0 0 238 240" fill="none" xmlns="http://www.w3.org/2000/svg">
<path d="M162.123 208.439C162.743 208.868 163.458 209.106 164.221 209.011C167.701 209.011 171.229 209.344 174.709 209.344C176.283 209.344 177.904 209.583 179.477 209.535C184.054 209.297 188.631 209.201 193.16 208.105C196.45 207.247 199.882 206.913 203.315 207.199C205.937 207.437 208.464 208.248 210.705 209.535C212.373 210.489 213.899 211.585 214.948 213.254C215.758 214.541 216.187 216.019 216.187 217.545V220.071C216.235 224.839 213.994 228.319 209.989 230.799C209.036 231.418 208.035 232.038 207.081 232.658C205.937 233.373 204.697 233.85 203.41 234.088C202.457 234.327 201.551 234.708 200.645 235.042C196.497 236.472 192.206 237.33 187.916 238.141C185.246 238.617 182.528 238.999 179.811 239.38C178.476 239.571 177.093 239.571 175.711 239.714C172.564 240.048 169.417 240.095 166.271 239.905C164.125 239.762 161.932 239.762 159.787 239.523C157.26 239.285 154.781 238.951 152.302 238.617C149.25 238.188 146.199 237.712 143.196 237.044C138.666 236.091 134.185 234.851 129.799 233.325C126.318 232.086 122.886 230.751 119.787 228.748C117.737 227.461 115.734 226.079 114.352 223.933C112.206 220.644 112.874 217.163 115.162 214.493C116.497 212.968 118.261 212.014 120.121 211.204C123.458 209.821 126.986 208.915 130.609 208.486C132.135 208.248 133.708 208.105 135.234 208.153C136.092 208.153 136.998 208.057 137.856 207.914C138.476 207.914 138.619 208.439 138.857 208.82C139.668 210.155 140.383 211.49 141.003 212.92C141.765 214.636 142.767 216.257 143.863 217.735C143.815 218.546 143.72 219.356 143.529 220.119C143.243 221.835 143.768 223.17 145.293 224.076C148.106 225.745 151.253 226.603 154.447 227.223C155.877 227.461 157.355 227.604 158.833 227.557C161.694 227.509 164.602 227.652 167.463 228.033C170.371 228.319 173.327 227.938 176.092 226.841C176.664 226.841 177.284 226.841 177.856 226.984C177.665 226.46 177.141 226.269 177.045 225.793C176.95 225.316 177.141 224.791 177.188 224.267C177.188 223.886 177.093 223.504 176.95 223.17C176.759 222.646 176.807 222.217 177.427 222.074C177.761 221.979 178.094 222.169 178.523 221.883C177.332 220.453 175.329 220.977 174.042 219.976C169.894 217.211 165.46 216.83 160.883 218.641C159.93 219.023 159.024 219.452 158.071 219.833C156.64 220.453 155.973 219.928 156.259 218.451C156.497 216.734 157.022 215.066 157.832 213.54C159.072 212.491 160.073 211.156 160.74 209.678C161.074 209.201 161.312 208.534 162.123 208.439Z" fill="#EEE9F8"/>
<path d="M146.39 45.5304C146.628 45.7211 146.962 45.6257 147.248 45.7211C147.868 46.1502 148.344 45.5781 148.917 45.5304C149.25 45.4827 149.536 45.6734 149.822 45.6257C150.156 45.9595 150.728 46.0072 151.11 45.7688C151.348 45.6257 151.634 45.292 152.015 45.6257C153.255 46.0548 154.59 46.1025 155.877 46.3886C158.785 46.9607 161.455 48.2479 164.077 49.5828C164.173 50.441 164.888 49.9166 165.269 50.1549C165.365 50.584 165.746 50.7271 166.08 50.9178C165.651 52.348 166.843 51.3945 167.176 51.6806C167.415 52.2527 167.653 52.8248 168.416 52.7771C168.178 53.5876 168.178 53.5876 168.797 53.8737C168.845 54.0167 168.893 54.112 168.988 54.2551C170.752 56.4005 171.276 58.8796 171.276 61.5495C171.276 62.6937 171.42 63.8379 171.515 64.9821C171.706 66.5554 171.467 68.1764 170.847 69.6544C170.657 70.0834 170.561 70.3695 171.086 70.6079C174.137 71.9905 175.567 74.6126 176.521 77.6162C177.141 79.714 177.331 81.907 177.141 84.0525C176.616 84.5769 176.044 84.1955 175.52 84.1001C174.614 83.8617 173.66 83.5757 172.516 83.7664C174.137 84.4339 175.949 83.9571 177.045 85.435C177.188 85.8165 177.188 86.2455 177.045 86.6269C176.521 87.1991 176.092 86.7223 175.615 86.5316C174.9 86.2455 174.232 85.7211 173.088 85.6258C173.803 86.2932 174.518 86.4362 175.043 86.77C175.567 87.1037 176.378 87.2944 176.616 88.1049C176.473 88.4386 176.187 88.7247 175.806 88.8677C174.9 89.0584 174.614 88.1049 173.803 87.8665C174.232 88.8677 175.472 89.1538 175.567 90.298C175.234 90.7271 175.091 91.2515 174.709 91.6806C173.899 91.5376 173.946 90.6794 173.47 90.2503C173.088 89.8689 172.897 89.3445 172.278 88.9631C172.564 89.8212 173.088 90.3457 173.422 91.0131C173.66 91.4899 174.185 91.919 173.899 92.5864C172.516 94.0644 170.847 95.2086 168.988 95.9237C168.035 96.2098 167.415 97.1633 167.558 98.1645C167.605 98.7843 167.939 99.6424 166.938 99.9285C166.414 99.1657 166.652 98.3075 166.652 97.497C166.652 96.8772 166.461 96.7819 165.984 97.068C162.361 99.261 158.356 99.8331 154.256 100.31C152.731 100.453 151.157 100.31 149.727 100.977C149.441 101.12 149.107 101.025 148.964 100.739C148.773 100.453 148.344 100.358 148.058 100.548C147.582 100.548 147.105 100.501 146.628 100.358C146.151 100.024 145.627 100.215 145.102 100.167C142.528 98.9273 140.001 97.6877 137.856 95.8284C137.427 95.5423 137.093 95.2086 136.807 94.8272C136.378 92.0143 134.757 89.8689 132.802 87.9619C132.039 87.2944 131.276 86.5793 130.657 85.8165C130.561 85.2443 130.228 84.7676 129.703 84.4815C128.035 83.528 126.604 82.1931 125.031 81.0489C122.456 79.2372 120.073 77.0441 117.641 75.0417C117.26 74.7557 117.069 74.3266 117.164 73.8975C117.212 73.1347 117.403 72.4196 117.784 71.7521C118.833 70.1311 120.025 68.5578 121.312 67.1275C123.505 65.888 125.984 65.1728 128.511 64.9821C130.18 64.9345 131.896 65.0775 133.517 65.3635C137.093 65.888 140.573 66.6985 144.197 66.5078C145.198 66.5078 146.247 66.317 147.2 65.9833C148.058 65.6496 148.297 65.0775 148.011 64.1716C147.2 61.7878 145.007 60.7867 142.671 61.7879C141.574 62.2169 140.669 62.9321 139.906 63.7902C138.666 65.2205 137.188 65.6496 135.377 65.2205C133.66 64.8391 131.896 64.6484 130.085 64.553C127.748 64.4577 125.46 64.7914 123.267 65.6019C122.886 65.7449 122.409 66.0787 122.027 65.6496C121.646 65.2205 121.932 64.6961 122.123 64.267C123.601 61.025 125.46 57.9738 128.082 55.5423C128.511 55.1609 129.226 54.7795 128.559 54.0167C128.464 53.9213 128.416 53.7783 128.368 53.683C128.988 53.4446 129.56 53.1109 130.037 52.6818C134.28 49.3445 138.857 46.6269 144.34 45.9595C144.53 45.9118 144.673 45.8641 144.864 45.8165C145.293 45.7688 145.818 45.4827 146.39 45.5304Z" fill="#F35929"/>
<path d="M130.705 85.7211C131.658 86.5793 132.612 87.4374 133.517 88.2956C134.519 89.2968 135.377 90.441 135.997 91.6806C136.569 92.6341 136.902 93.7306 136.855 94.8272C137.236 95.8284 136.759 96.6389 136.33 97.4493C135.854 98.3552 135.949 98.8796 136.902 99.3564C138.523 100.215 139.858 101.406 141.527 102.217C142.957 102.884 143.243 102.789 144.149 101.454C144.483 100.977 144.531 100.262 145.246 100.024C145.675 99.4041 146.104 99.5948 146.485 100.024C146.724 101.311 145.961 102.265 145.198 103.075C144.244 104.124 144.101 105.125 144.769 106.317C145.15 106.937 145.007 108.081 145.818 108.176C146.628 108.272 146.962 107.175 147.439 106.603C148.583 105.459 148.869 103.647 148.154 102.169C147.916 101.597 147.582 100.93 147.916 100.262C148.345 99.7378 148.631 99.6901 148.917 100.119C149.06 100.31 148.964 100.644 149.203 100.787C149.775 101.12 149.823 101.74 149.966 102.265C150.585 103.981 150.585 103.981 152.445 103.981C155.925 104.029 159.024 102.741 162.123 101.406C162.457 101.263 162.743 101.073 163.076 100.93C164.65 100.31 165.842 99.4517 165.508 97.497C165.508 97.1633 165.603 96.8772 165.842 96.6389C166.128 96.4482 166.366 96.2098 166.843 96.3051C166.891 97.4017 166.938 98.5459 166.986 99.6424C167.32 100.405 166.747 100.787 166.318 101.168C165.603 101.74 164.84 102.169 164.03 102.551C160.025 104.458 155.973 106.126 151.396 105.745C150.538 105.65 149.68 106.126 149.346 106.937C149.012 107.557 148.583 108.176 148.106 108.653C146.819 109.797 146.628 111.275 146.485 112.849C146.009 117.473 145.484 122.098 145.007 126.722C144.721 128.677 144.626 130.679 144.626 132.682C144.721 135.018 143.958 136.877 142.004 138.308C140.764 139.213 139.715 140.405 138.523 141.359C136.664 142.884 135.854 142.694 134.852 140.453C132.898 136.067 132.945 131.728 134.995 127.342C137.284 122.288 139.286 117.092 141.765 112.133C141.908 111.752 142.099 111.418 142.337 111.085C143.958 109.178 143.577 107.271 142.576 105.268C142.385 104.839 142.051 104.458 141.622 104.219C139.715 103.409 138.094 102.169 136.378 101.073C135.043 100.215 135.043 100.215 134.09 101.549C132.564 103.743 130.705 105.697 128.607 107.318C128.321 107.557 127.987 107.795 127.606 107.986C127.272 108.224 126.795 108.176 126.509 107.843C126.223 107.509 126.223 106.985 126.557 106.698L126.604 106.651C126.938 106.317 127.32 105.983 127.701 105.697C130.562 103.313 132.945 100.358 134.614 97.0203C135.567 95.1132 135.568 93.3492 134.28 91.5375C132.755 89.3921 130.848 87.5805 128.655 86.1025C125.413 83.9094 122.075 81.907 119.119 79.3325C117.069 77.6162 115.258 75.6615 113.732 73.4684C111.92 70.8462 109.918 68.3194 108.392 65.5066C107.963 64.6961 107.486 64.6961 106.819 65.1252C104.721 66.5554 102.814 68.1764 100.764 69.6544C96.664 72.5626 92.0872 74.4696 87.2719 75.8522C85.3172 76.4243 85.2695 76.4243 86.3184 78.1406C89.2743 82.8605 92.3255 87.5805 96.1396 91.7282C97.9513 93.6353 100.097 95.1609 102.48 96.3051C104.435 97.3063 106.485 98.2122 108.202 99.6901C110.919 102.074 112.778 104.839 113.017 108.653C113.208 112.372 112.731 115.995 112.206 119.619C112.111 120.381 111.968 121.097 111.73 121.812C110.204 125.864 111.73 129.297 113.78 132.586C115.925 135.876 118.595 138.737 121.742 141.12C128.559 146.46 136.092 150.656 143.482 155.042C144.197 155.471 145.007 155.709 145.865 155.757C147.725 155.852 149.584 156.138 151.444 155.948C152.683 155.805 153.923 155.9 155.162 155.9C159.739 155.852 164.268 155.137 168.798 154.565C169.322 154.565 169.751 154.184 169.751 153.659C169.751 153.564 169.751 153.468 169.703 153.373C169.274 150.274 169.131 147.128 168.798 143.981C168.511 140.977 168.368 137.974 168.13 134.97C167.844 131.347 167.415 127.723 167.224 124.1C167.177 123.099 166.747 122.193 165.937 121.573C165.127 120.858 164.507 119.952 164.078 118.999C163.839 118.522 163.553 117.95 164.173 117.569C164.793 117.187 165.27 117.664 165.603 118.188C166.032 118.903 166.557 119.571 167.129 120.191C167.701 120.858 168.607 121.097 169.417 120.763C174.709 118.76 180.097 117.235 185.341 115.137C187.582 114.231 189.536 112.706 190.871 110.703C191.873 109.273 192.874 107.89 193.78 106.412C194.495 105.316 194.733 103.981 194.352 102.741C192.778 97.0679 191.539 91.2515 189.966 85.5781C189.584 84.1478 189.441 84.0524 188.059 84.3385C186.056 84.7676 184.101 85.2443 181.861 85.6734C183.1 86.4362 184.244 87.056 185.389 87.6758C186.39 88.1526 187.296 88.82 188.059 89.6305C188.44 90.0119 188.821 90.5364 188.297 91.0131C187.773 91.4899 187.296 91.2038 186.867 90.8701C185.246 89.7735 183.577 88.7247 181.861 87.8188C180.192 86.913 178.333 86.3409 176.712 85.3397C175.568 84.5292 174.233 84.5292 172.945 84.2431C172.564 84.1478 172.183 84.1001 171.801 84.0048C171.61 83.9571 171.563 83.7664 171.563 83.5757C171.563 83.385 171.706 83.242 171.849 83.1943C172.135 83.1466 172.469 83.1466 172.755 83.1466C173.66 83.1943 174.614 83.385 175.472 83.671C175.949 83.8617 176.426 83.9571 176.902 83.9571C177.808 84.5292 178.857 84.7199 179.906 84.5292C183.005 83.9571 186.008 83.242 189.06 82.5268C189.584 82.3838 189.632 82.1454 189.584 81.6687C189.537 80.2861 189.584 80.2861 190.919 80.0477C191.444 79.9523 191.968 79.8093 192.445 79.6186C193.398 79.2849 193.494 79.3325 193.97 80.3814C194.352 80.8105 194.638 81.3349 194.733 81.907C196.259 87.1037 197.737 92.3004 198.786 97.5924C198.929 98.2122 198.976 98.8319 198.881 99.4517C198.929 100.644 199.072 101.836 199.358 102.98C199.596 104.172 199.405 105.077 198.309 105.697C197.975 105.888 197.641 106.174 197.403 106.46C196.402 107.461 196.354 107.509 195.353 106.508C194.399 107.89 193.446 109.273 192.588 110.703C190.824 113.468 188.202 115.566 185.15 116.71C182.194 117.902 179.143 118.856 176.092 119.857C173.708 120.62 171.467 121.621 169.084 122.384C168.559 122.574 168.416 122.861 168.464 123.385C168.702 126.293 168.893 129.201 169.131 132.157C169.37 134.923 169.608 137.735 169.799 140.501C170.18 145.125 170.466 149.797 171.086 154.422C171.134 154.899 171.181 155.423 170.752 155.614C169.942 155.852 170.037 156.424 170.132 156.996C170.514 159.523 170.848 162.098 171.277 164.625C171.944 168.534 172.755 172.491 173.184 176.448C173.613 180.977 173.136 185.507 171.849 189.845C171.229 192.038 170.323 194.184 169.227 196.234C167.129 200.143 164.793 203.957 162.266 207.58C162.075 207.819 161.932 208.105 161.789 208.343C161.074 209.154 160.502 210.107 160.073 211.108C159.596 212.157 158.833 213.015 157.832 213.588C157.403 214.017 156.879 214.35 156.306 214.589C152.969 215.971 149.489 217.068 146.009 217.878C145.103 218.069 144.244 218.212 143.529 217.497C142.576 216.973 142.099 216.067 141.67 215.161C140.621 212.825 139.429 210.584 138.094 208.391C137.951 208.2 137.856 208.057 137.665 207.914L137.57 207.676C137.522 207.58 137.427 207.485 137.379 207.39C136.616 206.055 135.663 204.815 134.566 203.719C131.086 200.095 127.558 196.472 124.03 192.849C123.982 192.801 123.887 192.753 123.792 192.706C123.506 192.658 123.219 192.515 122.981 192.277C120.073 188.939 117.498 185.459 116.497 181.025C116.354 180.215 116.306 179.404 116.354 178.546C116.211 177.831 116.068 177.068 115.925 176.353C115.877 176.114 115.782 175.876 115.687 175.685C113.923 176.305 112.111 176.734 110.252 176.973C105.532 177.354 101.098 176.687 96.9978 174.064C93.6128 171.871 90.2755 169.631 86.7475 167.676C82.5997 165.34 78.2135 163.528 73.4936 162.813C70.6807 162.431 67.8678 162.241 65.0073 162.145C64.1491 162.145 63.3386 162.05 62.5282 161.812C61.8607 161.955 61.2409 161.526 61.0979 160.858C61.0502 160.763 61.0502 160.62 61.0979 160.524C61.0025 157.95 60.6211 155.423 60.7641 152.896C60.7641 152.515 60.9072 152.133 61.0979 151.8C61.4316 151.037 62.0037 150.369 62.7189 149.94C63.9584 149.082 65.055 147.986 65.8655 146.746C67.5818 144.41 69.1074 141.979 70.4423 139.404C72.2063 136.067 73.9703 132.729 76.2588 129.726C78.0705 127.294 80.2159 125.149 82.5997 123.29C85.0788 121.335 87.9394 120.429 90.9906 119.809C94.757 119.046 98.0943 120.238 101.289 122.002C103.148 123.099 105.103 124.1 107.057 125.006C109.107 125.864 109.155 125.864 109.537 123.719C110.109 120.763 110.728 117.807 111.014 114.803C111.253 112.181 111.396 109.559 110.919 106.985C110.681 105.745 110.109 104.553 109.298 103.552C107.82 101.502 105.77 99.8808 103.482 98.8319C97.9513 96.4482 93.7558 92.5864 90.4185 87.6281C88.1301 84.1955 85.6032 80.9058 83.7439 77.1871C83.6485 76.8057 83.2195 76.5673 82.838 76.6627C82.0752 76.8057 81.5985 76.4243 81.2647 75.7092C81.1217 75.4231 80.9787 75.1371 80.8833 74.851C80.3589 73.23 80.5973 72.7533 82.2183 72.1812L82.5997 72.0381C83.5055 71.323 84.6497 71.2277 85.6509 70.7986C88.8929 69.5113 91.9918 67.8427 94.8047 65.7926C97.5699 63.7902 100.573 62.1693 103.196 59.9762C103.434 59.7855 103.72 59.6901 104.054 59.6901C104.292 59.4994 104.531 59.261 104.769 59.118C105.675 58.4982 106.485 58.5936 106.771 59.5948C108.44 64.9344 112.159 69.0346 115.162 73.5638C115.591 73.6591 115.973 73.9452 116.211 74.3266C119.072 77.7592 122.6 80.3814 126.366 82.7175C126.461 82.7652 126.604 82.8605 126.7 82.9082C128.273 83.9094 129.846 84.3862 130.705 85.7211Z" fill="#26292A"/>
<path d="M104.483 59.7378C103.148 60.882 101.718 61.9309 100.24 62.8844C98.3806 64.0763 96.5212 65.3158 94.7095 66.6031C91.6583 68.7008 88.3686 70.3695 84.936 71.6091C84.3162 71.8474 83.6964 72.0381 83.0289 72.0858C83.2197 69.5113 83.7918 67.0322 84.1732 64.4577C84.6976 60.6913 85.222 56.9249 85.6988 53.1585C85.9848 51.2515 86.1756 49.2968 86.2232 47.3421C86.2232 44.8629 85.5081 44.0524 83.172 43.385C78.5474 42.0977 74.1136 40.3814 70.2995 37.2348C68.4878 35.7092 67.439 33.8975 67.5343 31.466C67.5343 30.0358 67.6297 28.6532 67.7727 27.2229C68.1064 25.4112 68.7739 25.0775 70.4425 25.9356C70.7286 27.5566 70.6332 29.1776 70.8716 30.7986C71.11 32.6103 71.8251 34.0882 73.4938 34.9464C71.7298 33.9452 71.1577 32.2765 70.967 30.4172C70.8239 29.5113 70.7286 28.6055 70.6809 27.652C70.6809 27.1752 70.6332 26.6508 71.0146 26.317L73.0647 26.6031C73.6368 27.0799 73.4461 27.7473 73.4461 28.3194C73.4938 30.1311 74.3996 31.8474 75.9252 32.8486C73.9229 30.9893 73.1124 28.5101 73.9229 26.5554C75.4962 26.317 76.3543 26.6985 76.8311 28.1287C77.2602 29.416 78.023 29.8927 79.3102 30.0834C84.0301 30.6079 88.607 32.1335 92.7071 34.5173C93.756 35.0894 94.5188 36.1383 94.7095 37.3302C94.9002 38.2837 94.9956 39.2849 94.9479 40.2384C94.9479 41.1919 94.9479 42.0977 94.9956 43.0513C95.0433 44.5292 95.4247 45.9595 96.1875 47.2467C98.6189 51.1561 100.812 55.2086 103.625 58.9273C103.911 59.2133 104.149 59.4994 104.483 59.7378Z" fill="#F35929"/>
<path d="M10.3231 176.305C5.17415 171.728 1.7415 166.198 1.07403 159.237C0.5496 153.468 1.97987 148.272 6.31837 144.124C9.27427 141.311 12.7069 140.501 16.6163 141.216C18.7141 141.645 20.7165 142.36 22.5758 143.409C24.4352 144.458 26.2469 145.554 27.9632 146.794C28.1539 147.461 27.7248 147.89 27.3911 148.319C25.7224 150.656 23.72 152.753 21.956 154.994C17.1408 161.001 13.4697 167.819 11.086 175.113C10.9429 175.59 11.0383 176.21 10.3231 176.305Z" fill="#26292A"/>
<path d="M87.0336 208.534C86.5091 208.725 85.937 208.82 85.3649 208.772C81.6939 208.915 78.0228 208.82 74.3518 208.486C71.3482 208.2 68.3446 208.01 65.4364 207.437C64.8166 206.246 65.055 205.006 65.1504 203.814C65.7701 195.185 67.8202 186.746 71.2052 178.784C71.4912 178.069 71.7296 177.259 72.4924 176.83L82.8381 180.31C83.1241 180.691 83.2195 181.216 83.1241 181.692C82.7427 187.414 82.6951 193.135 83.9346 198.76C84.5544 201.573 85.4603 204.339 86.6998 206.961C86.8905 207.39 87.2719 207.867 87.0336 208.534Z" fill="#F35929"/>
<path d="M60.2395 170.965C63.6722 172.92 67.2478 174.637 70.9189 176.114C71.0142 176.162 71.0619 176.21 71.1096 176.305C71.3956 176.83 71.0619 177.259 70.8712 177.688C67.9153 184.744 65.7222 192.038 64.8641 199.666C64.578 201.621 64.435 203.623 64.4826 205.626C64.5303 206.198 64.6257 206.77 64.2443 207.294C59.0953 206.436 54.0893 204.958 49.2741 202.908C49.0834 202.813 48.845 202.813 48.702 202.622C48.5112 202.193 48.4636 201.669 48.6066 201.192C49.6078 194.613 50.752 188.081 53.4695 181.931C54.9952 178.451 56.7115 175.018 59.0476 172.014C59.3337 171.585 59.7627 171.204 60.2395 170.965Z" fill="#F35929"/>
<path d="M47.5101 202.145C45.174 201.24 42.8856 200.143 40.6925 198.951C38.2134 197.664 35.8296 196.281 33.4935 194.756C33.3981 194.327 33.4458 193.85 33.5888 193.468C35.3528 187.366 36.9738 181.168 40.0727 175.542C42.2181 171.538 44.7926 167.723 47.7009 164.195C47.8916 163.862 48.273 163.623 48.6544 163.528C51.9917 166.007 55.5197 168.2 59 170.393C59 170.822 58.8093 171.251 58.5233 171.585C53.7557 178.069 50.8475 185.411 49.2265 193.278C48.702 195.9 48.3206 198.522 47.8916 201.144C47.9392 201.478 47.9869 201.907 47.5101 202.145Z" fill="#F35929"/>
<path d="M37.4985 154.422L43.9347 159.714C45.1743 160.715 46.4138 161.716 47.6057 162.718C47.7488 163.29 47.272 163.623 46.986 163.957C42.0753 169.821 38.2613 176.544 35.7821 183.743C34.7809 186.651 33.9705 189.607 33.2076 192.563C33.0646 193.087 33.16 193.754 32.3972 193.945C30.5378 192.944 28.7738 191.752 27.1051 190.465C24.8167 188.844 22.6236 187.175 20.5259 185.364C20.9073 183.266 21.8131 181.311 22.6236 179.356C24.5783 174.684 26.39 169.964 28.7738 165.483C30.7762 161.716 33.0646 158.141 36.3066 155.232C36.688 154.946 36.974 154.517 37.4985 154.422ZM199.167 99.5948C198.786 98.3552 198.452 97.068 198.261 95.733C197.165 90.584 195.544 85.5781 194.209 80.5244C195.019 80.6198 195.448 79.9047 196.021 79.5233C197.451 78.7128 198.261 77.1395 198.166 75.5185C198.118 74.5173 198.214 73.4684 198.166 72.4672C198.118 71.7044 198.214 70.9416 198.404 70.2265C198.786 69.1299 198.929 67.9857 198.786 66.8415C198.595 65.9356 199.119 65.1252 199.882 64.5531C201.36 63.4565 202.314 61.7879 202.552 59.9762C202.6 59.5948 202.6 59.1657 202.552 58.7843C202.409 58.1645 202.457 57.5447 202.647 56.9726C203.22 55.3993 204.841 54.9702 206.032 56.1621C206.748 56.8772 207.224 57.8784 207.272 58.8796C207.367 59.8808 207.32 60.9297 207.129 61.9309C206.938 62.9321 207.177 63.1705 208.178 62.9321C209.179 62.6937 210.228 62.6937 211.181 62.9321C211.563 63.0274 211.992 63.0751 212.373 63.0751C213.947 63.1705 214.662 62.5983 214.9 61.025C214.948 60.3099 215.043 59.5948 215.186 58.9273C215.711 57.4494 216.616 57.211 217.856 58.2122C218.237 59.261 217.808 60.2622 217.665 61.3111C217.379 63.5042 216.903 65.6496 215.329 67.4136C216.521 66.3171 217.284 64.8391 217.475 63.2181C217.808 61.5018 217.951 59.7855 218.428 58.1645C218.762 57.9738 219.143 57.7831 219.477 57.5924C220.86 56.7819 222.195 57.9738 221.956 59.3087C221.765 60.9774 221.765 62.6937 221.956 64.3623C222.004 65.1728 221.956 65.9357 221.956 66.7461C221.908 67.6997 221.479 68.5578 220.717 69.1299C219.382 70.2265 217.856 71.0846 216.235 71.7044C214.137 72.6103 212.04 73.3254 209.847 73.9452C208.035 74.3743 206.605 75.7569 206.128 77.5685C205.46 79.7616 205.031 81.9547 204.555 84.1478C203.744 87.8665 202.743 91.5376 201.599 95.1609C201.122 96.8296 200.311 98.3075 199.167 99.5948ZM84.1254 180.596C87.1767 181.406 90.2279 182.074 93.3745 182.503C95.3292 182.741 97.3316 182.837 99.334 183.027C99.6677 183.504 99.8584 184.076 99.8584 184.648C100.574 191.466 102.671 197.712 106.771 203.242C107.057 203.528 107.201 203.909 107.201 204.339C103.672 205.769 100.049 206.818 96.2827 207.485C93.7082 208.01 91.1338 208.343 88.5593 208.486C87.7964 208.105 87.5581 207.39 87.2243 206.722C84.7929 201.478 83.5056 195.757 83.4579 189.94C83.4103 187.271 83.2196 184.505 83.6963 181.836C83.6963 181.359 83.8394 180.93 84.1254 180.596Z" fill="#F35929"/>
<path d="M10.3232 176.305C10.4186 176.21 10.4663 176.067 10.5139 175.971C11.8012 171.061 14.0896 166.579 16.6164 162.193C18.6188 158.76 20.9549 155.518 23.5771 152.515C24.8644 150.989 26.1516 149.464 27.3435 147.843C27.6296 147.557 27.8203 147.223 27.9633 146.841C30.9669 148.892 33.7321 151.275 36.5449 153.564C35.8298 154.851 34.6379 155.614 33.7321 156.71C29.8226 161.478 27.0098 166.818 24.7213 172.443C23.1957 176.114 21.5747 179.785 20.2398 183.552C20.0968 183.933 20.0014 184.315 19.5723 184.505C16.3304 181.979 13.2791 179.213 10.3232 176.305ZM116.688 178.594C117.069 179.166 116.879 179.881 117.022 180.501C117.928 184.553 119.978 187.938 122.647 191.037L124.078 192.753C119.978 198.045 114.495 201.43 108.392 203.909C106.962 202.956 106.295 201.383 105.484 200C102.671 195.185 101.003 189.797 100.526 184.267C100.478 183.838 100.287 183.409 100.669 182.98H100.812C106.247 183.409 111.11 181.263 116.068 179.452C116.45 179.356 116.688 178.975 116.688 178.594ZM61.4317 151.752C61.2887 154.565 61.6701 157.378 61.7654 160.191C61.7654 161.001 62.0038 161.621 62.9097 161.812C59.9061 162.861 56.9502 162.336 53.9943 161.764C49.7035 160.954 46.6522 158.236 43.6963 155.28C43.9824 154.803 44.5545 154.803 44.9836 154.66C45.365 154.565 45.7464 154.422 46.0801 154.184C46.4138 153.945 46.5569 153.516 46.3661 153.135C46.1754 152.706 45.794 152.801 45.4126 152.896C44.8405 152.992 44.3161 153.23 43.744 153.373C43.2672 153.516 42.8381 153.754 42.3614 153.421L42.123 152.849C43.4103 151.323 45.2696 151.18 47.0336 150.942C48.7023 150.751 49.0837 150.942 52.2303 152.515C50.5139 150.656 48.3685 150.322 45.9847 150.608C44.4591 150.799 43.0765 151.418 41.6939 151.943C41.4555 151.514 41.2648 151.037 41.1695 150.513C41.0741 150.131 40.7404 149.845 40.3113 149.845C40.4067 149.13 40.9788 149.368 41.3602 149.321C41.9323 149.273 42.5044 149.321 43.0765 149.225C43.5056 149.13 43.887 148.987 43.887 148.462C43.887 147.938 43.4103 147.938 42.9812 147.89C42.3614 147.795 41.7416 148.224 41.1695 147.747C42.2184 145.983 43.887 145.364 45.794 145.459C47.7488 145.602 49.6081 146.412 51.0384 147.843C51.8489 148.605 52.6594 149.321 53.4698 150.083C55.806 152.229 58.4281 152.944 61.4317 151.752ZM126.748 83.0036C122.933 80.8105 119.453 77.9976 116.545 74.6603C116.211 74.2789 115.925 73.8975 115.639 73.5638C115.734 73.4684 115.877 73.3731 115.925 73.2777C116.45 71.0846 117.928 69.4636 119.167 67.6996C120.407 65.9356 120.454 64.9821 119.31 63.2181C118.786 62.3599 118.166 61.5495 117.594 60.6913C116.497 59.118 116.354 56.9726 118.643 55.5423C119.405 55.0655 120.216 54.7318 121.074 54.5888C123.458 54.1597 125.842 53.6829 128.273 53.6353L128.416 53.7783C128.321 54.6365 127.701 55.1609 127.129 55.733C124.364 58.4029 122.6 61.6925 121.217 65.2205C120.979 65.888 120.979 66.6031 121.169 67.2706C120.359 68.4148 119.549 69.559 118.69 70.6555C117.928 71.5614 117.451 72.7056 117.308 73.8498C117.212 74.1835 117.355 74.5649 117.641 74.708C119.882 76.5197 122.123 78.379 124.411 80.2384C124.841 80.6198 125.365 80.9058 125.842 81.1919C126.08 81.3349 126.366 81.3826 126.509 81.5733C127.415 82.8605 128.941 83.3373 130.133 84.2908C130.562 84.5769 130.848 85.1013 130.752 85.6257L126.986 83.0989C126.891 83.0989 126.938 82.8605 126.748 83.0036Z" fill="#F35929"/>
<path d="M226.295 111.99C226.485 125.387 222.719 137.64 215.758 148.939C215.568 149.225 215.377 149.511 215.138 149.797C214.995 149.988 214.757 150.036 214.519 149.893C214.328 149.797 214.233 149.559 214.28 149.321C214.423 148.796 214.662 148.319 214.995 147.89C217.761 143.313 220.001 138.498 221.765 133.492C224.197 126.007 225.341 118.188 225.103 110.322C225.007 105.983 224.626 101.645 223.959 97.354C223.72 95.7807 223.291 94.2074 222.719 92.7294C222.385 91.8236 222.099 90.8701 221.765 89.9642C221.622 89.6305 221.527 89.2491 221.956 89.0584C222.385 88.8677 222.624 89.2014 222.719 89.5828C223.529 91.9666 224.626 94.2551 225.007 96.7819C225.866 101.788 226.247 106.889 226.295 111.99ZM50.943 90.584C51.4674 79.857 53.9465 69.3206 58.285 59.5471C59.906 55.6853 62.0514 52.1097 64.6736 48.8677C64.8643 48.6293 65.055 48.3909 65.2934 48.1526C65.4364 47.9619 65.7701 47.9142 65.9608 48.0572C65.9608 48.0572 66.0085 48.0572 66.0085 48.1049C66.2469 48.2956 66.2946 48.5816 66.1039 48.82C66.0085 49.0107 65.8655 49.2014 65.7225 49.3921C61.7177 54.2551 59.1432 59.8808 57.0455 65.7449C54.757 72.1335 53.2314 78.7604 52.4686 85.5304C51.9441 90.3456 51.6581 95.1609 52.3732 99.9762L52.6593 101.549C52.707 101.788 52.5639 101.979 52.3732 102.074C52.1349 102.169 51.8488 102.074 51.7534 101.836V101.788C51.6104 101.406 51.5151 101.025 51.4197 100.644C50.8953 97.3063 50.7523 93.9213 50.943 90.584ZM146.438 8.43862C157.117 8.82003 167.463 10.7271 177.189 15.3993C177.618 15.59 178.047 15.8284 178.476 16.0668C178.714 16.2098 178.857 16.4958 178.714 16.7342C178.571 16.9726 178.285 17.0679 178.047 16.9726C177.808 16.9249 177.522 16.8296 177.284 16.6865C169.608 12.8725 161.36 10.9654 152.826 9.96425C145.389 9.10608 138.047 9.91657 130.752 11.5376C129.131 11.9666 127.51 12.5387 125.985 13.2062C125.746 13.3016 125.508 13.4446 125.27 13.4923C125.079 13.5399 124.888 13.4446 124.793 13.3016C124.65 13.1109 124.697 12.8725 124.84 12.6818C125.222 12.348 125.603 12.1097 126.08 11.9666C128.798 10.7747 131.658 9.96425 134.614 9.53517C138.571 8.96306 142.481 8.39095 146.438 8.43862Z" fill="white"/>
<path d="M19.6201 184.505C21.8132 178.307 24.34 172.205 27.2006 166.293C29.2983 161.812 32.1589 157.759 35.6392 154.327C35.8776 153.993 36.2113 153.754 36.5927 153.611C36.9264 153.85 37.2602 154.136 37.4986 154.47C32.7786 158.951 29.4413 164.338 26.9145 170.25C24.8645 175.018 22.719 179.738 21.0027 184.601C20.9074 184.887 20.7643 185.173 20.526 185.411L19.6201 184.505ZM32.4449 193.945C33.1124 191.609 33.8752 189.273 34.4473 186.937C35.9252 181.216 38.4997 175.971 41.551 170.965C43.315 168.057 45.3651 165.292 47.6058 162.717C48.0349 162.908 48.4163 163.194 48.7024 163.528C44.1732 168.772 40.5498 174.684 37.88 181.12C36.2113 185.077 35.2101 189.321 33.9705 193.373C33.9229 193.85 33.7322 194.327 33.4938 194.756C33.1124 194.565 32.731 194.279 32.4449 193.945ZM47.5105 202.145C48.4163 194.279 49.9896 186.603 53.47 179.404C54.9479 176.162 56.8073 173.158 59.048 170.393C59.4771 170.536 59.8585 170.727 60.1922 171.013C60.0969 171.204 60.0015 171.394 59.8585 171.585C54.9956 177.831 52.135 184.934 50.4664 192.61C49.7989 195.661 49.2745 198.76 48.8454 201.907C48.7977 202.145 48.75 202.431 48.6547 202.67C48.2733 202.574 47.8919 202.431 47.5105 202.145Z" fill="#171819"/>
<path d="M64.2924 207.342C64.0063 206.913 64.1017 206.388 64.1017 205.912C64.2924 198.617 65.5796 191.371 67.9634 184.458C68.8693 181.692 69.9181 178.975 71.11 176.305C71.5868 176.353 72.0635 176.496 72.4449 176.782C69.8228 182.503 67.8681 188.51 66.6762 194.708C65.8657 198.903 65.4366 203.147 65.3889 207.39L64.2924 207.342ZM84.1255 180.596C83.8395 183.599 83.7441 186.603 83.7918 189.607C83.8871 194.708 84.8883 199.714 86.6523 204.529C87.2245 205.864 87.8442 207.199 88.5594 208.486L87.6535 208.629C87.4152 208.725 87.1768 208.677 86.9861 208.534C85.0314 204.815 83.6964 200.763 83.029 196.615C82.2662 191.609 82.1231 186.555 82.6476 181.502C82.6953 181.12 82.6953 180.691 82.7429 180.31C83.2197 180.262 83.6964 180.357 84.1255 180.596Z" fill="#363A3B"/>
<path d="M237.021 99.261C237.069 100.596 236.974 101.979 236.831 103.313C236.783 103.552 236.735 103.838 236.688 104.076C236.64 104.267 236.449 104.362 236.259 104.362C236.02 104.41 235.829 104.267 235.734 104.029C235.686 103.6 235.639 103.17 235.686 102.694C236.211 94.6842 235.114 86.6269 232.397 79.0465C232.015 77.9499 231.539 76.9011 231.11 75.8522C231.014 75.6615 230.919 75.4708 230.824 75.2324C230.728 74.994 230.824 74.7557 231.014 74.6603C231.205 74.565 231.443 74.565 231.634 74.7557C231.968 75.0894 232.206 75.5185 232.349 75.9952C233.922 79.6186 235.114 83.385 235.83 87.2467C236.64 91.2515 237.021 95.2563 237.021 99.261Z" fill="white"/>
<path d="M100.669 183.027C100.955 184.887 101.241 186.794 101.575 188.653C102.576 193.85 104.721 198.761 107.868 203.004C108.106 203.242 108.297 203.576 108.392 203.91L107.248 204.339C104.102 200.477 101.861 195.995 100.669 191.18C100.001 188.51 99.5247 185.793 99.334 183.075L100.669 183.027Z" fill="#363A3B"/>
<path d="M140.812 0.71514C140.764 0.953519 140.526 1.14422 140.24 1.14422C139.811 1.1919 139.334 1.23957 138.905 1.23957C133.851 1.47795 128.845 2.33612 124.03 3.76639C121.837 4.38618 119.882 5.48272 117.832 6.43624C117.451 6.62694 116.926 7.15137 116.545 6.57926C116.164 5.86413 116.926 5.7211 117.356 5.5304C121.551 3.19428 126.033 1.85936 130.752 1.00119C133.613 0.524436 136.474 0.238382 139.334 2.75299e-06C139.715 -0.047673 140.145 2.74926e-06 140.526 0.14303C140.764 0.238382 140.86 0.476761 140.812 0.71514ZM164.888 22.9321C170.705 23.1228 176.187 24.41 181.241 27.3182C181.718 27.6043 182.195 27.938 182.671 28.2717C182.91 28.4148 183.005 28.7008 182.862 28.9392C182.862 28.9392 182.862 28.9869 182.814 28.9869C182.671 29.2253 182.338 29.3206 182.099 29.1776C181.766 29.0346 181.479 28.8439 181.146 28.7008C176.807 26.1263 171.897 24.6007 166.843 24.2193C165.985 24.124 165.174 24.124 164.316 24.0286C163.935 23.9809 163.458 24.0286 163.458 23.4565C163.506 22.9797 163.887 22.9797 164.269 22.9797C164.507 22.8844 164.698 22.9321 164.888 22.9321Z" fill="white"/>
<path d="M64.3877 61.3111C64.3877 60.5959 64.5307 59.9285 64.7691 59.261C66.1994 54.7318 68.8215 50.9177 72.0635 47.5328C72.2065 47.3897 72.3496 47.2944 72.4926 47.199C72.6833 47.056 72.9217 47.056 73.1124 47.199C73.3507 47.3421 73.3984 47.6281 73.3031 47.8665C73.3031 47.8665 73.3031 47.9142 73.2554 47.9142C73.017 48.2479 72.7786 48.534 72.4926 48.82C69.8227 51.7282 67.5343 54.8272 66.1994 58.5936C65.8656 59.404 65.6273 60.2622 65.4842 61.1204C65.4366 61.5018 65.3889 61.8832 64.9121 61.8832C64.6261 61.8832 64.4354 61.6925 64.3877 61.4541V61.3111Z" fill="white"/>
<path d="M216.569 114.231C216.569 115.9 216.426 117.521 216.187 119.142C216.187 119.237 216.187 119.333 216.14 119.428C215.997 119.809 216.044 120.429 215.424 120.334C214.852 120.191 214.948 119.666 214.995 119.237C215.138 118.141 215.234 117.044 215.377 115.948C215.806 112.134 214.852 108.462 214.042 104.791C213.994 104.458 213.899 104.124 213.851 103.743C213.803 103.457 213.994 103.218 214.233 103.17C214.519 103.123 214.757 103.313 214.805 103.6C214.995 104.219 215.091 104.791 215.234 105.411C215.901 108.319 216.712 111.228 216.569 114.231Z" fill="white"/>
<path d="M59.3337 92.9678C59.3814 88.9631 60.2396 85.0536 61.8129 81.3826C62.0036 80.9535 62.1466 80.2861 62.7664 80.5244C63.3862 80.7628 63.0524 81.4303 62.8617 81.907C61.7175 84.6722 60.9547 87.5805 60.5733 90.584C60.4303 91.9666 60.3826 93.3969 60.4303 94.8272C60.4303 95.2563 60.621 95.8284 59.9535 95.8284C59.2861 95.8284 59.3814 95.2563 59.3814 94.8272C59.3337 94.2074 59.3337 93.5876 59.3337 92.9678ZM44.6496 93.7306C44.9833 93.7306 45.174 93.8737 45.2217 94.112C45.2694 94.4458 45.317 94.8272 45.317 95.1609C45.317 99.2134 46.0799 103.266 47.5101 107.08C47.5578 107.175 47.6055 107.318 47.6532 107.461C47.7008 107.747 47.6532 107.986 47.3671 108.129C47.1287 108.224 46.8903 108.129 46.795 107.938C46.6043 107.652 46.4613 107.318 46.3182 106.985C44.888 103.123 44.1728 99.0703 44.2205 94.9225C44.2205 94.6365 44.2682 94.3981 44.3159 94.1597C44.2682 93.8737 44.4112 93.7306 44.6496 93.7306Z" fill="white"/>
<path d="M41.6938 151.943C41.7415 151.752 41.8845 151.561 42.0753 151.466C44.1253 150.56 46.2707 149.94 48.5115 150.226C49.8464 150.37 51.086 150.942 52.1349 151.8C52.4209 152.038 52.6593 152.277 52.85 152.61C53.0407 152.801 53.0407 153.135 52.8023 153.325C52.5639 153.516 52.2779 153.516 52.0872 153.278L52.0395 153.23C49.2266 150.37 46.1277 151.085 42.9334 152.42C42.6474 152.563 42.3613 152.706 42.1229 152.896C41.9799 152.515 41.8369 152.229 41.6938 151.943Z" fill="#363A3B"/>
<path d="M165.222 50.1073C165.031 50.2503 164.888 50.3457 164.698 50.4887C164.364 50.6317 163.982 50.7271 163.744 50.3457C163.506 49.9643 163.982 49.8212 164.03 49.5352C166.223 48.1526 168.416 46.7223 170.657 45.3397C171.277 44.9583 171.992 44.6246 172.612 44.2432C172.85 44.0525 173.184 44.1001 173.375 44.3385L173.422 44.3862C173.661 44.7676 173.422 44.9583 173.136 45.149C172.85 45.3397 172.421 45.5304 172.087 45.7688C169.799 47.2944 167.51 48.677 165.222 50.1073Z" fill="#363A3B"/>
<path d="M42.3611 153.421C43.3146 153.135 44.2681 152.849 45.2693 152.563C46.2705 152.277 46.6519 152.467 46.8426 153.039C47.0333 153.707 46.6996 154.422 46.0798 154.708C45.317 155.137 44.4588 155.089 43.6483 155.328C42.9332 155.518 42.1704 155.471 41.4552 155.28C40.8831 155.089 40.7878 154.708 41.2169 154.279C41.5983 153.945 41.932 153.659 42.3611 153.421Z" fill="#363A3B"/>
<path d="M146.39 45.5304C145.913 46.0072 145.436 46.2932 144.816 45.7688C146.58 43.385 148.058 40.8105 149.632 38.3314C149.87 37.9023 150.061 37.1395 150.728 37.4732C151.491 37.8546 150.871 38.4744 150.585 38.9511C149.203 41.1919 147.772 43.385 146.39 45.5304Z" fill="#363A3B"/>
<path d="M209.37 138.975C209.322 139.118 209.274 139.309 209.227 139.452C208.416 141.836 207.463 144.172 206.366 146.412C206.128 146.842 205.937 147.557 205.27 147.223C204.602 146.889 205.127 146.365 205.317 145.936C206.414 143.79 207.224 141.597 208.082 139.356C208.178 139.118 208.273 138.88 208.369 138.594C208.464 138.308 208.655 138.117 208.988 138.164C209.417 138.308 209.37 138.689 209.37 138.975Z" fill="white"/>
<path d="M41.2171 147.747C41.9799 147.604 42.7904 147.509 43.5532 147.509C43.9823 147.557 44.316 147.652 44.4591 148.129C44.5544 148.51 44.4591 148.939 44.1253 149.225C43.7439 149.511 43.2672 149.654 42.7904 149.702C41.9799 149.845 41.1218 149.511 40.3113 149.845C40.0729 149.893 39.7868 149.893 39.5485 149.845C39.2147 149.75 38.7856 149.75 38.7856 149.273C38.7856 148.892 39.024 148.605 39.4054 148.51C39.9775 148.176 40.5973 147.986 41.2171 147.747Z" fill="#363A3B"/>
<path d="M218.428 58.2122C218.762 59.0226 218.38 59.7855 218.285 60.5483C218.19 61.5018 217.951 62.4553 217.808 63.4088C217.57 64.7437 216.998 66.031 216.187 67.1275C215.997 67.3659 215.806 67.6043 215.568 67.8427C215.282 68.1287 214.9 68.4625 214.566 68.1287C214.233 67.795 214.709 67.4613 214.948 67.2229C216.092 66.031 216.807 64.5054 217.046 62.8844C217.284 61.3588 217.57 59.8331 217.856 58.3075L218.428 58.2122Z" fill="#363A3B"/>
<path d="M71.0622 26.2694C71.0622 27.9857 71.2052 29.702 71.5389 31.4184C71.682 32.7533 72.4925 33.9452 73.732 34.565C74.1134 34.7557 74.7809 34.9464 74.4948 35.4708C74.2088 35.9952 73.732 35.4708 73.3506 35.2801C71.968 34.6126 70.9668 33.3254 70.7761 31.7998C70.3947 30.1311 70.2517 28.3671 70.2994 26.6508C70.2994 26.3647 70.2994 26.1263 70.5378 25.9356L71.0622 26.2694Z" fill="#363A3B"/>
<path d="M167.129 51.6329C166.032 52.2527 166.032 52.2527 165.27 51.5376C165.365 51.1561 165.794 51.1561 166.032 50.8701C167.606 50.2026 169.084 49.4875 170.562 48.677C170.8 48.534 171.038 48.4386 171.277 48.2956C171.515 48.1526 171.896 48.1049 172.087 48.391C172.278 48.677 172.087 49.0107 171.849 49.1538C171.467 49.3921 171.086 49.6305 170.705 49.8212C169.513 50.4887 168.321 51.0608 167.129 51.6329Z" fill="#363A3B"/>
<path d="M148.869 45.7211C148.583 45.9595 148.297 46.1025 147.963 46.1979C147.582 46.2455 147.248 46.1979 147.2 45.7211C148.344 44.5292 149.536 43.3373 150.681 42.1454C150.967 41.8594 151.3 41.621 151.634 41.3826C151.825 41.2396 152.063 41.2396 152.254 41.4303C152.445 41.5733 152.445 41.8594 152.349 42.0501L151.777 42.7652C151.014 43.5757 150.204 44.4339 149.393 45.2443C149.25 45.4351 149.107 45.6258 148.869 45.7211Z" fill="#363A3B"/>
<path d="M151.968 45.6258C151.444 46.0072 150.824 46.2932 150.156 46.3886C149.584 46.4363 149.823 46.0548 149.823 45.7688C149.775 45.6258 149.775 45.5781 149.966 45.5304C151.253 44.8153 152.445 44.0048 153.637 43.1466C153.78 43.0513 153.923 42.9082 154.066 42.8129C154.447 42.5745 154.829 42.1454 155.21 42.6699C155.591 43.1943 155.067 43.4803 154.733 43.7187C153.78 44.3862 152.874 45.006 151.968 45.6258Z" fill="#363A3B"/>
<path d="M73.9705 26.5554C73.9228 27.4613 74.0181 28.4148 74.2088 29.3206C74.3996 30.6555 75.21 31.7998 76.3543 32.5149L76.7833 32.801C76.9264 32.8963 76.974 33.1347 76.8787 33.2777C76.7833 33.4207 76.5926 33.5161 76.4496 33.4684C76.0205 33.3254 75.6391 33.1347 75.3054 32.8486C74.1135 31.8474 73.3507 30.4172 73.2077 28.8439C73.1123 28.1287 73.16 27.3659 73.1123 26.6031C73.3984 26.5078 73.6844 26.4601 73.9705 26.5554Z" fill="#363A3B"/>
<path d="M168.798 53.826C168.369 53.7783 167.796 54.3504 167.51 53.7306C167.177 52.9678 168.13 53.1109 168.416 52.7294L170.943 51.9666C171.181 51.8713 171.467 51.8236 171.706 51.7759C172.04 51.6806 172.373 51.7759 172.469 52.1097C172.564 52.4434 172.326 52.5864 172.087 52.7294C171.801 52.8725 171.515 52.9678 171.229 53.0632L168.798 53.826Z" fill="#363A3B"/>
<path d="M223.672 78.9988C223.672 79.1895 223.577 79.3802 223.434 79.5232C223.243 79.6663 223.005 79.6186 222.862 79.4279C222.194 78.4267 221.575 77.3302 221.05 76.1859C220.955 75.9476 221.05 75.6138 221.289 75.4708C221.527 75.3278 221.813 75.4231 221.956 75.6615V75.7092C222.528 76.7104 223.1 77.7116 223.625 78.7128C223.625 78.7604 223.672 78.8558 223.672 78.9988Z" fill="white"/>
<path d="M87.0337 208.486L87.7011 208.582C87.4151 208.82 87.2244 208.725 87.0337 208.486Z" fill="#F57A54"/>
<path d="M137.665 207.437C137.808 207.437 137.904 207.58 137.856 207.723C137.713 207.676 137.618 207.58 137.665 207.437Z" fill="white"/>
<path d="M143.815 217.592C144.817 217.878 145.913 217.831 146.914 217.497C150.347 216.639 153.684 215.542 156.926 214.16C157.308 213.969 157.737 213.874 158.166 213.683C157.498 215.209 157.022 216.734 156.736 218.355C156.688 218.594 156.64 218.88 156.592 219.118C156.592 219.881 156.879 220.119 157.546 219.786C158.643 219.213 159.787 218.737 160.931 218.308C165.46 216.496 169.751 216.925 173.899 219.452C174.137 219.547 174.328 219.738 174.471 219.976C174.185 220.215 173.851 220.31 173.517 220.31C172.659 220.405 172.469 220.93 172.659 221.693C172.612 221.836 172.516 221.931 172.421 221.979C171.372 222.169 170.418 221.74 169.417 221.693C168.75 221.597 168.082 221.645 167.463 221.883C170.418 221.883 173.136 223.123 175.997 223.647C176.569 223.647 177.141 223.886 177.57 224.219C177.713 224.791 177.379 225.268 177.284 225.84C176.759 226.031 176.33 225.697 175.901 225.554C175.281 225.316 174.662 225.173 173.994 225.173C173.803 225.173 173.517 225.173 173.47 225.459C173.422 225.745 173.613 225.84 173.803 225.983C174.328 226.269 174.948 226.46 175.52 226.603C175.854 226.698 176.426 226.555 176.426 227.223C173.708 228.51 170.8 228.701 167.844 228.558C166.128 228.463 164.411 228.224 162.695 228.129C161.598 228.081 160.502 228.081 159.358 228.129C154.828 228.272 150.585 227.08 146.485 225.316C146.199 225.173 145.913 225.03 145.675 224.887C143.434 223.552 142.91 222.36 143.386 219.786C143.529 218.975 143.672 218.26 143.815 217.592Z" fill="#F35929"/>
<path d="M177.57 224.172C176.14 224.124 174.757 223.838 173.422 223.409C171.563 222.741 169.56 222.408 167.558 222.408H167.034C166.795 222.408 166.604 222.217 166.604 221.978C166.604 221.74 166.7 221.549 166.938 221.454C167.272 221.311 167.606 221.263 167.987 221.311C169.513 221.311 171.086 221.502 172.564 221.835C172.945 221.788 173.374 221.883 173.708 222.074L174.042 222.217C174.28 222.312 174.519 222.36 174.757 222.408C175.615 222.789 176.616 222.598 177.332 223.266C177.522 223.504 177.618 223.838 177.57 224.172Z" fill="#363A3B"/>
<path d="M172.564 221.549C171.801 220.596 171.849 220.358 172.993 220.119C173.518 220.024 174.042 220.024 174.566 219.976C175.234 220.31 175.997 220.31 176.712 220.501C177.475 220.644 178.238 220.977 178.857 221.502C179.096 221.692 179.286 221.883 179.143 222.169C179.048 222.455 178.714 222.598 178.428 222.503H178.381C178.094 222.408 177.761 222.312 177.475 222.265C176.76 222.408 175.997 222.503 175.282 222.455C175.091 222.455 174.9 222.408 174.662 222.408C174.328 222.408 173.994 222.36 173.708 222.265C173.375 221.931 172.802 222.026 172.564 221.549Z" fill="#363A3B"/>
<path d="M176.378 227.08C175.806 226.937 175.186 226.794 174.614 226.603C174.28 226.508 173.946 226.412 173.613 226.269C173.136 226.031 172.659 225.65 172.802 225.077C172.945 224.505 173.565 224.696 174.042 224.696C175.234 224.744 176.235 225.268 177.236 225.793C177.665 226.317 178.523 226.46 178.571 227.366C177.808 227.509 177.141 227.032 176.378 227.08Z" fill="#363A3B"/>
<path d="M175.234 222.122C175.997 222.122 176.759 221.979 177.475 222.265C176.807 222.503 177.331 222.932 177.284 223.266C176.283 223.218 175.329 222.98 174.423 222.598C174.233 222.503 173.994 222.551 173.851 222.36C173.803 222.312 173.708 222.312 173.66 222.312C173.565 222.312 173.517 222.265 173.565 222.217C173.613 222.169 173.613 222.122 173.613 222.122H174.662C174.805 222.265 175.043 222.265 175.234 222.122Z" fill="#F57A54"/>
<path d="M176.855 85.435C177.284 85.3873 177.76 85.4827 178.142 85.7211C181.288 87.1037 184.435 88.5816 187.248 90.6317C187.629 90.9177 188.106 91.3945 188.487 90.8701C188.869 90.3456 188.297 90.0119 187.915 89.7258C186.104 88.3909 184.197 87.2467 182.194 86.3409C181.765 86.1978 181.384 85.9595 181.05 85.6257L189.298 83.814C189.489 83.7664 189.727 83.7664 190.013 83.7187C190.681 86.3409 191.396 88.963 192.063 91.5852C193.112 95.59 193.923 99.5947 195.114 103.552C195.305 103.981 195.305 104.458 195.114 104.839C193.064 108.653 191.014 112.515 187.01 114.803C185.579 115.566 184.054 116.234 182.48 116.758C178.38 118.141 174.232 119.428 170.18 121.001C168.273 121.716 167.558 121.478 166.366 119.809C165.937 119.237 165.603 118.617 165.222 117.998C165.031 117.712 164.793 117.521 164.459 117.712C164.125 117.902 164.173 118.236 164.364 118.522C165.079 119.809 165.794 121.097 167.033 121.955C167.415 122.193 167.605 122.574 167.605 123.051L168.321 131.919C168.893 138.689 169.417 145.459 169.989 152.181C170.037 152.753 170.085 153.325 170.228 153.897C170.323 154.517 170.18 154.756 169.512 154.851C162.981 155.852 156.354 156.377 149.775 156.377C148.774 156.377 147.725 156.329 146.723 156.234C145.484 156.186 144.244 155.804 143.195 155.232C137.331 151.704 131.42 148.319 125.746 144.458C122.17 142.074 118.881 139.213 116.02 136.019C114.209 134.017 112.969 131.681 111.825 129.297C110.919 127.39 110.681 125.197 111.253 123.194C112.206 119.428 112.731 115.518 112.874 111.609C112.921 109.559 112.874 107.509 112.254 105.554C112.015 104.696 111.586 103.933 111.062 103.218C109.298 100.834 107.2 98.8319 104.387 97.64C98.9523 95.3039 94.8522 91.3945 91.6102 86.5316C89.6078 83.528 87.3671 80.7151 85.6984 77.5208L85.0786 76.2813C85.46 76.0429 85.8891 75.8999 86.3182 75.8522C93.0882 74.1359 99.3814 70.8939 104.721 66.3647C105.198 65.9833 105.722 65.6019 106.199 65.2205C106.676 64.8391 107.343 64.41 107.915 64.0763C108.201 64.0763 108.297 64.267 108.344 64.41C110.156 67.8903 112.54 70.9893 114.828 74.1359C117.355 77.6639 120.74 80.2384 124.268 82.6698C126.461 84.1954 128.797 85.4827 130.847 87.1514C132.897 88.677 134.518 90.6794 135.615 92.9678C135.901 93.5876 135.996 94.3504 135.806 95.0179C135.615 95.9237 135.281 96.7819 134.852 97.64C133.04 101.073 130.514 104.076 127.51 106.508C127.129 106.794 126.223 107.08 126.795 107.795C127.272 108.367 127.748 107.652 128.13 107.366C130.561 105.507 132.707 103.266 134.423 100.739L135.091 99.7854C135.996 100.358 136.855 100.882 137.665 101.406C139.191 102.408 140.669 103.456 142.433 104.076C142.719 104.172 142.957 104.41 143.005 104.744C143.195 105.507 143.481 106.269 143.815 106.984C144.387 108.081 144.149 108.939 143.577 109.94C140.049 116.281 137.379 122.956 134.709 129.678C133.088 133.731 134.137 137.545 135.853 141.216C136.33 142.217 136.902 142.312 137.76 141.645C138.619 140.977 139.477 140.215 140.287 139.499C140.955 138.784 141.717 138.164 142.48 137.592C143.911 136.686 144.435 135.352 144.483 133.731C144.673 126.245 145.865 118.808 146.533 111.371C146.533 110.369 147.01 109.416 147.772 108.748C148.63 108.033 149.155 107.032 149.727 106.079C149.918 105.602 150.442 105.316 150.967 105.363C156.64 105.793 161.551 103.647 166.318 100.93C166.843 100.691 167.224 100.167 167.272 99.5471C167.51 98.6412 167.367 97.6877 167.415 96.7819C167.367 96.4005 167.605 96.019 167.987 95.876C170.228 95.0655 172.278 93.7783 173.994 92.1573C174.757 92.348 174.9 93.0631 175.138 93.6829C176.282 96.2097 177.141 98.8796 177.665 101.597C177.665 102.026 177.903 102.455 178.285 102.694C178.046 100.787 177.57 98.8796 176.95 97.0202C176.425 95.5423 175.806 94.0643 175.138 92.6341C174.948 92.205 174.566 91.8236 174.852 91.2991C174.852 90.7747 175.138 90.2503 175.615 89.9642C176.521 90.1549 176.807 91.0608 177.379 91.6329C177.76 92.062 177.999 92.5864 178.571 92.8724C178.189 91.9189 177.57 91.0131 176.855 90.2503C176.425 89.7735 175.806 89.3921 175.996 88.5816L176.664 87.8188C177.951 87.9142 178.619 88.9153 179.524 89.5828C180.144 90.0596 180.573 90.7747 181.384 91.0131C180.526 89.6305 179.238 88.6293 177.999 87.6758C177.617 87.3897 176.998 87.2467 176.998 86.5316L176.855 85.435Z" fill="white"/>
<path d="M160.645 67.3182C162.838 67.3182 164.793 68.0334 166.795 68.7485C169.608 69.7497 170.609 72.1335 171.658 74.5173C171.992 75.2324 171.896 76.0429 171.42 76.6627C171.086 77.0441 171.181 77.4732 171.229 77.9023C171.324 79.7616 171.467 81.6687 170.991 83.4803C170.228 86.6269 168.559 88.9631 165.174 89.6782C164.84 89.7259 164.554 89.7735 164.507 90.2026C164.459 90.6317 164.411 91.1561 163.839 91.1561C163.267 91.1561 163.41 90.4887 163.124 90.1073L160.359 92.9678C159.596 93.8737 158.404 94.3027 157.26 94.0644C156.306 93.8737 155.305 93.9213 154.399 93.5399C153.351 93.1108 153.16 92.7294 153.684 91.7282C154.447 90.1073 154.59 88.2479 154.018 86.5316C153.875 86.0548 153.684 85.7688 153.112 85.7211C151.062 85.6734 149.346 84.7199 147.868 83.4327C147.343 82.9559 146.914 82.9082 146.39 83.385C145.675 84.0048 144.864 84.6246 144.101 85.2443C143.768 85.4827 143.625 85.9118 143.863 86.2932C144.96 88.677 146.152 91.0131 147.916 92.9678C149.823 95.0179 152.397 95.5423 155.115 95.447C155.639 95.3993 156.163 95.3039 156.688 95.1609C157.069 95.0656 157.451 95.0179 157.594 95.447C157.784 95.9714 157.355 96.1621 156.974 96.2574C155.687 96.6389 154.352 96.7342 153.017 96.5435C149.87 96.2098 147.057 94.3981 145.484 91.6806C144.483 90.1073 143.577 88.4386 142.814 86.7223C142.337 87.0083 141.908 87.3898 141.622 87.8665C141.384 88.1526 141.193 88.4386 140.955 88.7247C140.812 88.9631 140.478 89.0584 140.24 88.9154C139.906 88.7247 139.954 88.3909 140.097 88.1049C140.478 87.3421 141.003 86.6746 141.622 86.1025C142.099 85.7688 142.242 85.1013 141.908 84.5769C140.955 82.5745 139.906 80.6198 138.809 78.6651C138.476 78.093 138.142 78.093 137.618 78.2837C135.377 78.9988 133.231 79.9523 131.181 81.0965C130.943 81.2396 130.705 81.3826 130.466 81.4779C130.132 81.6686 129.703 81.9547 129.417 81.4779C129.131 81.0012 129.608 80.7628 129.894 80.5244C130.752 79.9523 131.61 79.4279 132.564 79.0465C134.185 78.2837 135.854 77.7116 137.618 77.0441C136.807 75.9476 135.949 75.1371 134.566 75.1371C134.233 75.1371 133.851 75.0894 133.517 75.0894C133.041 75.0417 132.373 75.2801 132.421 74.5173C132.469 73.7545 133.136 74.0405 133.613 74.0405H135.997C137.856 73.9928 139.715 74.1359 141.575 73.7545C143.339 73.3731 145.007 72.7056 146.581 71.7521C145.579 71.3707 144.578 71.1323 143.482 71.0846C142.671 70.9893 141.908 70.9893 141.098 70.8939C140.812 70.8939 140.573 70.7509 140.526 70.4648C140.478 70.1788 140.764 70.0358 141.003 69.9404C141.67 69.7497 142.337 69.7497 143.005 69.845C144.388 69.9404 145.722 70.2265 147.057 70.6079C147.725 70.8462 148.488 70.7509 149.012 70.2741C150.919 68.8439 153.112 67.8903 155.448 67.4613C155.973 67.3182 156.497 67.2706 157.022 67.3182C158.213 67.1275 159.453 67.1275 160.645 67.3182Z" fill="#26292A"/>
<path d="M121.169 67.3182C120.502 66.8892 120.502 66.3171 120.74 65.6019C122.17 61.6448 124.173 58.0691 127.224 55.1132C127.653 54.7318 127.987 54.2551 128.368 53.826C128.845 53.7783 129.179 54.0167 129.703 54.3504C126.223 57.354 123.553 61.1204 121.837 65.3635C121.98 65.6019 122.123 65.6019 122.218 65.5542C125.889 63.9333 129.703 63.9333 133.565 64.553C134.519 64.6961 135.52 64.7914 136.473 64.9821C137.141 65.1252 137.808 64.9821 138.333 64.5054C138.952 63.9809 139.524 63.4565 140.097 62.8844C140.859 62.0739 141.861 61.5018 142.909 61.1681C144.96 60.4529 147.248 61.5018 148.011 63.5519C148.821 65.4112 148.535 65.9833 146.58 66.4601C144.435 66.9368 142.242 66.9845 140.097 66.6508C138.142 66.3647 136.139 66.0787 134.185 65.7449C129.703 64.9821 125.317 65.1252 121.169 67.3182Z" fill="#171819"/>
<path d="M165.889 96.6865C165.889 97.0679 165.937 97.497 165.937 97.8784C165.937 99.9285 165.937 99.9285 164.078 100.882C161.98 101.979 159.835 102.884 157.594 103.6C155.496 104.315 153.351 104.41 151.158 104.41C150.633 104.458 150.204 104.124 150.109 103.6L149.25 100.787C149.346 100.072 149.966 100.215 150.395 100.215C152.111 100.119 153.827 99.7855 155.544 99.6901C159.167 99.4517 162.695 98.4029 165.889 96.6865Z" fill="white"/>
<path d="M145.246 100.024C144.96 100.882 144.483 101.693 143.863 102.408C143.291 103.123 142.957 103.218 142.147 102.837C141.241 102.408 140.335 101.931 139.477 101.406C138.333 100.739 137.284 99.9285 136.14 99.261C135.615 98.9273 135.329 98.6413 135.758 98.0215C136.33 97.0203 136.712 95.9237 136.902 94.7795L139.906 96.9249C141.241 97.8784 142.671 98.6412 144.197 99.261C144.626 99.4517 145.103 99.5471 145.246 100.024ZM147.963 100.262C148.297 101.454 148.678 102.646 149.012 103.838C149.107 104.172 149.25 104.505 149.012 104.839C148.202 105.983 147.582 107.271 146.533 108.272C145.722 109.082 145.579 109.035 145.103 107.986C144.912 107.557 144.769 107.08 144.578 106.651C143.911 105.268 143.434 104.029 145.007 102.837C145.818 102.217 146.152 101.073 146.485 100.072C147.01 100.024 147.486 100.119 147.963 100.262Z" fill="white"/>
<path d="M169.56 65.9356C169.417 68.3194 169.036 69.0346 166.747 67.938C166.08 67.6043 165.365 67.3659 164.602 67.3182C164.125 67.3182 163.792 66.9368 163.792 66.4601C163.792 66.3647 163.792 66.2694 163.839 66.174C164.125 64.9821 164.793 63.9333 165.746 63.2181C166.7 62.4553 168.082 62.5983 168.893 63.5518C169.131 63.8379 169.322 64.2193 169.37 64.6007C169.465 65.1251 169.513 65.6019 169.56 65.9356Z" fill="#363A3B"/>
<path d="M174.614 91.4422C176.33 94.5888 177.57 97.9738 178.285 101.502C178.38 101.931 178.428 102.36 178.428 102.837C178.428 103.17 178.285 103.456 177.904 103.456C177.618 103.456 177.427 103.266 177.379 102.98C177.284 102.551 177.236 102.122 177.141 101.692C176.473 98.4505 175.377 95.3039 173.804 92.348L171.992 89.4398C171.801 89.1061 171.61 88.7723 172.04 88.4863C172.469 88.2002 172.707 88.534 172.898 88.8677L174.614 91.4422Z" fill="#363A3B"/>
<path d="M152.064 51.0608C152.064 51.3468 151.873 51.5375 151.634 51.5375H151.444C151.205 51.4899 150.967 51.3468 150.729 51.2038C150.204 50.8224 149.727 50.441 149.298 50.0119C148.488 49.0584 147.153 48.7723 146.056 49.2968L142.767 50.727C142.576 50.8224 142.385 50.9177 142.195 51.0608C141.861 51.2038 141.48 51.3468 141.289 50.9177C141.098 50.584 141.384 50.298 141.67 50.1549C143.339 49.2491 145.008 48.3433 146.915 47.9618C147.82 47.7711 148.726 48.0095 149.441 48.5816C150.252 49.2014 151.015 49.8689 151.825 50.5363C151.921 50.584 152.064 50.8224 152.064 51.0608Z" fill="#363A3B"/>
<path d="M176.712 86.7223C178.142 87.8665 179.668 88.82 180.907 90.1073C181.193 90.3933 181.432 90.6794 181.67 91.0131C181.813 91.2038 181.765 91.4422 181.622 91.6329C181.479 91.8236 181.241 91.8713 181.05 91.7283C180.716 91.4899 180.43 91.2515 180.144 90.9655C179 89.8689 177.761 88.8677 176.426 87.9619C175.424 87.2467 174.328 86.6746 173.184 86.2455C172.85 86.1502 172.564 85.9595 172.659 85.6258C172.755 85.292 173.136 85.149 173.517 85.2444C174.423 85.4827 175.186 86.0072 176.044 86.3886C176.283 86.4363 176.473 86.5793 176.712 86.7223Z" fill="#363A3B"/>
<path d="M163.553 53.1585C164.554 53.1108 165.508 53.6353 165.985 54.4934C166.271 54.9225 166.7 55.3039 167.177 55.5423C167.51 55.733 167.796 55.9714 167.558 56.4005C167.32 56.8296 166.938 56.6865 166.604 56.5435C166.032 56.3528 165.508 55.9237 165.174 55.3993C164.602 54.3504 163.696 54.2074 162.695 54.3504C162.075 54.4934 161.503 54.6365 160.931 54.8748C160.55 55.0179 160.121 55.2086 159.93 54.6841C159.787 54.2551 160.168 54.0644 160.502 53.9213C161.408 53.4446 162.504 53.2062 163.553 53.1585Z" fill="#363A3B"/>
<path d="M175.758 88.7247C176.187 89.5828 176.95 90.1073 177.474 90.8701C177.808 91.3945 178.237 91.8713 178.523 92.3957C178.762 92.7771 179.286 93.2538 178.714 93.6353C178.142 94.0167 177.856 93.3969 177.617 93.0155C176.95 92.0143 176.187 91.0131 175.329 90.1072C174.757 89.4398 174.089 88.82 173.422 88.2479C173.184 88.0572 172.945 87.7711 173.231 87.4374C173.517 87.1037 173.899 87.199 174.137 87.4851C174.662 87.9618 175.091 88.4863 175.758 88.7247Z" fill="#363A3B"/>
<path d="M166.128 60.596C166.795 60.6436 167.463 60.5483 168.083 60.882C168.369 61.025 168.607 61.2634 168.464 61.6448C168.369 61.8832 168.035 62.0262 167.797 61.9309C167.367 61.7879 166.938 61.7402 166.509 61.7402C165.413 61.5972 164.269 61.8832 163.363 62.503C163.077 62.6937 162.743 62.7891 162.552 62.503C162.362 62.2169 162.505 61.8355 162.838 61.5972C163.744 60.882 164.936 60.5483 166.128 60.596Z" fill="#363A3B"/>
<path d="M144.006 59.4041C143.863 59.4041 143.768 59.4517 143.625 59.4517C143.243 59.5471 142.767 59.6424 142.719 59.0703C142.671 58.6413 143.053 58.4982 143.386 58.4029C144.674 58.1645 145.961 58.4982 146.962 59.3087C147.248 59.4517 147.343 59.8332 147.153 60.0715V60.1192C146.962 60.4529 146.628 60.3576 146.342 60.1669C145.722 59.6901 144.864 59.4517 144.006 59.4041Z" fill="#363A3B"/>
<path d="M160.645 67.3183H157.021C157.975 66.8892 159.024 67.1752 160.12 67.0322C159.882 66.2694 160.168 65.5066 159.834 64.7914C159.739 64.5531 159.882 64.267 160.12 64.1717H160.168C160.454 64.0763 160.74 64.2193 160.836 64.4577C161.265 65.1728 161.265 66.031 160.836 66.6985C160.693 66.9368 160.549 67.0322 160.645 67.3183Z" fill="#363A3B"/>
<path d="M172.516 179.69C172.516 185.697 170.943 191.609 167.94 196.853C165.889 200.381 163.839 203.909 161.503 207.247C160.645 208.439 159.882 209.678 159.215 211.013C158.881 211.776 158.214 212.396 157.451 212.729C153.732 214.35 149.918 215.638 146.009 216.544C144.483 216.877 143.959 216.591 143.243 215.161C142.719 214.112 142.242 213.111 141.718 212.062C139.763 207.962 137.093 204.243 133.899 201.049C130.371 197.569 126.938 194.088 123.649 190.37C121.217 187.604 119.215 184.601 118.404 180.93C118.023 179.213 117.689 177.449 117.308 175.733C117.212 175.209 117.499 175.113 117.832 174.97C118.833 174.589 119.835 174.207 120.788 173.826C121.074 173.731 121.36 173.588 121.599 173.397C121.789 173.302 121.885 173.016 121.789 172.825C121.694 172.634 121.503 172.491 121.265 172.491C120.836 172.491 120.407 172.634 119.978 172.825C117.737 173.635 115.544 174.732 113.208 175.256C107.725 176.496 102.481 176.019 97.6177 172.872C93.2792 170.06 88.9884 167.151 84.2685 164.911C79.93 162.813 75.2578 161.573 70.4425 161.287C68.2971 161.144 66.1994 161.001 64.0539 160.858C62.9097 160.763 62.8144 160.667 62.7667 159.619C62.6237 157.521 62.576 155.471 62.433 153.373C62.2899 152.277 62.8144 151.228 63.7679 150.703C65.0551 149.94 66.0563 148.701 66.9622 147.509C68.8692 144.934 70.5378 142.217 72.0158 139.404C73.6845 136.257 75.4008 133.063 77.5939 130.203C79.3102 127.962 81.2649 125.912 83.458 124.195C85.9848 122.288 88.9884 121.097 92.135 120.811C95.2816 120.429 94.5665 120.429 96.4735 122.622C97.4747 123.766 98.2852 125.006 99.191 126.246C100.478 127.914 101.909 129.535 103.386 131.013C104.674 132.491 106.676 133.111 108.583 132.729C109.394 132.586 110.252 132.586 111.11 132.491C111.539 132.396 111.968 132.586 112.159 132.968C114.495 137.02 117.832 140.072 121.456 142.932C125.889 146.412 130.752 149.273 135.568 152.229C137.618 153.468 139.715 154.613 141.718 155.9C143.72 157.187 145.913 157.521 148.202 157.521C152.254 157.569 156.259 157.426 160.311 157.092C161.599 156.996 161.551 156.996 161.932 158.188C162.457 159.809 162.838 161.526 162.981 163.242C163.077 165.006 164.03 166.627 165.556 167.533C167.272 168.725 168.798 170.155 170.466 171.395C171.325 171.967 171.849 172.92 171.897 173.921C172.326 175.876 172.469 177.783 172.516 179.69ZM106.056 59.9762C106.533 60.9297 106.533 61.9309 107.058 62.7414C107.248 63.0751 107.01 63.2181 106.819 63.4088C100.002 68.9392 92.7071 73.6591 83.8871 75.3755C83.5533 75.4231 83.1243 75.8045 82.7905 75.3278C82.4568 74.851 82.2661 74.2789 82.2661 73.7068C82.3138 73.3254 82.6952 73.3254 83.0289 73.2777C85.079 72.8963 86.986 72.0381 88.9407 71.2753C90.9431 70.4648 92.8501 69.416 94.6141 68.1287C97.6177 65.9833 100.812 64.1716 103.72 61.9309C104.435 61.3111 105.198 60.6913 106.056 59.9762Z" fill="white"/>
<path d="M171.229 170.489C170.705 170.06 170.18 169.678 169.704 169.249C168.798 168.439 167.797 167.676 166.748 166.961C165.27 166.007 164.316 164.768 164.173 162.861C164.03 161.144 163.649 159.428 163.077 157.807C162.981 157.521 162.934 157.235 162.934 156.949L169.322 156.091C169.751 160.906 170.562 165.626 171.229 170.489Z" fill="white"/>
<path d="M193.064 80.9535C193.398 82.1454 193.732 83.2896 194.066 84.4338C195.591 89.6305 196.974 94.8748 197.975 100.167C198.213 101.359 198.309 102.551 198.547 103.695C198.69 104.076 198.5 104.505 198.166 104.744C197.784 105.03 197.403 105.316 196.879 105.697C196.402 103.933 195.925 102.265 195.496 100.596C194.113 95.0655 192.778 89.4875 191.205 84.0048C191.062 83.528 190.871 83.0989 190.728 82.6222C190.442 81.7163 190.585 81.5256 191.444 81.3349C191.968 81.1919 192.445 81.0965 193.064 80.9535ZM111.396 131.442C110.061 131.538 108.964 131.585 107.868 131.776C106.724 131.919 105.532 131.538 104.721 130.632C103.434 129.44 102.242 128.105 101.098 126.77C99.7153 125.054 98.5234 123.147 97.0454 121.478C97.6175 121.287 97.9989 121.621 98.3803 121.764C99.8583 122.431 101.336 123.194 102.767 123.957C104.769 125.054 106.771 126.246 109.107 126.627C109.346 126.675 109.584 126.865 109.632 127.104C110.204 128.486 110.776 129.869 111.396 131.442ZM143.196 132.968C143.1 133.635 143.053 134.064 143.005 134.446C142.767 136.162 142.242 136.496 140.573 136.4C138.905 136.305 137.331 135.971 135.71 135.781C135.281 135.781 134.9 135.447 134.852 134.97C134.709 133.921 134.757 132.825 134.995 131.824C135.091 131.347 135.377 131.204 135.854 131.299C137.999 131.633 140.144 131.919 142.29 132.205C143.005 132.3 143.386 132.491 143.196 132.968ZM135.71 130.06C136.14 128.582 136.712 127.104 137.379 125.673C137.522 125.34 137.808 125.387 138.047 125.387C139.763 125.673 141.432 125.912 143.148 126.198C143.386 126.198 143.529 126.389 143.529 126.627C143.434 127.962 143.339 129.297 143.243 130.584C143.196 130.965 142.91 130.965 142.623 130.918L135.71 130.06Z" fill="white"/>
<path d="M138.047 124.195C138.333 123.004 138.905 122.05 139.286 121.049C139.429 120.715 139.668 120.62 140.049 120.667C141.146 120.811 142.242 121.001 143.339 121.097C143.911 121.144 144.102 121.383 144.054 121.955C143.959 122.765 143.863 123.623 143.768 124.482C143.72 124.958 143.482 125.006 143.053 124.958C141.432 124.815 139.811 124.529 138.047 124.195ZM140.049 119.476C140.478 118.284 141.003 117.092 141.575 115.9C141.67 115.709 141.765 115.518 142.052 115.471C142.862 115.471 143.625 115.566 144.388 115.757C144.674 115.805 144.626 116.091 144.626 116.281L144.34 119.428C144.292 119.857 144.054 119.905 143.672 119.857C142.481 119.809 141.289 119.666 140.049 119.476ZM135.234 136.877L140.288 137.64C139.191 138.784 137.999 139.881 136.712 140.834C136.044 139.642 135.568 138.308 135.234 136.877ZM142.385 114.327C142.91 112.706 143.816 111.371 144.531 109.988C144.578 109.893 144.674 109.75 144.817 109.797C144.96 109.845 145.103 109.94 145.246 110.083C145.293 110.179 145.341 110.322 145.293 110.465C145.055 111.8 145.198 113.182 144.769 114.613L142.385 114.327Z" fill="white"/>
<path d="M126.748 83.0036C126.986 82.8129 126.986 83.0036 126.986 83.1466L126.748 83.0036Z" fill="#F57A54"/>
<path d="M173.613 222.122C173.66 222.169 173.66 222.217 173.66 222.312C173.279 222.217 172.85 222.217 172.516 221.883V221.597C172.85 221.835 173.374 221.692 173.613 222.122ZM173.851 222.36C174.089 222.312 174.28 222.408 174.423 222.598C174.232 222.646 173.994 222.551 173.851 222.36ZM175.234 222.122C175.138 222.265 174.9 222.312 174.757 222.217C174.709 222.217 174.709 222.169 174.662 222.122H175.234Z" fill="#DD5125"/>
<path d="M163.553 120.191C163.839 120.238 164.078 120.429 164.173 120.667C165.079 122.241 165.699 123.957 166.032 125.721C166.128 126.007 165.985 126.341 165.699 126.436H165.651C165.269 126.532 165.079 126.293 164.983 125.959C164.888 125.626 164.84 125.34 164.745 125.054C164.411 123.671 163.934 122.336 163.219 121.097C163.076 120.858 162.933 120.524 163.219 120.238C163.362 120.286 163.458 120.238 163.553 120.191Z" fill="#363A3B"/>
<path d="M116.545 111.037C116.02 111.085 115.496 110.989 114.971 110.846C114.733 110.751 114.495 110.608 114.495 110.274C114.542 109.845 114.876 109.797 115.162 109.845C116.259 110.036 117.355 109.988 118.452 109.654C118.881 109.511 119.262 109.368 119.691 109.225C119.977 109.082 120.311 109.178 120.454 109.464C120.597 109.845 120.359 110.083 120.073 110.179C118.976 110.751 117.784 111.037 116.545 111.037Z" fill="#363A3B"/>
<path d="M149.775 71.2276C151.015 70.2265 152.445 69.5113 153.971 68.9869C154.304 68.8915 154.686 68.9392 154.972 69.1299C158.976 70.7509 161.837 73.4684 163.363 77.5209C163.649 78.2837 163.839 79.1418 164.364 79.8093C164.602 80.143 164.602 80.5721 164.412 80.9535C164.269 81.3826 164.078 81.764 163.935 82.1931C163.792 82.4791 163.696 82.8129 164.078 83.0036C164.507 83.242 164.745 82.9559 164.936 82.6222C165.222 82.0977 165.413 81.5733 165.556 81.0012C165.603 80.5244 165.937 80.0954 166.414 80C167.749 79.6186 168.798 78.6174 169.942 77.9499C170.371 78.1406 170.228 78.4744 170.228 78.7604C170.276 79.9523 170.276 81.1442 170.133 82.3361C169.942 84.1478 169.084 85.8641 167.749 87.1514C167.081 87.8665 166.176 88.3433 165.222 88.534C164.698 88.6293 164.316 88.6293 164.316 88.0095C164.316 87.8665 164.269 87.7235 164.221 87.6281C163.601 85.435 162.266 84.3862 159.93 84.3862C158.786 84.3862 157.642 84.4338 156.497 84.5769C153.732 84.9583 151.062 84.7676 148.869 82.8605C148.726 82.7175 148.488 82.6222 148.44 82.2884C149.346 81.7163 150.347 81.2872 151.444 81.0489C152.636 80.7151 153.875 80.4768 155.067 80.143C155.353 80.0954 155.687 80 155.973 79.9046C156.164 79.857 156.259 79.6663 156.259 79.4756C156.259 79.2372 156.068 79.0465 155.83 78.9988C155.592 78.9511 155.401 78.9988 155.162 79.0465C152.874 79.4756 150.538 79.9523 148.392 80.9535C147.344 81.4303 147.344 81.4303 146.676 80.5721C146.533 80.3814 146.438 80.2384 146.247 80.0477C146.581 79.5709 147.105 79.5709 147.534 79.4756C149.06 79.0942 150.633 78.7604 152.207 78.379C152.445 78.3313 152.636 78.3313 152.874 78.236C153.16 78.1406 153.446 77.9499 153.351 77.5685C153.255 77.2348 152.969 77.1871 152.731 77.2348C152.445 77.2348 152.207 77.2825 151.92 77.3302C149.966 77.6639 148.011 78.1406 146.104 78.6651C145.627 78.9035 145.007 78.7604 144.769 78.236C144.435 77.7116 143.911 77.3302 143.673 76.758C143.911 76.472 144.245 76.472 144.531 76.4243C147.058 75.9476 149.632 75.8522 152.207 76.1383C152.493 76.1859 152.826 76.1859 153.16 76.1859C153.398 76.1859 153.637 76.1383 153.684 75.8522C153.78 75.5662 153.589 75.3278 153.303 75.2324C153.065 75.1847 152.779 75.1371 152.54 75.0894C149.441 74.6603 146.342 74.8033 143.291 75.5185C142.814 75.7092 142.242 75.5185 142.004 74.994C142.195 74.708 142.528 74.7557 142.767 74.6603C144.435 74.1836 146.009 73.4684 147.487 72.5626C148.011 72.1812 148.679 72.1335 149.203 72.3719C151.777 73.3254 154.257 74.2789 156.211 76.329C156.45 76.5673 156.688 76.758 157.022 76.472C157.26 76.2336 157.26 75.8999 157.022 75.6615C156.688 75.2801 156.354 74.9464 155.973 74.6603C154.447 73.4684 152.779 72.5626 151.015 71.8951C150.586 71.7044 150.109 71.6567 149.775 71.2276Z" fill="#F35929"/>
<path d="M154.638 92.4434C155.687 90.2026 155.639 88.1049 154.924 85.8165C156.545 85.7211 158.023 85.3874 159.644 85.5304C159.596 87.3421 159.072 89.0584 158.166 90.5841C157.927 90.9655 157.26 91.4899 157.975 91.919C158.595 92.2527 158.833 91.5376 159.119 91.1085C160.025 89.6782 160.549 88.0572 160.645 86.3409C160.693 85.5304 160.883 85.4351 161.598 85.7688C162.838 86.3886 163.219 87.5805 162.457 88.82C161.551 90.298 160.311 91.3945 159.119 92.5388C158.881 92.7771 158.595 92.8725 158.261 92.8725C157.021 92.9678 155.83 92.7771 154.638 92.4434Z" fill="white"/>
<path d="M139.62 77.8069C139.715 77.7116 139.763 77.6639 139.858 77.6162C142.385 76.758 142.481 76.758 144.006 79.2372C143.577 79.5709 143.148 79.857 142.767 80.1907C142.528 80.3337 142.433 80.6675 142.576 80.9058C142.767 81.2396 143.053 81.2396 143.387 81.0489L143.625 80.9058C144.912 80.2384 145.437 80.3814 146.104 81.6687C146.247 81.907 146.247 82.0977 146.056 82.2408C145.103 82.9559 144.197 83.7187 143.243 84.4339L143.005 84.1955C141.956 81.9547 140.86 79.857 139.62 77.8069Z" fill="#F57A54"/>
<path d="M141.098 75.9476C138.428 76.9488 138.952 76.8057 137.713 75.1848C138.905 75.0894 140.049 74.7557 141.098 75.9476Z" fill="#F57A54"/>
<path d="M167.558 74.2789L167.415 73.7545L167.51 73.6591C167.606 73.6591 167.701 73.7068 167.749 73.7545C167.844 73.8498 167.892 73.9452 167.939 74.0405C168.273 74.6126 168.416 75.2801 168.464 75.9476C168.464 76.1859 168.321 76.3766 168.082 76.3766H168.035C167.796 76.3766 167.749 76.1859 167.749 76.0429C167.701 75.7092 167.701 75.3278 167.701 74.994C167.653 74.708 167.606 74.4696 167.558 74.2789Z" fill="white"/>
<path d="M167.177 73.1824C167.034 73.087 166.89 72.8963 167.081 72.8486C167.272 72.801 167.415 72.9917 167.463 73.1824C167.415 73.3254 167.32 73.3254 167.177 73.1824Z" fill="#363A3B"/>
<path d="M167.177 73.1824H167.463C167.51 73.2301 167.51 73.3254 167.463 73.3731C167.51 73.4684 167.558 73.6115 167.51 73.7545L167.463 73.8022L167.415 73.7545C167.177 73.6115 167.177 73.3731 167.177 73.1824Z" fill="#5E6162"/>
<path d="M167.558 74.2789C167.749 74.4219 167.796 74.708 167.701 74.9464C167.558 74.708 167.51 74.4696 167.558 74.2789ZM167.939 73.9929C167.844 73.9452 167.749 73.8498 167.749 73.7068C167.892 73.7545 167.939 73.8498 167.939 73.9929Z" fill="white"/>
<path d="M167.558 73.7545L167.511 73.3731C167.654 73.4207 167.749 73.5638 167.797 73.7545H167.558ZM139.239 65.3635C141.003 63.7902 142.29 61.8355 145.198 62.2646C144.149 63.1704 143.625 64.0763 143.673 65.2682C143.72 65.7449 143.339 65.7449 143.053 65.7449C141.766 65.7449 140.478 65.6496 139.239 65.3635ZM166.986 64.4577C166.605 64.8868 166.319 65.3635 166.176 65.9356C166.08 66.4601 165.699 66.3647 165.365 66.2694C164.888 66.1263 165.127 65.7926 165.27 65.5542C165.508 64.9821 165.937 64.5054 166.462 64.1716C166.748 63.9809 166.986 63.9333 166.986 64.4577Z" fill="white"/>
<path d="M166.986 64.4577C166.938 64.124 166.652 64.1716 166.414 64.1716C166.747 63.7426 167.129 63.8379 167.558 63.9333C167.462 64.1716 167.272 64.3623 166.986 64.4577Z" fill="#787B7C"/>
<path d="M64.7214 128.868C64.626 138.927 55.5676 144.887 46.7476 141.311C44.0301 140.215 41.551 138.546 39.5486 136.4C34.638 131.251 34.781 123.147 39.93 118.188C43.315 114.946 48.1779 113.802 52.6594 115.185C53.8036 115.471 54.9479 115.852 56.0444 116.329C61.5271 119.046 64.4353 123.48 64.7214 128.868Z" fill="#26292A"/>
<path d="M48.8928 139.261C42.838 139.404 37.3553 134.303 37.2123 128.01C36.9262 121.526 41.9798 116.043 48.4637 115.805C54.9477 115.566 60.4304 120.572 60.6688 127.056C60.9548 133.54 55.9012 139.023 49.4173 139.261H48.8928ZM61.0978 131.967C61.7176 132.11 61.956 132.491 62.3851 132.634C63.1002 132.872 63.0049 133.349 62.7665 133.874C61.956 135.733 62.1944 135.495 60.5734 134.398C60.2874 134.255 60.1443 133.921 60.2874 133.635C60.2874 133.588 60.335 133.54 60.3827 133.492C60.6211 133.063 60.8595 132.539 61.0978 131.967ZM63.1956 131.776C61.3839 130.918 61.3839 130.918 61.813 128.677C63.7677 129.344 63.9107 130.203 63.1956 131.776ZM58.6187 136.257C58.8094 135.781 59.1431 135.399 59.5245 135.066C59.9536 135.256 60.3827 135.495 60.7164 135.828C61.1455 136.067 61.2885 136.639 61.0025 137.068C60.8595 137.259 60.7164 137.402 60.4781 137.449C60.2397 137.545 60.049 137.402 59.9059 137.259C59.4769 136.973 59.0478 136.591 58.6187 136.257ZM63.3386 127.962C62.1944 127.676 61.6223 127.008 61.7176 125.864C61.7653 125.483 61.4792 125.101 61.6223 124.72C62.9095 125.054 63.2433 125.673 63.3386 127.962ZM56.664 137.926C56.8547 137.735 57.0931 137.592 57.2838 137.402C57.6652 136.973 58.0466 137.02 58.3803 137.402C58.5233 137.545 58.7141 137.688 58.8571 137.831C59.0001 137.974 59.5722 138.164 59.2385 138.641C59.0001 139.118 58.428 139.261 57.9512 139.023C57.9036 138.975 57.8559 138.975 57.8082 138.927C57.4745 138.641 57.1407 138.308 56.664 137.926ZM54.3279 139.404C55.8535 138.403 55.8535 138.403 57.1407 139.928C55.5674 140.882 55.7105 140.644 54.3279 139.404ZM51.7057 140.215C52.7069 139.642 53.5174 139.785 54.1372 140.834C52.8022 141.406 52.5162 141.359 51.7057 140.215ZM60.6688 121.383L61.5269 122.527C61.67 122.718 61.7653 122.908 61.7653 123.147C61.3839 123.337 61.1455 123.147 60.9548 122.813C60.7164 122.336 60.5257 121.859 60.335 121.383C60.3827 121.287 60.5257 121.24 60.6211 121.335C60.6211 121.383 60.6211 121.383 60.6688 121.383ZM48.7975 140.691C49.9417 140.358 49.9417 140.358 50.4185 141.025C49.894 141.025 49.3219 140.93 48.7975 140.691ZM59.7629 120.62C59.6199 120.477 59.3338 120.334 59.5722 120.191C59.8106 120.048 59.9536 120.381 60.0966 120.62C60.049 120.715 59.9059 120.763 59.8106 120.715C59.8106 120.667 59.8106 120.667 59.7629 120.62Z" fill="#FECA39"/>
<path d="M60.6687 121.383H60.335C60.1919 121.383 60.1443 121.24 60.1443 121.144C60.0489 121.049 60.0489 120.906 60.1443 120.81L60.1919 120.763C60.3826 120.906 60.5733 121.144 60.6687 121.383Z" fill="#FECA39"/>
<path d="M60.1446 120.811C60.1446 120.906 60.1446 121.049 60.0969 121.144C59.9539 121.001 59.8109 120.811 59.7632 120.572H60.0969C60.1446 120.667 60.1446 120.763 60.1446 120.811Z" fill="#FECA39"/>
<path d="M45.1743 129.63C44.6022 129.249 44.0301 128.82 43.5057 128.343C43.1243 127.962 42.8382 127.485 42.7429 126.961C42.5998 125.864 43.3627 125.244 44.3638 125.626C44.6976 125.721 44.8883 125.959 44.8883 126.293C44.8406 126.722 44.5545 126.77 44.2208 126.722C44.0778 126.722 43.9824 126.675 43.8871 126.961C44.2685 127.628 44.8406 128.153 45.5557 128.439C45.7941 128.582 46.0802 128.534 46.2709 128.296C46.4616 128.105 46.6046 127.866 46.7953 127.676C47.8919 126.293 47.8919 126.293 47.0337 124.768C46.7476 124.338 46.5569 123.862 46.3662 123.337C45.9371 121.859 46.7476 120.858 48.2733 120.906C48.9884 120.906 49.7035 121.001 50.371 121.287C50.8954 121.526 51.3245 121.669 51.7059 121.001C51.849 120.715 52.2304 120.429 52.6118 120.763C52.8501 121.001 52.8978 121.383 52.6594 121.621L52.5641 121.716C52.0397 122.241 52.3257 122.622 52.7071 123.051C53.1362 123.48 53.4699 124.052 53.613 124.672C53.756 125.626 53.0408 126.341 52.2304 126.055C51.849 125.912 51.4675 125.673 51.5152 125.197C51.5629 124.72 51.992 124.72 52.3257 124.672C52.3257 124.386 52.1827 124.148 51.992 123.957C51.849 123.766 51.7059 123.623 51.5152 123.385C50.7047 124.1 50.2756 125.006 49.6559 125.769C49.3698 126.15 49.5605 126.436 49.7512 126.722C50.1326 127.247 50.371 127.914 50.4187 128.582C50.4187 129.821 49.7989 130.489 48.5593 130.441C48.0349 130.441 47.5105 130.346 46.986 130.155C46.5569 129.964 46.0802 130.107 45.8418 130.536C45.5557 130.918 45.222 131.299 44.8883 131.633C44.6976 131.824 44.4115 131.824 44.2208 131.681L44.1731 131.633C43.9824 131.49 43.9824 131.204 44.1255 131.013C44.4115 130.632 44.7453 130.203 45.1743 129.63Z" fill="#363A3B"/>
<path d="M48.702 125.197C48.1299 124.577 47.7008 123.814 47.4625 123.004C47.3194 122.527 47.5101 122.241 48.0346 122.193H48.9881C50.5137 122.336 50.6091 122.575 49.7509 123.814C49.4172 124.243 49.0834 124.672 48.702 125.197ZM48.5113 127.342C48.702 127.533 48.7974 127.58 48.7974 127.676C49.0358 128.2 49.5125 128.772 48.9881 129.249C48.4637 129.726 47.7485 129.487 47.0811 129.106L48.5113 127.342Z" fill="#FECA39"/>
<path d="M109.06 17.1633C108.964 27.2229 99.906 33.1824 91.086 29.6067C88.3685 28.5101 85.8893 26.8415 83.8869 24.6961C78.9763 19.5471 79.1194 11.4422 84.2684 6.48391C87.6533 3.24196 92.5163 2.09774 96.9978 3.48033C98.142 3.76639 99.2862 4.1478 100.383 4.62455C105.865 7.34208 108.774 11.8236 109.06 17.1633Z" fill="#26292A"/>
<path d="M93.2312 27.5566C87.1764 27.6996 81.6937 22.5983 81.5506 16.3051C81.2646 9.82122 86.3182 4.3385 92.8021 4.10012C99.286 3.86174 104.769 8.8677 105.007 15.3516C105.246 21.8355 100.24 27.3182 93.7556 27.5566H93.2312ZM105.436 20.2622C106.056 20.4052 106.342 20.7867 106.723 20.9297C107.439 21.1681 107.343 21.6448 107.105 22.1693C106.294 24.0286 106.533 23.7902 104.912 22.6937C104.626 22.5507 104.483 22.2169 104.626 21.9309C104.626 21.8832 104.673 21.8355 104.721 21.7878C104.959 21.3588 105.198 20.8343 105.436 20.2622ZM107.534 20.0715C105.722 19.2134 105.722 19.2134 106.151 16.9726C108.106 17.6401 108.249 18.4982 107.534 20.0715ZM102.957 24.553C103.148 24.0763 103.482 23.6949 103.863 23.3611C104.292 23.5519 104.721 23.7902 105.055 24.124C105.484 24.3623 105.627 24.9345 105.341 25.3635C105.198 25.5542 105.055 25.6973 104.816 25.7449C104.578 25.8403 104.387 25.6973 104.244 25.5542C103.815 25.2682 103.386 24.8868 102.957 24.553ZM107.677 16.2575C106.533 15.9237 105.961 15.3039 106.056 14.1597C106.104 13.7783 105.818 13.3969 105.961 13.0155C107.248 13.3492 107.629 13.969 107.677 16.2575ZM101.002 26.2217C101.193 26.031 101.431 25.888 101.622 25.6973C102.004 25.2682 102.385 25.3159 102.719 25.6973C102.862 25.8403 103.052 25.9833 103.195 26.1263C103.386 26.3647 103.911 26.4601 103.577 26.9368C103.338 27.4136 102.766 27.5566 102.29 27.3182C102.242 27.2706 102.194 27.2706 102.147 27.2229C101.813 26.9368 101.479 26.6031 101.002 26.2217ZM98.6662 27.652C100.192 26.6508 100.192 26.6508 101.479 28.1764C99.9058 29.1776 100.097 28.9869 98.6662 27.652ZM96.0441 28.5101C97.0453 27.938 97.8558 28.0811 98.4755 29.1299C97.1406 29.702 96.8546 29.6544 96.0441 28.5101ZM105.007 9.72587L105.865 10.8701C106.008 11.0608 106.104 11.2515 106.104 11.4899C105.722 11.6806 105.436 11.4899 105.293 11.1561C105.055 10.6794 104.864 10.2026 104.673 9.72587C104.721 9.63051 104.864 9.58284 104.959 9.67819C104.959 9.67819 105.007 9.67819 105.007 9.72587ZM93.1359 28.9869C94.2801 28.6532 94.2801 28.6532 94.7568 29.3206C94.2324 29.3206 93.6603 29.2253 93.1359 28.9869ZM104.101 8.91538C103.958 8.77235 103.672 8.62932 103.911 8.4863C104.149 8.34327 104.34 8.677 104.435 8.91538C104.387 9.01073 104.244 9.0584 104.149 9.01073C104.149 8.96305 104.149 8.96305 104.101 8.91538Z" fill="#FECA39"/>
<path d="M105.007 9.72586H104.673C104.53 9.72586 104.483 9.58284 104.483 9.48749C104.387 9.39213 104.387 9.24911 104.483 9.15376L104.53 9.10608C104.721 9.20143 104.912 9.43981 105.007 9.72586Z" fill="#FECA39"/>
<path d="M104.483 9.10608C104.483 9.24911 104.435 9.34446 104.435 9.43981C104.245 9.29678 104.149 9.10608 104.102 8.8677H104.435C104.483 8.96305 104.483 9.0584 104.483 9.10608Z" fill="#FECA39"/>
<path d="M89.5127 17.9261C88.9406 17.5447 88.3685 17.1156 87.8441 16.6389C87.4626 16.2575 87.1766 15.7807 87.0812 15.2563C86.9382 14.1597 87.701 13.5399 88.7022 13.9213C88.9883 14.0644 89.2743 14.2551 89.2267 14.5888C89.179 14.9225 88.8929 15.0656 88.5592 15.0179C88.4162 15.0179 88.3208 14.9702 88.2255 15.2563C88.6069 15.9237 89.179 16.4482 89.8941 16.7342C90.1325 16.8772 90.4185 16.8296 90.5616 16.6389C90.7523 16.4482 90.8953 16.2098 91.086 16.0191C92.1826 14.6365 92.1826 14.6365 91.3244 13.1108C91.0383 12.6818 90.8476 12.1573 90.6569 11.6806C90.2278 10.2026 91.0383 9.20143 92.564 9.24911C93.2791 9.24911 93.9942 9.34446 94.6617 9.63051C95.1861 9.86889 95.6152 10.0119 95.9966 9.34446C96.1873 9.0584 96.5211 8.77235 96.9025 9.10608C97.1408 9.34446 97.1885 9.72587 96.9501 9.96424L96.8548 10.0596C96.3304 10.584 96.6164 10.9654 96.9978 11.3945C97.4269 11.8236 97.7606 12.3957 97.9037 13.0155C98.0467 13.969 97.3315 14.6842 96.5211 14.3981C96.1396 14.2551 95.7582 14.0167 95.8059 13.5399C95.8536 13.0632 96.2827 13.0632 96.6164 13.0155C96.6164 12.7294 96.4734 12.4911 96.3304 12.3004C96.1873 12.1097 96.0443 11.9666 95.8536 11.7759C95.0431 12.4911 94.614 13.3969 93.9942 14.1597C93.7082 14.4934 93.8989 14.8272 94.0896 15.1132C94.471 15.6377 94.7094 16.3051 94.757 16.9726C94.757 18.2598 94.1373 18.8796 92.8977 18.8319C92.3733 18.8319 91.8488 18.7366 91.3244 18.5459C90.943 18.3075 90.4186 18.4505 90.1802 18.8796C89.8941 19.261 89.5604 19.6424 89.2267 19.9762C89.036 20.1669 88.7499 20.1669 88.5592 20.0238L88.5115 19.9762C88.3208 19.8331 88.3208 19.5471 88.4638 19.3564C88.7499 18.9273 89.0836 18.4982 89.5127 17.9261Z" fill="#363A3B"/>
<path d="M93.0409 13.4923C92.4688 12.8725 92.0397 12.1097 91.8013 11.2515C91.6583 10.7747 91.849 10.441 92.3734 10.441H93.2793C94.8049 10.584 94.9003 10.8224 94.0421 12.062C93.756 12.5387 93.4223 12.9678 93.0409 13.4923ZM92.8502 15.6377C93.0409 15.8284 93.1363 15.876 93.1363 15.9714C93.3746 16.4958 93.8514 17.0679 93.327 17.5447C92.8025 18.0215 92.0874 17.7831 91.4199 17.4017L92.8502 15.6377Z" fill="#FECA39"/>
<path d="M219.048 37.8069C218.953 47.9142 209.894 53.826 201.074 50.298C198.357 49.2014 195.878 47.5328 193.875 45.3874C188.965 40.2384 189.108 32.0858 194.257 27.1752C197.642 23.9333 202.505 22.789 206.938 24.1716C208.083 24.4577 209.227 24.8391 210.323 25.3159C215.854 27.9857 218.714 32.4196 219.048 37.8069Z" fill="#26292A"/>
<path d="M203.219 48.2002C197.165 48.3433 191.682 43.242 191.539 36.9488C191.253 30.4649 196.306 24.9821 202.79 24.7438C209.274 24.4577 214.757 29.5113 214.995 35.9952C215.234 42.4792 210.228 47.9619 203.744 48.2002H203.219ZM215.424 40.9059C216.044 41.0489 216.283 41.4303 216.712 41.5733C217.427 41.8594 217.332 42.2885 217.093 42.8129C216.283 44.6722 216.521 44.4339 214.9 43.3373C214.614 43.1943 214.471 42.8606 214.614 42.5745C214.614 42.5268 214.662 42.4792 214.709 42.4315C214.948 42.0024 215.186 41.478 215.424 40.9059ZM217.522 40.7151C215.711 39.857 215.711 39.857 216.14 37.6162C218.094 38.2837 218.237 39.1418 217.522 40.7151ZM212.945 45.1967C213.136 44.7199 213.47 44.3385 213.851 44.0048C214.28 44.1955 214.709 44.4339 215.043 44.7676C215.472 45.006 215.615 45.5781 215.329 46.0072C215.186 46.1979 215.043 46.3409 214.805 46.3886C214.566 46.4839 214.376 46.3409 214.233 46.1979C213.804 45.9118 213.374 45.5304 212.945 45.1967ZM217.665 36.9011C216.521 36.615 215.949 35.9476 216.044 34.8033C216.092 34.4219 215.806 34.0405 215.949 33.6591C217.236 33.9929 217.57 34.6126 217.665 36.9011ZM210.991 46.8653C211.181 46.6746 211.42 46.5316 211.61 46.3409C211.992 45.9118 212.326 45.9595 212.707 46.3409C212.85 46.4839 213.041 46.6269 213.184 46.77C213.327 46.913 213.899 47.1037 213.565 47.5805C213.327 48.0572 212.755 48.2002 212.278 47.9619C212.23 47.9142 212.183 47.9142 212.135 47.8665C211.801 47.5805 211.467 47.2467 210.991 46.8653ZM208.655 48.2956C210.18 47.2944 210.18 47.2944 211.467 48.82C209.894 49.8212 210.037 49.5828 208.655 48.2956ZM206.032 49.1538C207.034 48.5817 207.844 48.7247 208.464 49.7736C207.129 50.3457 206.843 50.2503 206.032 49.1538ZM214.995 30.3695L215.854 31.5137C215.997 31.7044 216.092 31.8951 216.092 32.1335C215.711 32.3242 215.424 32.1335 215.281 31.7998C215.043 31.323 214.852 30.8463 214.662 30.3695C214.709 30.2741 214.852 30.2265 214.948 30.3218L214.995 30.3695ZM203.124 49.6305C204.268 49.2968 204.268 49.2968 204.793 49.9643C204.221 49.9643 203.649 49.8689 203.124 49.6305ZM214.09 29.559C213.947 29.416 213.66 29.273 213.899 29.1299C214.137 28.9869 214.328 29.3206 214.423 29.559C214.376 29.6544 214.233 29.702 214.137 29.6544C214.137 29.6067 214.09 29.6067 214.09 29.559Z" fill="#FECA39"/>
<path d="M214.995 30.3695H214.662C214.519 30.3695 214.471 30.2265 214.471 30.1311C214.376 30.0358 214.376 29.8927 214.471 29.7974L214.519 29.7497C214.709 29.8451 214.9 30.0834 214.995 30.3695Z" fill="#FECA39"/>
<path d="M214.471 29.7497C214.471 29.8451 214.471 29.9881 214.424 30.0834C214.281 29.9404 214.138 29.7497 214.09 29.5113H214.424C214.471 29.6067 214.471 29.702 214.471 29.7497Z" fill="#FECA39"/>
<path d="M199.501 38.5697C198.928 38.1883 198.356 37.7592 197.832 37.2825C197.45 36.9011 197.164 36.4243 197.069 35.8999C196.926 34.8033 197.689 34.1836 198.69 34.6126C198.976 34.708 199.214 34.9464 199.214 35.2801C199.167 35.7092 198.881 35.7569 198.547 35.7092C198.404 35.7092 198.309 35.6615 198.213 35.9476C198.595 36.615 199.167 37.1395 199.882 37.4255C200.12 37.5685 200.406 37.5209 200.597 37.2825C200.788 37.0918 200.931 36.8534 201.121 36.6627C202.218 35.2801 202.218 35.2801 201.36 33.7545C201.074 33.3254 200.883 32.801 200.692 32.3242C200.263 30.8463 201.074 29.8451 202.599 29.8927C203.315 29.8927 204.03 29.9881 204.697 30.2741C205.222 30.5125 205.651 30.6556 206.032 29.9881C206.223 29.702 206.557 29.416 206.938 29.7497C207.176 29.9881 207.224 30.3695 206.986 30.6079L206.89 30.7032C206.366 31.2277 206.652 31.6091 207.033 32.0381C207.462 32.4672 207.748 33.0393 207.891 33.6591C208.034 34.6126 207.319 35.3278 206.509 35.0417C206.127 34.8987 205.746 34.6603 205.794 34.1836C205.841 33.7068 206.27 33.7068 206.604 33.6591C206.604 33.3731 206.461 33.1347 206.27 32.944C206.127 32.7533 205.984 32.6103 205.794 32.3719C204.983 33.087 204.554 33.9929 203.934 34.7557C203.648 35.0894 203.839 35.4231 204.03 35.7092C204.411 36.2336 204.649 36.9011 204.697 37.5685C204.697 38.8558 204.077 39.4756 202.838 39.4279C202.313 39.4279 201.789 39.3325 201.265 39.1418C200.835 38.9035 200.359 39.0942 200.12 39.4756C199.834 39.857 199.501 40.2384 199.167 40.5721C198.976 40.7628 198.69 40.7628 198.499 40.6198L198.452 40.5721C198.261 40.4291 198.261 40.143 198.404 39.9523C198.69 39.5709 199.071 39.1418 199.501 38.5697Z" fill="#363A3B"/>
<path d="M202.981 34.1359C202.409 33.5161 201.98 32.7533 201.741 31.9428C201.598 31.466 201.789 31.1323 202.314 31.1323C202.6 31.0846 202.933 31.0846 203.267 31.1323C204.793 31.2753 204.888 31.5137 204.03 32.7533C203.696 33.1824 203.41 33.6114 202.981 34.1359ZM202.838 36.2813C203.029 36.472 203.124 36.5197 203.124 36.615C203.362 37.1395 203.839 37.7116 203.315 38.1883C202.79 38.6651 202.123 38.4744 201.408 38.0453L202.838 36.2813Z" fill="#FECA39"/>
<path d="M204.983 163.194C204.888 173.254 195.83 179.213 187.009 175.638C184.292 174.541 181.813 172.872 179.81 170.727C174.9 165.626 175.043 157.473 180.144 152.515C183.529 149.273 188.392 148.129 192.874 149.511C194.018 149.797 195.162 150.179 196.259 150.656C201.789 153.421 204.65 157.855 204.983 163.194Z" fill="#26292A"/>
<path d="M189.155 173.635C183.1 173.778 177.617 168.677 177.474 162.384C177.188 155.9 182.242 150.417 188.726 150.179C195.21 149.94 200.693 154.946 200.931 161.43C201.169 167.914 196.163 173.397 189.679 173.635H189.155ZM201.36 166.293C201.98 166.436 202.266 166.818 202.647 166.961C203.362 167.199 203.267 167.676 203.029 168.2C202.218 170.06 202.457 169.821 200.836 168.725C200.55 168.582 200.407 168.248 200.55 167.962C200.55 167.914 200.597 167.867 200.645 167.819C200.883 167.39 201.122 166.865 201.36 166.293ZM203.458 166.15C201.694 165.292 201.694 165.292 202.075 163.051C204.03 163.719 204.173 164.529 203.458 166.15ZM198.881 170.584C199.072 170.107 199.405 169.726 199.787 169.392C200.216 169.583 200.645 169.821 200.979 170.155C201.408 170.393 201.551 170.965 201.265 171.395C201.122 171.585 200.979 171.728 200.74 171.776C200.502 171.871 200.311 171.728 200.168 171.585C199.739 171.299 199.31 170.965 198.881 170.584ZM203.601 162.288C202.457 162.002 201.884 161.335 201.98 160.191C202.028 159.809 201.741 159.428 201.884 159.047C203.172 159.38 203.505 160.048 203.601 162.288ZM196.926 172.3C197.117 172.11 197.355 171.967 197.546 171.776C197.927 171.347 198.261 171.395 198.643 171.776C198.786 171.919 198.976 172.062 199.119 172.205C199.262 172.348 199.834 172.539 199.501 173.016C199.262 173.492 198.69 173.635 198.213 173.397C198.166 173.349 198.118 173.349 198.07 173.302C197.737 173.016 197.403 172.682 196.926 172.3ZM194.59 173.731C196.116 172.729 196.116 172.729 197.403 174.255C195.83 175.209 195.973 175.018 194.59 173.731ZM191.968 174.541C192.969 173.969 193.78 174.112 194.399 175.161C193.064 175.733 192.778 175.685 191.968 174.541ZM200.931 155.757L201.789 156.901C201.932 157.092 202.028 157.283 202.028 157.521C201.646 157.712 201.36 157.521 201.217 157.187C200.979 156.71 200.788 156.234 200.597 155.757C200.645 155.662 200.788 155.614 200.883 155.709C200.883 155.709 200.883 155.757 200.931 155.757ZM189.06 175.066C190.204 174.732 190.204 174.732 190.728 175.399C190.156 175.399 189.584 175.256 189.06 175.066ZM200.025 154.946C199.882 154.803 199.596 154.66 199.834 154.517C200.073 154.374 200.216 154.708 200.359 154.946C200.311 155.042 200.168 155.089 200.073 155.042C200.073 154.994 200.073 154.994 200.025 154.946Z" fill="#FECA39"/>
<path d="M200.931 155.757H200.597C200.454 155.757 200.406 155.614 200.406 155.518C200.311 155.423 200.311 155.28 200.406 155.185L200.454 155.137C200.645 155.28 200.836 155.518 200.931 155.757Z" fill="#FECA39"/>
<path d="M200.407 155.185C200.407 155.28 200.407 155.423 200.359 155.519C200.216 155.375 200.073 155.185 200.025 154.946H200.359C200.407 155.042 200.407 155.089 200.407 155.185Z" fill="#FECA39"/>
<path d="M185.437 164.005C184.864 163.623 184.292 163.194 183.768 162.718C183.386 162.336 183.1 161.859 183.005 161.335C182.862 160.238 183.625 159.619 184.626 160C184.912 160.143 185.198 160.334 185.15 160.667C185.103 161.001 184.817 161.144 184.483 161.097C184.34 161.097 184.245 161.049 184.149 161.335C184.531 162.002 185.103 162.527 185.818 162.813C186.056 162.956 186.342 162.908 186.533 162.67C186.724 162.479 186.867 162.241 187.058 162.05C188.154 160.667 188.154 160.667 187.296 159.142C187.01 158.713 186.819 158.236 186.628 157.712C186.199 156.234 187.01 155.232 188.535 155.28C189.251 155.28 189.966 155.375 190.633 155.662C191.158 155.9 191.587 156.043 191.968 155.375C192.159 155.089 192.493 154.803 192.874 155.137C193.112 155.375 193.16 155.757 192.922 155.995L192.826 156.091C192.302 156.615 192.588 156.996 192.969 157.426C193.398 157.855 193.732 158.427 193.875 159.047C194.018 160 193.303 160.715 192.493 160.429C192.111 160.286 191.73 160.048 191.777 159.571C191.825 159.094 192.254 159.094 192.588 159.047C192.588 158.76 192.445 158.522 192.254 158.331C192.111 158.141 191.968 157.998 191.777 157.759C190.967 158.474 190.538 159.38 189.918 160.143C189.632 160.524 189.823 160.811 190.013 161.097C190.395 161.621 190.633 162.288 190.681 162.956C190.681 164.195 190.061 164.863 188.822 164.815C188.297 164.815 187.773 164.72 187.248 164.529C186.819 164.291 186.342 164.482 186.104 164.863C185.818 165.244 185.484 165.626 185.15 165.959C184.96 166.15 184.674 166.15 184.483 166.007L184.435 165.959C184.245 165.816 184.245 165.53 184.388 165.34C184.674 165.006 185.007 164.529 185.437 164.005Z" fill="#363A3B"/>
<path d="M188.964 159.571C188.392 158.903 187.963 158.188 187.725 157.33C187.582 156.853 187.772 156.567 188.297 156.52H189.25C190.776 156.663 190.871 156.901 190.013 158.141C189.679 158.57 189.346 158.999 188.964 159.571ZM188.774 161.716C188.964 161.907 189.06 161.955 189.06 162.05C189.298 162.574 189.775 163.147 189.25 163.623C188.726 164.1 188.058 163.862 187.343 163.48L188.774 161.716Z" fill="#FECA39"/>
</svg>
