<svg width="22" height="22" viewBox="0 0 22 22" fill="none" xmlns="http://www.w3.org/2000/svg">
<path d="M10.4617 13.9521C10.6364 13.9838 10.8164 14.0003 11.0002 14.0003C12.6571 14.0003 14.0002 12.6571 14.0002 11.0003C14.0002 9.53378 12.948 8.31304 11.5573 8.05191C12.4515 5.18515 14.2279 4.04994 16.8865 4.64628L18.22 5.76054H20.1062L21.1423 8.23515L19.3596 9.56962V11.9227L21.1423 14.2107L20.1062 15.8411H18.22L16.2122 16.9393V19.7776L13.8005 21.222L11.2542 19.0442H9.68433L7.80835 21.222L5.62183 19.7776V16.9393C8.01133 17.7475 9.62464 16.7518 10.4617 13.9521ZM11.0002 12.0003C10.448 12.0003 10.0002 11.5526 10.0002 11.0003C10.0002 10.448 10.448 10.0003 11.0002 10.0003C11.5525 10.0003 12.0002 10.448 12.0002 11.0003C12.0002 11.5526 11.5525 12.0003 11.0002 12.0003Z" fill="#D8D8D8"/>
<mask id="mask0_196_1530" style="mask-type:luminance" maskUnits="userSpaceOnUse" x="5" y="4" width="17" height="18">
<path d="M10.4617 13.9521C10.6364 13.9838 10.8164 14.0003 11.0002 14.0003C12.6571 14.0003 14.0002 12.6571 14.0002 11.0003C14.0002 9.53378 12.948 8.31304 11.5573 8.05191C12.4515 5.18515 14.2279 4.04994 16.8865 4.64628L18.22 5.76054H20.1062L21.1423 8.23515L19.3596 9.56962V11.9227L21.1423 14.2107L20.1062 15.8411H18.22L16.2122 16.9393V19.7776L13.8005 21.222L11.2542 19.0442H9.68433L7.80835 21.222L5.62183 19.7776V16.9393C8.01133 17.7475 9.62464 16.7518 10.4617 13.9521ZM11.0002 12.0003C10.448 12.0003 10.0002 11.5526 10.0002 11.0003C10.0002 10.448 10.448 10.0003 11.0002 10.0003C11.5525 10.0003 12.0002 10.448 12.0002 11.0003C12.0002 11.5526 11.5525 12.0003 11.0002 12.0003Z" fill="white"/>
</mask>
<g mask="url(#mask0_196_1530)">
<path d="M23.0002 -0.999695H-0.999756V23.0003H23.0002V-0.999695Z" fill="#ED5564"/>
</g>
<path d="M2.00027 7.86705C3.10568 8.47449 3.85487 9.64989 3.85487 11.0003C3.85487 12.3507 3.10568 13.5261 2.00027 14.1335C2.12141 14.4815 2.26216 14.8203 2.42119 15.1486C3.63226 14.7967 4.99295 15.0981 5.94771 16.0528C6.90247 17.0076 7.20388 18.3683 6.85195 19.5793C7.18025 19.7384 7.51906 19.8791 7.86705 20.0003C8.47449 18.8949 9.64989 18.1457 11.0003 18.1457C12.3507 18.1457 13.5261 18.8949 14.1335 20.0003C14.4815 19.8791 14.8203 19.7384 15.1486 19.5793C14.7967 18.3683 15.0981 17.0076 16.0528 16.0528C17.0076 15.0981 18.3683 14.7967 19.5793 15.1486C19.7384 14.8203 19.8791 14.4815 20.0003 14.1335C18.8949 13.5261 18.1457 12.3507 18.1457 11.0003C18.1457 9.64989 18.8949 8.47449 20.0003 7.86705C19.8791 7.51906 19.7384 7.18025 19.5793 6.85195C18.3683 7.20388 17.0076 6.90247 16.0528 5.94771C15.0981 4.99295 14.7967 3.63226 15.1486 2.42119C14.8203 2.26216 14.4815 2.12141 14.1335 2.00027C13.5261 3.10568 12.3507 3.85487 11.0003 3.85487C9.64989 3.85487 8.47449 3.10568 7.86705 2.00027C7.51906 2.12141 7.18025 2.26216 6.85195 2.42119C7.20388 3.63226 6.90247 4.99295 5.94771 5.94771C4.99295 6.90247 3.63226 7.20388 2.42119 6.85195C2.26216 7.18025 2.12141 7.51906 2.00027 7.86705ZM0.111437 7.20955C0.257571 6.78974 0.427852 6.37928 0.621271 5.98001C1.04647 5.10229 2.04275 4.65924 2.9793 4.9314C3.52849 5.09099 4.12255 4.94444 4.53349 4.53349C4.94444 4.12255 5.09099 3.52849 4.9314 2.9793C4.65924 2.04275 5.10229 1.04647 5.98001 0.621271C6.37928 0.427852 6.78974 0.257571 7.20955 0.111437C8.13121 -0.209391 9.14985 0.181805 9.61984 1.03708C9.8953 1.53836 10.419 1.85487 11.0003 1.85487C11.5815 1.85487 12.1052 1.53836 12.3807 1.03708C12.8507 0.181805 13.8693 -0.209391 14.791 0.111437C15.2108 0.257571 15.6213 0.427852 16.0205 0.621271C16.8983 1.04647 17.3413 2.04275 17.0691 2.9793C16.9095 3.52849 17.0561 4.12255 17.467 4.53349C17.878 4.94444 18.4721 5.09099 19.0212 4.9314C19.9578 4.65924 20.9541 5.10229 21.3793 5.98001C21.5727 6.37928 21.743 6.78974 21.8891 7.20955C22.2099 8.13121 21.8187 9.14985 20.9635 9.61984C20.4622 9.8953 20.1457 10.419 20.1457 11.0003C20.1457 11.5815 20.4622 12.1052 20.9635 12.3807C21.8187 12.8507 22.2099 13.8693 21.8891 14.791C21.743 15.2108 21.5727 15.6213 21.3793 16.0205C20.9541 16.8983 19.9578 17.3413 19.0212 17.0691C18.4721 16.9095 17.878 17.0561 17.467 17.467C17.0561 17.878 16.9095 18.4721 17.0691 19.0212C17.3413 19.9578 16.8983 20.9541 16.0205 21.3793C15.6213 21.5727 15.2108 21.743 14.791 21.8891C13.8693 22.2099 12.8507 21.8187 12.3807 20.9635C12.1052 20.4622 11.5815 20.1457 11.0003 20.1457C10.419 20.1457 9.8953 20.4622 9.61984 20.9635C9.14985 21.8187 8.13121 22.2099 7.20955 21.8891C6.78974 21.743 6.37928 21.5727 5.98001 21.3793C5.10229 20.9541 4.65924 19.9578 4.9314 19.0212C5.09099 18.4721 4.94444 17.878 4.53349 17.467C4.12255 17.0561 3.52849 16.9095 2.9793 17.0691C2.04275 17.3413 1.04647 16.8983 0.621271 16.0205C0.427852 15.6213 0.257571 15.2108 0.111437 14.791C-0.209391 13.8693 0.181805 12.8507 1.03708 12.3807C1.53836 12.1052 1.85487 11.5815 1.85487 11.0003C1.85487 10.419 1.53836 9.8953 1.03708 9.61984C0.181805 9.14985 -0.209391 8.13121 0.111437 7.20955ZM11.0003 15.0003C13.2094 15.0003 15.0003 13.2094 15.0003 11.0003C15.0003 8.79113 13.2094 7.00027 11.0003 7.00027C8.79113 7.00027 7.00027 8.79113 7.00027 11.0003C7.00027 13.2094 8.79113 15.0003 11.0003 15.0003ZM11.0003 13.0003C9.8957 13.0003 9.00027 12.1048 9.00027 11.0003C9.00027 9.8957 9.8957 9.00027 11.0003 9.00027C12.1048 9.00027 13.0003 9.8957 13.0003 11.0003C13.0003 12.1048 12.1048 13.0003 11.0003 13.0003Z" fill="black"/>
<mask id="mask1_196_1530" style="mask-type:luminance" maskUnits="userSpaceOnUse" x="0" y="0" width="23" height="23">
<path d="M2.00027 7.86705C3.10568 8.47449 3.85487 9.64989 3.85487 11.0003C3.85487 12.3507 3.10568 13.5261 2.00027 14.1335C2.12141 14.4815 2.26216 14.8203 2.42119 15.1486C3.63226 14.7967 4.99295 15.0981 5.94771 16.0528C6.90247 17.0076 7.20388 18.3683 6.85195 19.5793C7.18025 19.7384 7.51906 19.8791 7.86705 20.0003C8.47449 18.8949 9.64989 18.1457 11.0003 18.1457C12.3507 18.1457 13.5261 18.8949 14.1335 20.0003C14.4815 19.8791 14.8203 19.7384 15.1486 19.5793C14.7967 18.3683 15.0981 17.0076 16.0528 16.0528C17.0076 15.0981 18.3683 14.7967 19.5793 15.1486C19.7384 14.8203 19.8791 14.4815 20.0003 14.1335C18.8949 13.5261 18.1457 12.3507 18.1457 11.0003C18.1457 9.64989 18.8949 8.47449 20.0003 7.86705C19.8791 7.51906 19.7384 7.18025 19.5793 6.85195C18.3683 7.20388 17.0076 6.90247 16.0528 5.94771C15.0981 4.99295 14.7967 3.63226 15.1486 2.42119C14.8203 2.26216 14.4815 2.12141 14.1335 2.00027C13.5261 3.10568 12.3507 3.85487 11.0003 3.85487C9.64989 3.85487 8.47449 3.10568 7.86705 2.00027C7.51906 2.12141 7.18025 2.26216 6.85195 2.42119C7.20388 3.63226 6.90247 4.99295 5.94771 5.94771C4.99295 6.90247 3.63226 7.20388 2.42119 6.85195C2.26216 7.18025 2.12141 7.51906 2.00027 7.86705ZM0.111437 7.20955C0.257571 6.78974 0.427852 6.37928 0.621271 5.98001C1.04647 5.10229 2.04275 4.65924 2.9793 4.9314C3.52849 5.09099 4.12255 4.94444 4.53349 4.53349C4.94444 4.12255 5.09099 3.52849 4.9314 2.9793C4.65924 2.04275 5.10229 1.04647 5.98001 0.621271C6.37928 0.427852 6.78974 0.257571 7.20955 0.111437C8.13121 -0.209391 9.14985 0.181805 9.61984 1.03708C9.8953 1.53836 10.419 1.85487 11.0003 1.85487C11.5815 1.85487 12.1052 1.53836 12.3807 1.03708C12.8507 0.181805 13.8693 -0.209391 14.791 0.111437C15.2108 0.257571 15.6213 0.427852 16.0205 0.621271C16.8983 1.04647 17.3413 2.04275 17.0691 2.9793C16.9095 3.52849 17.0561 4.12255 17.467 4.53349C17.878 4.94444 18.4721 5.09099 19.0212 4.9314C19.9578 4.65924 20.9541 5.10229 21.3793 5.98001C21.5727 6.37928 21.743 6.78974 21.8891 7.20955C22.2099 8.13121 21.8187 9.14985 20.9635 9.61984C20.4622 9.8953 20.1457 10.419 20.1457 11.0003C20.1457 11.5815 20.4622 12.1052 20.9635 12.3807C21.8187 12.8507 22.2099 13.8693 21.8891 14.791C21.743 15.2108 21.5727 15.6213 21.3793 16.0205C20.9541 16.8983 19.9578 17.3413 19.0212 17.0691C18.4721 16.9095 17.878 17.0561 17.467 17.467C17.0561 17.878 16.9095 18.4721 17.0691 19.0212C17.3413 19.9578 16.8983 20.9541 16.0205 21.3793C15.6213 21.5727 15.2108 21.743 14.791 21.8891C13.8693 22.2099 12.8507 21.8187 12.3807 20.9635C12.1052 20.4622 11.5815 20.1457 11.0003 20.1457C10.419 20.1457 9.8953 20.4622 9.61984 20.9635C9.14985 21.8187 8.13121 22.2099 7.20955 21.8891C6.78974 21.743 6.37928 21.5727 5.98001 21.3793C5.10229 20.9541 4.65924 19.9578 4.9314 19.0212C5.09099 18.4721 4.94444 17.878 4.53349 17.467C4.12255 17.0561 3.52849 16.9095 2.9793 17.0691C2.04275 17.3413 1.04647 16.8983 0.621271 16.0205C0.427852 15.6213 0.257571 15.2108 0.111437 14.791C-0.209391 13.8693 0.181805 12.8507 1.03708 12.3807C1.53836 12.1052 1.85487 11.5815 1.85487 11.0003C1.85487 10.419 1.53836 9.8953 1.03708 9.61984C0.181805 9.14985 -0.209391 8.13121 0.111437 7.20955ZM11.0003 15.0003C13.2094 15.0003 15.0003 13.2094 15.0003 11.0003C15.0003 8.79113 13.2094 7.00027 11.0003 7.00027C8.79113 7.00027 7.00027 8.79113 7.00027 11.0003C7.00027 13.2094 8.79113 15.0003 11.0003 15.0003ZM11.0003 13.0003C9.8957 13.0003 9.00027 12.1048 9.00027 11.0003C9.00027 9.8957 9.8957 9.00027 11.0003 9.00027C12.1048 9.00027 13.0003 9.8957 13.0003 11.0003C13.0003 12.1048 12.1048 13.0003 11.0003 13.0003Z" fill="white"/>
</mask>
<g mask="url(#mask1_196_1530)">
<path d="M23.0002 -0.999756H-0.999756V23.0002H23.0002V-0.999756Z" fill="#FFCE54"/>
</g>
</svg>
