<svg width="56" height="24" viewBox="0 0 56 24" fill="none" xmlns="http://www.w3.org/2000/svg">
<g clip-path="url(#clip0_132_1810)">
<path fill-rule="evenodd" clip-rule="evenodd" d="M3.58421 3.92505H21.013C22.1723 3.92505 23.1211 4.87382 23.1211 6.03314V18.2294C23.1211 19.3887 22.1723 20.3375 21.013 20.3375H3.07733C1.91801 20.3375 0.969238 19.3887 0.969238 18.2294V3.16344C0.969238 2.61497 1.42153 2.23546 1.9648 2.16788L18.0367 0.116974C18.5852 0.116974 19.0323 0.564066 19.0323 1.11253V2.81772H2.57825C2.57825 3.53255 2.7914 3.92505 3.58161 3.92505H3.58421ZM13.3578 17.2884C11.8918 17.5692 10.0073 17.0805 8.9831 15.9783C8.52041 15.4819 9.26643 14.7306 9.73172 15.2323C10.4206 15.9757 11.6501 16.3215 12.6534 16.2981C13.9323 16.2695 15.0682 15.1076 14.343 13.8079C13.337 12.0091 10.8624 12.5134 9.58876 11.0993C8.5594 9.9582 9.04809 8.16463 10.2568 7.37182C11.5175 6.54262 13.6932 6.57381 14.7303 7.76433C15.1774 8.2738 14.4288 9.02502 13.9817 8.51035C13.1447 7.55118 11.1666 7.68115 10.4102 8.66891C9.33662 10.0804 10.943 10.8394 12.066 11.1799C13.61 11.6478 15.323 12.503 15.6037 14.2732C15.8272 15.6976 14.7251 17.0259 13.3578 17.2884Z" fill="#EE4E2C"/>
<path fill-rule="evenodd" clip-rule="evenodd" d="M13.3579 17.2884C11.8918 17.5692 10.0073 17.0805 8.98314 15.9783C8.52045 15.4819 9.26647 14.7306 9.73176 15.2323C10.4206 15.9757 11.6501 16.3215 12.6535 16.2981C13.9323 16.2695 15.0683 15.1076 14.343 13.8079C13.3397 12.0091 10.8625 12.5134 9.58879 11.1019C8.55944 9.9608 9.04812 8.16723 10.2568 7.37182C11.5175 6.54262 13.6932 6.57382 14.7304 7.76433C15.1774 8.27381 14.4288 9.02502 13.9817 8.51035C13.1447 7.55118 11.1666 7.68115 10.4128 8.66891C9.33925 10.0804 10.9457 10.8394 12.0686 11.1799C13.6126 11.6478 15.3256 12.503 15.6063 14.2732C15.8299 15.6976 14.7278 17.0259 13.3605 17.2884H13.3579Z" fill="#FEFEFE"/>
<path d="M43.3756 3.17643C42.7517 3.17643 42.1929 3.44157 41.8082 3.86007V3.37399C41.8082 2.93469 41.1011 2.93209 41.1011 3.37399V9.129C41.1011 9.57089 41.8082 9.57089 41.8082 9.129V6.56602C42.1929 6.98451 42.7517 7.24705 43.3756 7.24705C44.5323 7.24705 45.4733 6.33467 45.4733 5.21174C45.4733 4.08881 44.5323 3.17643 43.3756 3.17643ZM43.3756 6.51143C42.6348 6.51143 42.0343 5.92657 42.0343 5.21174C42.0343 4.5671 42.5204 4.02903 43.1598 3.92765C43.1624 3.92765 43.1676 3.92505 43.1702 3.92505C43.2378 3.91466 43.3054 3.90946 43.373 3.90946C43.9188 3.90946 44.3919 4.22918 44.5999 4.68667C44.5999 4.68927 44.6025 4.69187 44.6025 4.69187C44.6753 4.85043 44.7143 5.02719 44.7143 5.20914C44.7143 5.92657 44.1138 6.50883 43.3756 6.50883V6.51143ZM38.1664 7.24705C37.0097 7.24705 36.0687 6.33467 36.0687 5.21174C36.0687 4.08881 37.0097 3.17643 38.1664 3.17643C39.3232 3.17643 40.2641 4.08881 40.2641 5.21174C40.2641 6.33467 39.3232 7.24705 38.1664 7.24705ZM38.1664 3.91206C37.4282 3.91206 36.8252 4.49432 36.8252 5.21174C36.8252 5.92917 37.4256 6.51143 38.1664 6.51143C38.9047 6.51143 39.5077 5.92917 39.5077 5.21174C39.5077 4.49432 38.9073 3.91206 38.1664 3.91206ZM55.0312 5.17275C55.013 4.23698 54.5191 3.39218 53.4975 3.20503C52.6163 3.04387 51.587 3.49356 51.2101 4.29416C50.8202 5.12596 50.9839 6.26709 51.7533 6.84675C52.5851 7.4732 53.8822 7.28084 54.7374 6.81556C55.1351 6.59981 54.779 6.00975 54.3813 6.2229C53.8406 6.51663 53.1336 6.66219 52.528 6.46464C52.0757 6.31908 51.8209 5.93957 51.743 5.51327H54.6802C54.8674 5.51327 55.0364 5.35471 55.0338 5.17015L55.0312 5.17275ZM51.7663 4.82963C51.7715 4.80364 51.7793 4.77765 51.7871 4.75425C51.9561 4.19539 52.5332 3.87307 53.118 3.85747C53.7913 3.83927 54.1682 4.28897 54.2851 4.82963H51.7663ZM50.3289 5.17795C50.3107 4.24218 49.8168 3.39738 48.7953 3.21023C47.9141 3.04906 46.8847 3.49876 46.5078 4.29936C46.1179 5.13116 46.2817 6.27229 47.0511 6.85195C47.8829 7.47839 49.18 7.28604 50.0352 6.82075C50.4329 6.60501 50.0768 6.01495 49.6791 6.2281C49.1384 6.52183 48.4314 6.66739 47.8257 6.46984C47.3734 6.32427 47.1187 5.94477 47.0407 5.51847H49.978C50.1651 5.51847 50.3341 5.35991 50.3315 5.17535L50.3289 5.17795ZM47.0641 4.83483C47.0693 4.80884 47.0771 4.78285 47.0849 4.75945C47.2538 4.20059 47.8309 3.87826 48.4158 3.86267C49.089 3.84447 49.4659 4.29416 49.5829 4.83483H47.0641ZM35.2369 4.51771V6.89614C35.2369 7.34583 34.5299 7.34583 34.5299 6.89614V4.5645C34.5065 4.10441 34.1114 3.89126 34.0984 3.88606C33.5967 3.66772 32.6818 3.76909 32.1385 4.45792V6.89614C32.1385 7.34583 31.4315 7.34583 31.4315 6.89614V0.787611C31.4315 0.340519 32.1385 0.340519 32.1385 0.787611V3.53255C33.0041 2.95549 34.1062 3.02047 34.6235 3.37399C34.6235 3.37399 35.2447 3.7145 35.2343 4.52031L35.2369 4.51771ZM30.2773 1.06834C29.5859 0.304128 28.1329 0.285932 27.2907 0.818803C26.4849 1.32828 26.1573 2.4824 26.8436 3.21283C27.6936 4.12001 29.3468 3.79768 30.02 4.94921C30.5061 5.7836 29.7445 6.52962 28.8919 6.54782C28.2238 6.56082 27.4024 6.33987 26.9397 5.86159C26.6304 5.54186 26.1313 6.02275 26.4407 6.34247C27.1243 7.0495 28.385 7.36402 29.3624 7.18207C30.2747 7.01311 31.013 6.16051 30.8622 5.24553C30.675 4.10961 29.5313 3.56114 28.4994 3.25961C27.7482 3.04127 26.6746 2.55258 27.3946 1.648C27.8989 1.01376 29.2194 0.927977 29.7783 1.54663C30.0772 1.87675 30.5763 1.39586 30.2773 1.06574V1.06834Z" fill="#EE4E2C"/>
<path fill-rule="evenodd" clip-rule="evenodd" d="M48.691 23.883H46.4478L48.847 19.3471L44.9064 11.9025H47.3394L50.0635 17.0467L52.7876 11.9025H55.0309L48.691 23.883ZM26.3442 20.3349H28.2236V16.8985H30.758C33.3859 16.8985 35.5174 15.0556 35.5174 12.7811C35.5174 10.5067 33.3859 8.66371 30.758 8.66371H26.3442C26.3442 12.555 26.3442 16.4436 26.3442 20.3349ZM28.2236 15.0192V10.5431H30.758C32.185 10.5431 33.3443 11.5438 33.3443 12.7811C33.3443 14.0158 32.1876 15.0192 30.758 15.0192H28.2236ZM42.5565 11.9779H44.2071V20.2621H42.5565V19.3315C41.8209 19.958 40.8669 20.3349 39.8272 20.3349C37.4981 20.3349 35.611 18.4477 35.611 16.1187C35.611 13.7897 37.4981 11.9025 39.8272 11.9025C40.8695 11.9025 41.8209 12.2794 42.5565 12.9059V11.9753V11.9779ZM39.8272 13.6805C41.1737 13.6805 42.2654 14.7722 42.2654 16.1187C42.2654 17.4652 41.1737 18.5569 39.8272 18.5569C38.4807 18.5569 37.389 17.4652 37.389 16.1187C37.389 14.7722 38.4807 13.6805 39.8272 13.6805Z" fill="#EE4E2C"/>
</g>
<defs>
<clipPath id="clip0_132_1810">
<rect width="54.588" height="24" fill="white" transform="translate(0.706055)"/>
</clipPath>
</defs>
</svg>
