<svg width="24" height="23" viewBox="0 0 24 23" fill="none" xmlns="http://www.w3.org/2000/svg">
<path d="M5.45459 15.2727H17.4546V21.8182H5.45459V15.2727Z" fill="#BF360C"/>
<path d="M1.63635 13.0909C1.63635 13.6696 1.86622 14.2245 2.27539 14.6337C2.68456 15.0429 3.23952 15.2728 3.81817 15.2728C4.39682 15.2728 4.95178 15.0429 5.36095 14.6337C5.77012 14.2245 5.99999 13.6696 5.99999 13.0909C5.99999 12.5123 5.77012 11.9573 5.36095 11.5482C4.95178 11.139 4.39682 10.9091 3.81817 10.9091C3.23952 10.9091 2.68456 11.139 2.27539 11.5482C1.86622 11.9573 1.63635 12.5123 1.63635 13.0909Z" fill="#FFA726"/>
<path d="M16.9091 13.0909C16.9091 13.6696 17.1389 14.2245 17.5481 14.6337C17.9573 15.0429 18.5122 15.2728 19.0909 15.2728C19.6695 15.2728 20.2245 15.0429 20.6337 14.6337C21.0428 14.2245 21.2727 13.6696 21.2727 13.0909C21.2727 12.5123 21.0428 11.9573 20.6337 11.5482C20.2245 11.139 19.6695 10.9091 19.0909 10.9091C18.5122 10.9091 17.9573 11.139 17.5481 11.5482C17.1389 11.9573 16.9091 12.5123 16.9091 13.0909Z" fill="#FFA726"/>
<path d="M19.6363 9.2727C19.6363 2.34543 3.27271 4.74543 3.27271 9.2727V14.7272C3.27271 19.2545 6.92725 22.9091 11.4545 22.9091C15.9818 22.9091 19.6363 19.2545 19.6363 14.7272V9.2727Z" fill="#FFCE54"/>
<path d="M13.6364 13.0909C13.6364 13.2342 13.6646 13.376 13.7194 13.5084C13.7742 13.6407 13.8546 13.761 13.9559 13.8623C14.0572 13.9636 14.1774 14.044 14.3098 14.0988C14.4421 14.1536 14.584 14.1818 14.7273 14.1818C14.8705 14.1818 15.0124 14.1536 15.1447 14.0988C15.2771 14.044 15.3974 13.9636 15.4987 13.8623C15.6 13.761 15.6803 13.6407 15.7351 13.5084C15.79 13.376 15.8182 13.2342 15.8182 13.0909C15.8182 12.9476 15.79 12.8058 15.7351 12.6734C15.6803 12.5411 15.6 12.4208 15.4987 12.3195C15.3974 12.2182 15.2771 12.1379 15.1447 12.083C15.0124 12.0282 14.8705 12 14.7273 12C14.584 12 14.4421 12.0282 14.3098 12.083C14.1774 12.1379 14.0572 12.2182 13.9559 12.3195C13.8546 12.4208 13.7742 12.5411 13.7194 12.6734C13.6646 12.8058 13.6364 12.9476 13.6364 13.0909Z" fill="#784719"/>
<path d="M7.09094 13.0909C7.09094 13.3802 7.20588 13.6577 7.41046 13.8623C7.61505 14.0669 7.89252 14.1818 8.18185 14.1818C8.47118 14.1818 8.74866 14.0669 8.95324 13.8623C9.15783 13.6577 9.27276 13.3802 9.27276 13.0909C9.27276 12.8016 9.15783 12.5241 8.95324 12.3195C8.74866 12.1149 8.47118 12 8.18185 12C7.89252 12 7.61505 12.1149 7.41046 12.3195C7.20588 12.5241 7.09094 12.8016 7.09094 13.0909Z" fill="#784719"/>
<path d="M11.4545 0C6.81818 0 0 3.16364 0 18.3273L5.45455 21.8182V12L14.6182 6.65454L17.4545 10.3636V21.8182L22.9091 17.3455C22.9091 14.2909 22.4182 1.52727 14.5091 1.52727L13.7455 0H11.4545Z" fill="#ED5564"/>
<path d="M22.909 12C22.5818 12 22.3636 12.2182 22.3636 12.5455V8.72727C22.3636 3.92727 18.4363 0 13.6363 0H8.72722C8.39994 0 8.18176 0.218182 8.18176 0.545455C8.18176 0.872727 8.39994 1.09091 8.72722 1.09091H13.6363C17.8363 1.09091 21.2727 4.52727 21.2727 8.72727V14.1818C21.2727 14.5091 21.4909 14.7273 21.8181 14.7273C22.1454 14.7273 22.3636 14.5091 22.3636 14.1818V15.2727C22.3636 17.4 20.6727 19.0909 18.5454 19.0909H11.4545C11.1272 19.0909 10.909 19.3091 10.909 19.6364C10.909 19.9636 11.1272 20.1818 11.4545 20.1818H18.5454C21.2727 20.1818 23.4545 18 23.4545 15.2727V12.5455C23.4545 12.2182 23.2363 12 22.909 12Z" fill="#757575"/>
<path d="M22.9091 10.9091H22.3636C21.7636 10.9091 21.2727 11.4 21.2727 12V14.1818C21.2727 14.7818 21.7636 15.2728 22.3636 15.2728H22.9091C23.5091 15.2728 24 14.7818 24 14.1818V12C24 11.4 23.5091 10.9091 22.9091 10.9091Z" fill="#37474F"/>
<path d="M10.3636 19.6364C10.3636 19.9257 10.4786 20.2032 10.6832 20.4078C10.8878 20.6124 11.1652 20.7273 11.4546 20.7273C11.7439 20.7273 12.0214 20.6124 12.2259 20.4078C12.4305 20.2032 12.5455 19.9257 12.5455 19.6364C12.5455 19.3471 12.4305 19.0696 12.2259 18.865C12.0214 18.6604 11.7439 18.5455 11.4546 18.5455C11.1652 18.5455 10.8878 18.6604 10.6832 18.865C10.4786 19.0696 10.3636 19.3471 10.3636 19.6364Z" fill="#37474F"/>
</svg>
