<svg width="24" height="12" viewBox="0 0 24 12" fill="none" xmlns="http://www.w3.org/2000/svg">
<path d="M21.2727 9.81814C22.1765 9.81814 22.9091 9.08551 22.9091 8.18177C22.9091 7.27804 22.1765 6.54541 21.2727 6.54541C20.369 6.54541 19.6364 7.27804 19.6364 8.18177C19.6364 9.08551 20.369 9.81814 21.2727 9.81814Z" fill="#D8D8D8"/>
<mask id="mask0_196_1580" style="mask-type:luminance" maskUnits="userSpaceOnUse" x="19" y="6" width="4" height="4">
<path d="M21.2727 9.81814C22.1765 9.81814 22.9091 9.08551 22.9091 8.18177C22.9091 7.27804 22.1765 6.54541 21.2727 6.54541C20.369 6.54541 19.6364 7.27804 19.6364 8.18177C19.6364 9.08551 20.369 9.81814 21.2727 9.81814Z" fill="white"/>
</mask>
<g mask="url(#mask0_196_1580)">
<path d="M25.0909 -6.54541H-1.09094V19.6364H25.0909V-6.54541Z" fill="#ED5564"/>
</g>
<path d="M16.6398 8.51932H15.2565C14.8627 8.51932 14.4995 8.30713 14.3062 7.96413L11.8699 3.64255L9.02615 11.0244C8.68223 11.9171 7.43761 11.9663 7.02431 11.1035L4.60965 6.06261L3.42104 7.99909C3.22263 8.32233 2.87058 8.51932 2.4913 8.51932H1.09091C0.488417 8.51932 0 8.0309 0 7.42841C0 6.82592 0.488417 6.3375 1.09091 6.3375H1.88088L3.79825 3.21376C4.25032 2.47725 5.3385 2.53377 5.71184 3.31316L7.8994 7.87992L10.6659 0.69882C10.9975 -0.161886 12.1812 -0.248218 12.6342 0.55527L15.8938 6.3375H16.438C16.7878 4.58961 18.331 3.27273 20.1818 3.27273C22.2905 3.27273 24 4.98219 24 7.09091C24 9.19963 22.2905 10.9091 20.1818 10.9091C18.5781 10.9091 17.2054 9.92041 16.6398 8.51932ZM20.1818 8.72727C21.0856 8.72727 21.8182 7.99465 21.8182 7.09091C21.8182 6.18717 21.0856 5.45455 20.1818 5.45455C19.2781 5.45455 18.5455 6.18717 18.5455 7.09091C18.5455 7.99465 19.2781 8.72727 20.1818 8.72727Z" fill="black"/>
<mask id="mask1_196_1580" style="mask-type:luminance" maskUnits="userSpaceOnUse" x="0" y="0" width="24" height="12">
<path d="M16.6398 8.51932H15.2565C14.8627 8.51932 14.4995 8.30713 14.3062 7.96413L11.8699 3.64255L9.02615 11.0244C8.68223 11.9171 7.43761 11.9663 7.02431 11.1035L4.60965 6.06261L3.42104 7.99909C3.22263 8.32233 2.87058 8.51932 2.4913 8.51932H1.09091C0.488417 8.51932 0 8.0309 0 7.42841C0 6.82592 0.488417 6.3375 1.09091 6.3375H1.88088L3.79825 3.21376C4.25032 2.47725 5.3385 2.53377 5.71184 3.31316L7.8994 7.87992L10.6659 0.69882C10.9975 -0.161886 12.1812 -0.248218 12.6342 0.55527L15.8938 6.3375H16.438C16.7878 4.58961 18.331 3.27273 20.1818 3.27273C22.2905 3.27273 24 4.98219 24 7.09091C24 9.19963 22.2905 10.9091 20.1818 10.9091C18.5781 10.9091 17.2054 9.92041 16.6398 8.51932ZM20.1818 8.72727C21.0856 8.72727 21.8182 7.99465 21.8182 7.09091C21.8182 6.18717 21.0856 5.45455 20.1818 5.45455C19.2781 5.45455 18.5455 6.18717 18.5455 7.09091C18.5455 7.99465 19.2781 8.72727 20.1818 8.72727Z" fill="white"/>
</mask>
<g mask="url(#mask1_196_1580)">
<path d="M25.0909 -6.54541H-1.09094V19.6364H25.0909V-6.54541Z" fill="#FFCE54"/>
</g>
</svg>
