<svg width="41" height="27" viewBox="0 0 41 27" fill="none" xmlns="http://www.w3.org/2000/svg">
<path d="M37.9384 0H3.32298C1.98475 0 0.899902 1.08485 0.899902 2.42308V24.5769C0.899902 25.9152 1.98475 27 3.32298 27H37.9384C39.2766 27 40.3614 25.9152 40.3614 24.5769V2.42308C40.3614 1.08485 39.2766 0 37.9384 0Z" fill="white"/>
<path d="M18.3818 18.6461H15.7085L17.3806 8.95328H20.0538L18.3818 18.6461Z" fill="#15195A"/>
<path d="M28.073 9.19024C27.5457 8.99411 26.7093 8.77756 25.6752 8.77756C23.0352 8.77756 21.1761 10.0974 21.1647 11.9843C21.1428 13.3764 22.4958 14.1497 23.5077 14.6138C24.5419 15.0882 24.8936 15.3978 24.8936 15.8206C24.883 16.47 24.0578 16.7693 23.2881 16.7693C22.2208 16.7693 21.6489 16.615 20.7798 16.2537L20.4278 16.0988L20.0537 18.2746C20.6807 18.5424 21.8359 18.7801 23.0352 18.7905C25.8403 18.7905 27.6665 17.4911 27.6881 15.4803C27.6987 14.3769 26.9843 13.5314 25.4441 12.8406C24.5091 12.3971 23.9364 12.098 23.9364 11.6443C23.9475 11.2317 24.4208 10.8092 25.4763 10.8092C26.3453 10.7885 26.9839 10.9844 27.4676 11.1803L27.7094 11.2833L28.073 9.19024Z" fill="#15195A"/>
<path fill-rule="evenodd" clip-rule="evenodd" d="M32.8584 8.95328H34.9262L37.0829 18.6459H34.6076C34.6076 18.6459 34.3654 17.5323 34.2887 17.1919H30.8563C30.7571 17.4496 30.2953 18.6459 30.2953 18.6459H27.4902L31.4611 9.75746C31.7362 9.12843 32.2207 8.95328 32.8584 8.95328ZM32.6936 12.5003C32.6936 12.5003 31.8464 14.6554 31.6263 15.2122H33.8484C33.7385 14.7277 33.2322 12.4075 33.2322 12.4075L33.0454 11.5723C32.9667 11.7874 32.8529 12.0831 32.7761 12.2825C32.7241 12.4177 32.6891 12.5086 32.6936 12.5003Z" fill="#15195A"/>
<path fill-rule="evenodd" clip-rule="evenodd" d="M4.12555 8.95328H8.42665C9.00971 8.9737 9.48276 9.14899 9.63666 9.76805L10.5714 14.2215L10.5717 14.2224L10.8578 15.5628L13.4759 8.95328H16.3027L12.1007 18.6358H9.27368L6.89095 10.2136C6.06883 9.763 5.13057 9.40058 4.08154 9.14913L4.12555 8.95328Z" fill="#15195A"/>
</svg>
