<svg width="24" height="24" viewBox="0 0 24 24" fill="none" xmlns="http://www.w3.org/2000/svg">
<path d="M23.8531 14.304C23.335 13.5819 22.9047 13.4106 21.1035 14.3578L17.5142 16.5513C17.1046 16.7694 16.447 16.8819 15.7183 16.9378C15.7192 16.9473 15.7241 16.956 15.7241 16.9651C15.7241 17.1939 15.5392 17.3789 15.3103 17.3789H8.27587C7.03449 17.3789 7.03449 18.002 7.03449 18.2065C7.03449 18.4353 6.84952 18.6202 6.62069 18.6202C6.39145 18.6202 6.2069 18.4353 6.2069 18.2065C6.2069 17.1703 6.98028 16.5513 8.27587 16.5513H14.1666C14.388 16.3204 14.424 15.9645 14.0578 15.4183C13.4764 14.5498 12.4734 14.0569 11.4286 14.0569H9.81435C8.87338 14.0569 7.94525 13.7772 7.19421 13.2111C5.44097 11.8895 2.06897 11.9996 2.06897 11.9996V21.9306H7.86207C8.68842 21.9306 9.51393 21.8685 10.3308 21.744L15.7241 20.9242C15.9079 20.9242 16.087 20.9023 16.26 20.8638C16.2629 20.8634 16.2658 20.863 16.2683 20.8626C16.7052 20.8014 17.1041 20.5804 17.4223 20.2754L23.7103 15.3786C24.0306 15.1134 24.0956 14.6425 23.8531 14.304Z" fill="#FAC176"/>
<path d="M12.7138 16.9701C12.5624 16.9672 12.4196 16.9656 12.2971 16.9656C12.2971 16.9656 12.4697 16.9767 12.7138 16.9701Z" fill="#2C91D0"/>
<path d="M6.20691 18.2069C6.20691 18.4353 6.39187 18.6207 6.6207 18.6207C6.84953 18.6207 7.0345 18.4353 7.0345 18.2069C7.0345 18.0021 7.0345 17.3793 8.27587 17.3793H15.3104C15.5392 17.3793 15.7242 17.194 15.7242 16.9656C15.7242 16.9556 15.7192 16.9478 15.7188 16.9382C14.6893 17.0173 13.5219 16.9829 12.7134 16.9697C12.4693 16.9776 12.2967 16.9656 12.2967 16.9656C12.4192 16.9656 12.5624 16.9676 12.7134 16.9697C13.1615 16.9569 13.8513 16.8803 14.1666 16.5518H8.27587C6.98029 16.5518 6.20691 17.1704 6.20691 18.2069Z" fill="#E2AC69"/>
<path d="M20.2758 3.31034C20.2758 5.13848 18.7936 6.62069 16.9655 6.62069C15.1374 6.62069 13.6552 5.13848 13.6552 3.31034C13.6552 1.48221 15.1374 0 16.9655 0C18.7936 0 20.2758 1.48221 20.2758 3.31034Z" fill="#E4AF18"/>
<path d="M9.02314 13.9874C9.28341 14.0325 9.54783 14.0578 9.81431 14.0578H11.4281C11.6904 14.0578 11.9499 14.0888 12.2007 14.1488C13.3051 13.6121 14.0689 12.4829 14.0689 11.1724C14.0689 9.34427 12.5867 7.86206 10.7586 7.86206C8.93004 7.86206 7.44824 9.34427 7.44824 11.1724C7.44824 12.3633 8.07886 13.4044 9.02314 13.9874Z" fill="#E4AF18"/>
<path d="M12.4137 11.1724C12.4137 12.0865 11.6726 12.8276 10.7586 12.8276C9.8445 12.8276 9.10339 12.0865 9.10339 11.1724C9.10339 10.2583 9.8445 9.51721 10.7586 9.51721C11.6726 9.51721 12.4137 10.2583 12.4137 11.1724Z" fill="#FFCE54"/>
<path d="M18.6206 3.31032C18.6206 4.22439 17.8795 4.9655 16.9655 4.9655C16.0514 4.9655 15.3103 4.22439 15.3103 3.31032C15.3103 2.39625 16.0514 1.65515 16.9655 1.65515C17.8795 1.65515 18.6206 2.39625 18.6206 3.31032Z" fill="#FFCE54"/>
<path d="M2.06897 10.7471H0V23.1724H2.06897V10.7471Z" fill="#556180"/>
</svg>
